<?xml version="1.0" encoding="UTF-8"?>
<!DOCTYPE svg PUBLIC "-//W3C//DTD SVG 1.1//EN" "http://www.w3.org/Graphics/SVG/1.1/DTD/svg11.dtd">
<!-- Creator: CorelDRAW 2019 (64-Bit) -->
<svg xmlns="http://www.w3.org/2000/svg" xml:space="preserve" width="500mm" height="500mm" version="1.1" shape-rendering="geometricPrecision" text-rendering="geometricPrecision" image-rendering="optimizeQuality" fill-rule="evenodd" clip-rule="evenodd"
viewBox="0 0 50000 50000"
 xmlns:xlink="http://www.w3.org/1999/xlink">
 <defs>
    <linearGradient id="id0" gradientUnits="userSpaceOnUse" x1="10545.12" y1="21613.24" x2="32855.38" y2="20758.48">
     <stop offset="0" stop-opacity="1" stop-color="#FED136"/>
     <stop offset="1" stop-opacity="1" stop-color="#FF9F43"/>
    </linearGradient>
    <linearGradient id="id1" gradientUnits="userSpaceOnUse" x1="14115.63" y1="20630.45" x2="33113.43" y2="20630.45">
     <stop offset="0" stop-opacity="1" stop-color="#FF9F43"/>
     <stop offset="1" stop-opacity="1" stop-color="#FED136"/>
    </linearGradient>
    <clipPath id="id2">
     <path d="M19528.92 26503.55l11287.61 5.69c1011.27,0.52 1786.95,-828.78 1838.64,-1838.64l456.07 -8910.42c51.69,-1009.89 -827.43,-1842.86 -1838.63,-1838.64l-14535.33 60.82c-1011.15,4.23 -1760.81,830.42 -1838.64,1838.64 -223.6,2896.21 -783.01,7488.42 -783.01,10188.18 0,911.4 662.06,1330.21 1573.47,1330.21l2402.01 0c613.14,0 1029.71,-361.15 1437.81,-835.84z"/>
    </clipPath>
    <linearGradient id="id3" gradientUnits="userSpaceOnUse" x1="34753.61" y1="19682" x2="36536.61" y2="19682">
     <stop offset="0" stop-opacity="1" stop-color="#FF9F43"/>
     <stop offset="1" stop-opacity="1" stop-color="#FED136"/>
    </linearGradient>
    <linearGradient id="id4" gradientUnits="userSpaceOnUse" x1="36393.12" y1="20904.97" x2="37340.46" y2="21880.53">
     <stop offset="0" stop-opacity="1" stop-color="#FF9F43"/>
     <stop offset="1" stop-opacity="1" stop-color="#FED136"/>
    </linearGradient>
   <linearGradient id="id5" gradientUnits="userSpaceOnUse" x1="16873.3" y1="29716.98" x2="17596.64" y2="29716.98">
    <stop offset="0" stop-opacity="1" stop-color="#FF9F43"/>
    <stop offset="1" stop-opacity="1" stop-color="#FED136"/>
   </linearGradient>
   <linearGradient id="id6" gradientUnits="userSpaceOnUse" x1="16931.51" y1="30213.13" x2="16547.18" y2="30608.91">
    <stop offset="0" stop-opacity="1" stop-color="#FF9F43"/>
    <stop offset="1" stop-opacity="1" stop-color="#FED136"/>
   </linearGradient>
   <linearGradient id="id7" gradientUnits="userSpaceOnUse" x1="26575.75" y1="25080.75" x2="36081.03" y2="25080.75">
    <stop offset="0" stop-opacity="1" stop-color="#FF9F43"/>
    <stop offset="1" stop-opacity="1" stop-color="#FED136"/>
   </linearGradient>
   <linearGradient id="id8" gradientUnits="userSpaceOnUse" x1="36803.33" y1="32365.15" x2="38731.24" y2="30437.24">
    <stop offset="0" stop-opacity="1" stop-color="#FF9F43"/>
    <stop offset="1" stop-opacity="1" stop-color="#FED136"/>
   </linearGradient>
   <clipPath id="id9">
    <path d="M35413.9 29047.82l0.01 -0.01c530.17,-530.17 1397.71,-530.18 1927.9,0l2778.85 2778.86c530.19,530.18 530.18,1397.72 0,1927.9l-0.01 0.01c-530.17,530.17 -1397.71,530.18 -1927.9,0l-2778.85 -2778.86c-530.19,-530.18 -530.18,-1397.73 0,-1927.9z"/>
   </clipPath>
    <linearGradient id="id10" gradientUnits="userSpaceOnUse" x1="29989.91" y1="24654.41" x2="32266.09" y2="24654.41">
     <stop offset="0" stop-opacity="1" stop-color="#FF9F43"/>
     <stop offset="1" stop-opacity="1" stop-color="#FED136"/>
    </linearGradient>
    <linearGradient id="id11" gradientUnits="userSpaceOnUse" x1="30924.28" y1="26593.91" x2="31650.15" y2="26593.91">
     <stop offset="0" stop-opacity="1" stop-color="#FF9F43"/>
     <stop offset="1" stop-opacity="1" stop-color="#FED136"/>
    </linearGradient>
 </defs>
 <g id="Layer_x0020_1">
  <metadata id="CorelCorpID_0Corel-Layer"/>
  <!-- <path fill="#F4F4F4" fill-opacity="0.619608" d="M8814.3 17042.06c-3893.39,-2101.23 -1352.32,-9042.37 4023.69,-11589.48 5376.02,-2547.11 10619.27,-2020.14 12368.34,313.37 1749.08,2333.5 3793.48,2397.5 9875.02,3129.29 6081.55,731.79 12862.27,1179.89 9813.24,9367.2 -3049.02,8187.31 541.36,4633.18 2383.58,11743.88 1842.21,7110.7 -8532.86,4879.11 -11910.89,9726.34 -3378.03,4847.23 -4898.81,7626.49 -11794.21,7379.39 -6895.4,-247.1 -5770.86,-5309.18 -9875.02,-6951.64 -4104.16,-1642.45 -12144.82,-4188.72 -9941.38,-9840.7 2203.44,-5651.98 8951.03,-11176.42 5057.63,-13277.65z"/>
  <path fill="#FCFCFC" fill-opacity="0.619608" d="M7821.96 15881.21c-3813.58,-2058.15 -1324.6,-8857 3941.2,-11351.89 5265.81,-2494.9 10401.57,-1978.73 12114.79,306.94 1713.22,2285.67 3715.71,2348.35 9672.58,3065.14 5956.87,716.79 12598.58,1155.71 9612.07,9175.17 -2986.52,8019.47 530.26,4538.2 2334.71,11503.13 1804.44,6964.93 -8357.94,4779.09 -11666.71,9526.95 -3308.78,4747.86 -4798.39,7470.14 -11552.43,7228.11 -6754.04,-242.04 -5652.55,-5200.34 -9672.58,-6809.13 -4020.03,-1608.78 -11895.85,-4102.85 -9737.58,-9638.97 2158.27,-5536.11 8767.53,-10947.3 4953.95,-13005.45z"/> -->
  <path fill="#606060" d="M31950.32 12238.59c70.16,-175.22 269.06,-260.39 444.28,-190.24 175.22,70.16 260.39,269.06 190.23,444.28 -70.15,175.22 -269.05,260.39 -444.27,190.23 -175.22,-70.15 -260.39,-269.06 -190.24,-444.27z"/>
  <path fill="#606060" d="M34317.24 13621c-42.85,107.03 9.17,228.52 116.2,271.37 107.02,42.85 228.51,-9.17 271.36,-116.2 42.85,-107.02 -9.17,-228.51 -116.19,-271.36 -107.03,-42.85 -228.52,9.17 -271.37,116.19z"/>
  <path fill="#606060" d="M35283.75 15894.73c58.63,-146.43 224.85,-217.6 371.28,-158.98 146.43,58.63 217.6,224.85 158.98,371.28 -58.63,146.43 -224.85,217.6 -371.28,158.97 -146.43,-58.62 -217.6,-224.84 -158.98,-371.27z"/>
  <path fill="#606060" d="M35283.75 15894.73c58.63,-146.43 224.85,-217.6 371.28,-158.98 146.43,58.63 217.6,224.85 158.98,371.28 -58.63,146.43 -224.85,217.6 -371.28,158.97 -146.43,-58.62 -217.6,-224.84 -158.98,-371.27z"/>
  <path fill="#F4C74A" d="M26990.92 31987.02c-114.6,121.44 -118.09,300.06 -177.15,450.08 -60.65,-146.83 -34.56,-381.25 -181.95,-440.5l-464.44 -186.74c-22.65,-9.1 271.34,-95.77 406.99,-143.63 158.52,-55.94 173.96,-354.33 248.97,-531.49 63.85,167.58 44.56,386.02 167.59,502.76 123.03,116.73 309.63,79.79 464.45,119.69 -154.82,76.61 -349.85,108.39 -464.46,229.83z"/>
  <path fill="#F4C74A" d="M22980.72 34073.81c-105.59,111.9 -108.82,276.48 -163.23,414.72 -55.89,-135.3 -31.85,-351.3 -167.65,-405.9l-427.95 -172.06c-20.88,-8.39 250.02,-88.25 375.01,-132.35 146.06,-51.54 160.29,-326.49 229.41,-489.73 58.83,154.42 41.06,355.69 154.42,463.25 113.36,107.57 285.31,73.53 427.96,110.3 -142.66,70.59 -322.37,99.87 -427.97,211.77z"/>
  <path fill="#F4C74A" d="M32463.97 31104.54c-83.58,88.58 -86.13,218.85 -129.2,328.27 -44.24,-107.09 -25.21,-278.07 -132.71,-321.28l-338.74 -136.2c-16.52,-6.64 197.91,-69.85 296.84,-104.76 115.61,-40.8 126.88,-258.43 181.59,-387.64 46.56,122.23 32.5,281.54 122.23,366.68 89.73,85.15 225.83,58.21 338.74,87.31 -112.92,55.87 -255.16,79.05 -338.75,167.62z"/>
  <path fill="#606060" d="M23495.88 32387.21c-188.74,0 -341.73,153 -341.73,341.74 0,188.74 152.99,341.74 341.73,341.74 188.74,0 341.74,-153 341.74,-341.74 0,-188.74 -153,-341.74 -341.74,-341.74z"/>
  <path fill="#606060" d="M21674.07 31200.38c115.28,0 208.74,93.45 208.74,208.74 0,115.28 -93.46,208.73 -208.74,208.73 -115.28,0 -208.73,-93.45 -208.73,-208.73 0,-115.29 93.45,-208.74 208.73,-208.74z"/>
  <path fill="#606060" d="M27303.1 33766.17c100.01,0 181.08,81.07 181.08,181.08 0,100.01 -81.07,181.08 -181.08,181.08 -100.01,0 -181.08,-81.07 -181.08,-181.08 0,-100.01 81.07,-181.08 181.08,-181.08z"/>
  <path fill="#606060" d="M26172.73 35399.15c-188.74,0 -341.74,152.99 -341.74,341.74 0,188.74 153,341.73 341.74,341.73 188.74,0 341.74,-152.99 341.74,-341.73 0,-188.75 -153,-341.74 -341.74,-341.74z"/>
  <path fill="#606060" d="M27946.11 30794.26c115.28,0 208.74,93.45 208.74,208.73 0,115.28 -93.46,208.74 -208.74,208.74 -115.28,0 -208.73,-93.46 -208.73,-208.74 0,-115.28 93.45,-208.73 208.73,-208.73z"/>
  <path fill="#606060" d="M25391.03 33138.72c231.61,0 419.36,187.75 419.36,419.36 0,231.61 -187.75,419.35 -419.36,419.35 -231.61,0 -419.36,-187.74 -419.36,-419.35 0,-231.61 187.75,-419.36 419.36,-419.36z"/>
  <g id="_2110459187216">
   <path fill="#F4C74A" fill-opacity="0.211765" d="M29523.32 33598.45l2758.02 0c90.27,0 164.11,73.84 164.11,164.11l0 0.02c0,90.27 -73.84,164.11 -164.11,164.11l-2758.02 0c-90.27,0 -164.11,-73.84 -164.11,-164.11l0 -0.02c0,-90.27 73.84,-164.11 164.11,-164.11z"/>
   <path fill="#F4C74A" fill-opacity="0.211765" d="M29962.62 34250.95l4949.76 0c90.29,0 164.12,73.84 164.12,164.11l0 0.03c0,90.26 -73.83,164.1 -164.12,164.1l-4949.76 0c-90.3,0 -164.12,-73.84 -164.12,-164.1l0 -0.03c0,-90.27 73.82,-164.11 164.12,-164.11z"/>
   <path fill="#F4C74A" fill-opacity="0.211765" d="M29129.99 34903.09l4949.76 0c90.3,0 164.12,73.84 164.12,164.11l0 0.02c0,90.27 -73.82,164.11 -164.12,164.11l-4949.76 0c-90.3,0 -164.12,-73.84 -164.12,-164.11l0 -0.02c0,-90.27 73.82,-164.11 164.12,-164.11z"/>
   <path fill="#F4C74A" fill-opacity="0.211765" d="M31315.76 33926.69c156.35,0 312.67,0 469.03,0 -50.75,125.05 -49.18,232.94 0,325.16 -156.36,0 -312.68,0 -469.03,0 50.78,-96.59 79.01,-198.4 0,-325.16z"/>
   <path fill="#F4C74A" fill-opacity="0.211765" d="M30821.72 34578.97c676.3,0 1352.45,0 2028.75,0 -149.84,125.05 -127.04,232.96 0,325.16 -676.3,0 -1352.45,0 -2028.75,0 46.17,-86.72 130.38,-186.36 0,-325.16z"/>
   <path fill="#F4C74A" fill-opacity="0.211765" d="M29523.32 33598.45l2758.02 0c90.27,0 164.11,73.84 164.11,164.11l0 0.02c0,90.27 -73.84,164.11 -164.11,164.11l-2758.02 0c-90.27,0 -164.11,-73.84 -164.11,-164.11l0 -0.02c0,-90.27 73.84,-164.11 164.11,-164.11z"/>
   <path fill="#F4C74A" fill-opacity="0.211765" d="M29962.62 34250.95l4949.76 0c90.29,0 164.12,73.84 164.12,164.11l0 0.03c0,90.26 -73.83,164.1 -164.12,164.1l-4949.76 0c-90.3,0 -164.12,-73.84 -164.12,-164.1l0 -0.03c0,-90.27 73.82,-164.11 164.12,-164.11z"/>
   <path fill="#F4C74A" fill-opacity="0.211765" d="M29129.99 34903.09l4949.76 0c90.3,0 164.12,73.84 164.12,164.11l0 0.02c0,90.27 -73.82,164.11 -164.12,164.11l-4949.76 0c-90.3,0 -164.12,-73.84 -164.12,-164.11l0 -0.02c0,-90.27 73.82,-164.11 164.12,-164.11z"/>
   <path fill="#F4C74A" fill-opacity="0.211765" d="M31315.76 33926.69c156.35,0 312.67,0 469.03,0 -50.75,125.05 -49.18,232.94 0,325.16 -156.36,0 -312.68,0 -469.03,0 50.78,-96.59 79.01,-198.4 0,-325.16z"/>
   <path fill="#F4C74A" fill-opacity="0.211765" d="M30821.72 34578.97c676.3,0 1352.45,0 2028.75,0 -149.84,125.05 -127.04,232.96 0,325.16 -676.3,0 -1352.45,0 -2028.75,0 46.17,-86.72 130.38,-186.36 0,-325.16z"/>
  </g>
  <g id="_2110459183984">
   <path fill="url(#id0)" fill-opacity="0.219608" d="M17454.11 28542.67l14869.66 -133.53c726.83,-6.53 1316.14,-606.54 1309.62,-1333.36l-98.31 -10947.51c-6.53,-726.81 -606.53,-1316.14 -1333.36,-1309.62l-14869.66 133.54c-726.82,6.52 -1316.14,606.53 -1309.61,1333.35l98.31 10947.51c6.53,726.82 606.52,1316.15 1333.35,1309.62z"/>
   <path fill="url(#id1)" d="M19528.92 26503.55l11287.61 5.69c1011.27,0.52 1786.95,-828.78 1838.64,-1838.64l456.07 -8910.42c51.69,-1009.89 -827.43,-1842.86 -1838.63,-1838.64l-14535.33 60.82c-1011.15,4.23 -1760.81,830.42 -1838.64,1838.64 -223.6,2896.21 -783.01,7488.42 -783.01,10188.18 0,911.4 662.06,1330.21 1573.47,1330.21l2402.01 0c613.14,0 1029.71,-361.15 1437.81,-835.84z"/>
   <g clip-path="url(#id2)">
    <g>
     <path id="1" fill="white" fill-opacity="0.078431" d="M33633.54 22744.69c-715.53,1012.24 -2059.34,-807.26 -2002.23,-2141.93 125,-2922.09 -5746.54,-527.04 -6231.58,-4470.11 -276.63,-2249.06 -7687.81,-1384.57 -5845.72,-6159.73 1526.8,-3957.84 14005.84,-3234.34 16150.95,1168.11 1973.06,4049.34 5183.92,7666.02 862.11,11704.79 -894.28,835.69 -3088.12,-202.23 -3101.14,-202.23l167.61 101.1z"/>
    </g>
   </g>
   <path fill="none" d="M19528.92 26503.55l11287.61 5.69c1011.27,0.52 1786.95,-828.78 1838.64,-1838.64l456.07 -8910.42c51.69,-1009.89 -827.43,-1842.86 -1838.63,-1838.64l-14535.33 60.82c-1011.15,4.23 -1760.81,830.42 -1838.64,1838.64 -223.6,2896.21 -783.01,7488.42 -783.01,10188.18 0,911.4 662.06,1330.21 1573.47,1330.21l2402.01 0c613.14,0 1029.71,-361.15 1437.81,-835.84z"/>
  </g>
  <g id="_2110459180240">
   <path fill="url(#id3)" d="M34840.85 21080.98c-408.53,-1413.63 712.64,-3090.28 1406.55,-2754.5 693.91,335.78 -17.82,1157.92 -498.15,1662.95 -480.34,505.04 -693.52,708.17 -908.4,1091.55z"/>
   <path fill="url(#id4)" d="M35673.98 21696c556.42,-974.63 2069.53,-1252.01 2254.5,-693.92 184.96,558.09 -643.04,605.48 -1174.59,611 -531.55,5.51 -755.96,-3.2 -1079.91,82.92z"/>
  </g>
  <path fill="#F4C74A" d="M15210.93 17336.91c241.42,255.83 248.78,632.1 373.19,948.16 127.77,-309.33 72.81,-803.16 383.3,-927.99l978.4 -393.38c47.73,-19.18 -571.62,-201.76 -857.37,-302.59 -333.94,-117.83 -366.47,-746.43 -524.49,-1119.64 -134.5,353.04 -93.88,813.19 -353.05,1059.12 -259.17,245.92 -652.28,168.1 -978.41,252.16 326.14,161.38 737,228.32 978.43,484.16z"/>
  <path fill="#F4C74A" d="M12564.33 18656.52c161.45,171.09 166.38,422.71 249.57,634.06 85.44,-206.85 48.69,-537.09 256.32,-620.57l654.29 -263.06c31.92,-12.83 -382.26,-134.93 -573.35,-202.35 -223.31,-78.8 -245.07,-499.16 -350.74,-748.74 -89.94,236.09 -62.78,543.81 -236.1,708.26 -173.31,164.46 -436.2,112.42 -654.29,168.63 218.1,107.92 492.86,152.69 654.3,323.77z"/>
  <path fill="#F4C74A" d="M13842 20140.95c83.58,88.57 86.13,218.84 129.2,328.27 44.24,-107.1 25.21,-278.07 132.71,-321.29l338.74 -136.19c16.52,-6.64 -197.9,-69.86 -296.84,-104.76 -115.61,-40.8 -126.87,-258.43 -181.59,-387.64 -46.56,122.22 -32.5,281.54 -122.23,366.68 -89.73,85.14 -225.83,58.2 -338.74,87.3 112.92,55.88 255.16,79.05 338.75,167.63z"/>
  <path fill="#606060" d="M24883.27 29642.67c188.74,0 341.74,152.99 341.74,341.73 0,188.75 -153,341.74 -341.74,341.74 -188.74,0 -341.74,-152.99 -341.74,-341.74 0,-188.74 153,-341.73 341.74,-341.73z"/>
  <path fill="#606060" d="M23915.67 31008.94c-115.28,0 -208.74,93.45 -208.74,208.73 0,115.28 93.46,208.74 208.74,208.74 115.28,0 208.73,-93.46 208.73,-208.74 0,-115.28 -93.45,-208.73 -208.73,-208.73z"/>
  <path fill="#606060" d="M13522.99 15323.11c-231.61,0 -419.36,187.74 -419.36,419.35 0,231.61 187.75,419.36 419.36,419.36 231.61,0 419.36,-187.75 419.36,-419.36 0,-231.61 -187.75,-419.35 -419.36,-419.35z"/>
  <path fill="#606060" d="M20585.46 33578.32c188.74,0 341.73,-153 341.73,-341.74 0,-188.74 -152.99,-341.74 -341.73,-341.74 -188.74,0 -341.74,153 -341.74,341.74 0,188.74 153,341.74 341.74,341.74z"/>
  <path fill="#606060" d="M19617.86 32212.05c-115.29,0 -208.74,-93.45 -208.74,-208.73 0,-115.29 93.45,-208.74 208.74,-208.74 115.28,0 208.73,93.45 208.73,208.74 0,115.28 -93.45,208.73 -208.73,208.73z"/>
  <path fill="#606060" d="M19773.13 30576.24c-231.6,0 -419.35,-187.75 -419.35,-419.36 0,-231.61 187.75,-419.36 419.35,-419.36 231.61,0 419.36,187.75 419.36,419.36 0,231.61 -187.75,419.36 -419.36,419.36z"/>
  <g id="_2110459219568">
   <path fill="#F4C74A" fill-opacity="0.211765" d="M15030.73 28307.23l-2758.03 0c-90.26,0 -164.11,73.84 -164.11,164.1l0 0.03c0,90.27 73.85,164.11 164.11,164.11l2758.03 0c90.26,0 164.11,-73.84 164.11,-164.11l0 -0.03c0,-90.26 -73.85,-164.1 -164.11,-164.1z"/>
   <path fill="#F4C74A" fill-opacity="0.211765" d="M14591.43 28959.73l-4949.76 0c-90.3,0 -164.12,73.84 -164.12,164.11l0 0.02c0,90.27 73.82,164.11 164.12,164.11l4949.76 0c90.3,0 164.12,-73.84 164.12,-164.11l0 -0.02c0,-90.27 -73.82,-164.11 -164.12,-164.11z"/>
   <path fill="#F4C74A" fill-opacity="0.211765" d="M15424.06 29611.86l-4949.76 0c-90.3,0 -164.12,73.85 -164.12,164.11l0 0.03c0,90.26 73.82,164.1 164.12,164.1l4949.76 0c90.29,0 164.12,-73.84 164.12,-164.1l0 -0.03c0,-90.26 -73.83,-164.11 -164.12,-164.11z"/>
   <path fill="#F4C74A" fill-opacity="0.211765" d="M13238.29 28635.47c-156.36,0 -312.68,0 -469.03,0 50.75,125.05 49.17,232.93 0,325.16 156.35,0 312.67,0 469.03,0 -50.79,-96.59 -79.02,-198.4 0,-325.16z"/>
   <path fill="#F4C74A" fill-opacity="0.211765" d="M13732.33 29287.75c-676.3,0 -1352.46,0 -2028.76,0 149.84,125.05 127.05,232.96 0,325.16 676.3,0 1352.46,0 2028.76,0 -46.17,-86.72 -130.38,-186.37 0,-325.16z"/>
   <path fill="#F4C74A" fill-opacity="0.211765" d="M15030.73 28307.23l-2758.03 0c-90.26,0 -164.11,73.84 -164.11,164.1l0 0.03c0,90.27 73.85,164.11 164.11,164.11l2758.03 0c90.26,0 164.11,-73.84 164.11,-164.11l0 -0.03c0,-90.26 -73.85,-164.1 -164.11,-164.1z"/>
   <path fill="#F4C74A" fill-opacity="0.211765" d="M14591.43 28959.73l-4949.76 0c-90.3,0 -164.12,73.84 -164.12,164.11l0 0.02c0,90.27 73.82,164.11 164.12,164.11l4949.76 0c90.3,0 164.12,-73.84 164.12,-164.11l0 -0.02c0,-90.27 -73.82,-164.11 -164.12,-164.11z"/>
   <path fill="#F4C74A" fill-opacity="0.211765" d="M15424.06 29611.86l-4949.76 0c-90.3,0 -164.12,73.85 -164.12,164.11l0 0.03c0,90.26 73.82,164.1 164.12,164.1l4949.76 0c90.29,0 164.12,-73.84 164.12,-164.1l0 -0.03c0,-90.26 -73.83,-164.11 -164.12,-164.11z"/>
   <path fill="#F4C74A" fill-opacity="0.211765" d="M13238.29 28635.47c-156.36,0 -312.68,0 -469.03,0 50.75,125.05 49.17,232.93 0,325.16 156.35,0 312.67,0 469.03,0 -50.79,-96.59 -79.02,-198.4 0,-325.16z"/>
   <path fill="#F4C74A" fill-opacity="0.211765" d="M13732.33 29287.75c-676.3,0 -1352.46,0 -2028.76,0 149.84,125.05 127.05,232.96 0,325.16 676.3,0 1352.46,0 2028.76,0 -46.17,-86.72 -130.38,-186.37 0,-325.16z"/>
  </g>
  <path fill="url(#id5)" d="M17561.26 30284.54c165.73,-573.5 -289.12,-1253.7 -570.63,-1117.48 -281.51,136.22 7.23,469.76 202.1,674.65 194.86,204.88 281.35,287.29 368.53,442.83z"/>
  <path fill="url(#id6)" d="M17223.26 30534.04c-225.74,-395.39 -839.59,-507.93 -914.63,-281.51 -75.04,226.41 260.88,245.64 476.52,247.87 215.65,2.24 306.69,-1.29 438.11,33.64z"/>
  <polygon fill="#E6E6E6" points="37379.58,30553.74 34413.6,27587.77 33767.79,28233.58 36733.77,31199.56 "/>
  <circle fill="url(#id7)" cx="31328.39" cy="25080.75" r="4752.64"/>
  <circle fill="white" cx="31328.39" cy="25080.75" r="3551.82"/>
  <path fill="url(#id8)" d="M35413.9 29047.82l0.01 -0.01c530.17,-530.17 1397.71,-530.18 1927.9,0l2778.85 2778.86c530.19,530.18 530.18,1397.72 0,1927.9l-0.01 0.01c-530.17,530.17 -1397.71,530.18 -1927.9,0l-2778.85 -2778.86c-530.19,-530.18 -530.18,-1397.73 0,-1927.9z"/>
  <g clip-path="url(#id9)">
   <g id="_2110459212112">
    <rect fill="#FED136" stroke="#FED136" stroke-width="20" stroke-miterlimit="22.9256" transform="matrix(1.37744 -1.37744 1.98292 1.98292 19871 27397.4)" width="1809.75" height="3069.17" rx="58965.32" ry="58965.32"/>
   </g>
  </g>
  <path fill="none" d="M35413.9 29047.82l0.01 -0.01c530.17,-530.17 1397.71,-530.18 1927.9,0l2778.85 2778.86c530.19,530.18 530.18,1397.72 0,1927.9l-0.01 0.01c-530.17,530.17 -1397.71,530.18 -1927.9,0l-2778.85 -2778.86c-530.19,-530.18 -530.18,-1397.73 0,-1927.9z"/>
  <g id="_2110459207760">
   <path fill="#E6E6E6" fill-opacity="0.349020" d="M32702.59 25664.3l-3202.11 -858c-89.84,-24.08 -183.05,29.74 -207.12,119.58l-0.01 0.03c-24.07,89.84 29.74,183.05 119.58,207.12l3202.12 858c89.84,24.08 183.04,-29.74 207.12,-119.58l0 -0.03c24.08,-89.84 -29.73,-183.05 -119.58,-207.12z"/>
   <path fill="#E6E6E6" fill-opacity="0.349020" d="M33682.35 24899.33l-4582.63 -1227.91c-128.6,-34.46 -261.99,42.55 -296.45,171.15l0 0c-34.45,128.6 42.56,261.99 171.16,296.45l4582.63 1227.91c128.6,34.46 261.99,-42.56 296.44,-171.15l0 0c34.46,-128.6 -42.55,-261.99 -171.15,-296.45z"/>
   <path fill="#E6E6E6" fill-opacity="0.349020" d="M31870.61 26290.85l-1998.11 -535.4c-56.07,-15.02 -114.22,18.55 -129.24,74.62l0 0.01c-15.03,56.08 18.54,114.23 74.61,129.25l1998.11 535.39c56.07,15.03 114.22,-18.54 129.24,-74.62l0.01 -0.01c15.02,-56.07 -18.55,-114.22 -74.62,-129.24z"/>
  </g>
  <g id="_2110459205104">
   <path fill="url(#id10)" d="M30084 24411.63c329.49,507.41 897.12,-817.33 1326.31,-293.56 193.19,235.77 -138.72,459.73 -417.33,763.61 -335.27,365.68 -375.05,1017.56 81.08,1171.14 251.82,84.79 493.63,-130.35 463.73,-393.89 -30.41,-268.05 -2.83,-249.07 294.16,-489.42 680.07,-550.37 587.37,-1828.98 -464.34,-1924.07 -1051.71,-95.09 -1613.1,658.77 -1283.61,1166.19z"/>
   <circle fill="url(#id11)" cx="31287.21" cy="26593.91" r="362.93"/>
  </g>
 </g>
</svg>
