<?xml version="1.0" encoding="UTF-8"?>
<!DOCTYPE svg PUBLIC "-//W3C//DTD SVG 1.1//EN" "http://www.w3.org/Graphics/SVG/1.1/DTD/svg11.dtd">
<!-- Creator: CorelDRAW 2019 (64-Bit) -->
<svg xmlns="http://www.w3.org/2000/svg" xml:space="preserve" width="500mm" height="500mm" version="1.1" shape-rendering="geometricPrecision" text-rendering="geometricPrecision" image-rendering="optimizeQuality" fill-rule="evenodd" clip-rule="evenodd"
viewBox="0 0 50000 50000"
 xmlns:xlink="http://www.w3.org/1999/xlink">
 <defs>
   <clipPath id="id0">
    <path d="M-2.07 2.07l50000 0 0 50000 -50000 0 0 -50000z"/>
   </clipPath>
       <linearGradient id="id1" gradientUnits="userSpaceOnUse" x1="42189.55" y1="34821.41" x2="43532.87" y2="34598.56">
        <stop offset="0" stop-opacity="1" stop-color="#FED136"/>
        <stop offset="1" stop-opacity="1" stop-color="#FF9F43"/>
       </linearGradient>
       <linearGradient id="id2" gradientUnits="userSpaceOnUse" x1="31503.23" y1="16623.74" x2="32312.87" y2="16472.8">
        <stop offset="0" stop-opacity="1" stop-color="#FED136"/>
        <stop offset="1" stop-opacity="1" stop-color="#FF9F43"/>
       </linearGradient>
       <clipPath id="id3">
        <path d="M-2.07 1065.55l42170.54 0 0 34708.25 -42170.54 0 0 -34708.25z"/>
       </clipPath>
       <clipPath id="id4">
        <path d="M-2.07 2.07l50000 0 0 50000 -50000 0 0 -50000z"/>
       </clipPath>
      <clipPath id="id5">
       <path d="M19851.94 9912.75l6731.64 8512.76 6731.62 8512.76 -13463.26 0 -13463.27 0 6731.63 -8512.76 6731.64 -8512.76z"/>
      </clipPath>
        <clipPath id="id6">
         <path d="M10365.03 22940.89c793.58,-338.6 1737.66,165.12 2108.74,1125.04 371.08,959.93 28.64,2012.57 -764.94,2351.17 -793.58,338.6 -1737.66,-165.11 -2108.74,-1125.04 -371.08,-959.93 -28.64,-2012.57 764.94,-2351.17z"/>
        </clipPath>
        <clipPath id="id7">
         <path d="M19851.94 9912.75l6731.64 8512.76 6731.62 8512.76 -13463.26 0 -13463.27 0 6731.63 -8512.76 6731.64 -8512.76z"/>
        </clipPath>
        <clipPath id="id8">
         <path d="M23817.43 16768.37c424.61,-181.17 929.75,88.35 1128.3,601.97 198.55,513.62 15.32,1076.84 -409.29,1258.01 -424.61,181.17 -929.75,-88.34 -1128.3,-601.96 -198.55,-513.62 -15.32,-1076.85 409.29,-1258.02z"/>
        </clipPath>
        <clipPath id="id9">
         <path d="M19851.94 9912.75l6731.64 8512.76 6731.62 8512.76 -13463.26 0 -13463.27 0 6731.63 -8512.76 6731.64 -8512.76z"/>
        </clipPath>
      <clipPath id="id10">
       <path d="M-2.07 2.07l50000 0 0 50000 -50000 0 0 -50000z"/>
      </clipPath>
        <linearGradient id="id11" gradientUnits="userSpaceOnUse" x1="20355.12" y1="5164.01" x2="20355.24" y2="18695.33">
         <stop offset="0" stop-opacity="1" stop-color="#FF9F43"/>
         <stop offset="1" stop-opacity="1" stop-color="#FED136"/>
        </linearGradient>
        <linearGradient id="id12" gradientUnits="userSpaceOnUse" x1="17847.21" y1="29383.08" x2="18874.65" y2="18308.36">
         <stop offset="0" stop-opacity="1" stop-color="#FF9F43"/>
         <stop offset="1" stop-opacity="1" stop-color="#FED136"/>
        </linearGradient>
       <linearGradient id="id13" gradientUnits="userSpaceOnUse" x1="24481.73" y1="38475.29" x2="25184.26" y2="38358.74">
        <stop offset="0" stop-opacity="1" stop-color="#FED136"/>
        <stop offset="1" stop-opacity="1" stop-color="#FF9F43"/>
       </linearGradient>
       <linearGradient id="id14" gradientUnits="userSpaceOnUse" x1="18221.74" y1="32698.36" x2="18704.42" y2="32618.28">
        <stop offset="0" stop-opacity="1" stop-color="#FED136"/>
        <stop offset="1" stop-opacity="1" stop-color="#FF9F43"/>
       </linearGradient>
       <clipPath id="id15">
        <path d="M14113.81 16626.39c278.37,-113.06 609.53,55.13 739.7,375.64 130.17,320.5 10.05,671.97 -268.33,785.02 -278.37,113.06 -609.54,-55.13 -739.7,-375.63 -130.17,-320.51 -10.05,-671.98 268.33,-785.03z"/>
       </clipPath>
       <clipPath id="id16">
        <path d="M-2.07 2.07l50000 0 0 50000 -50000 0 0 -50000z"/>
       </clipPath>
       <clipPath id="id17">
        <path d="M34887.85 33120.91c-367.89,158.02 -813.59,-57.28 -995.53,-480.86 -181.94,-423.58 -31.22,-895.06 336.67,-1053.08 367.9,-158.02 813.6,57.28 995.54,480.86 181.94,423.59 31.22,895.06 -336.68,1053.08z"/>
       </clipPath>
       <clipPath id="id18">
        <path d="M-2.07 2.07l50000 0 0 50000 -50000 0 0 -50000z"/>
       </clipPath>
      <clipPath id="id19">
       <path d="M20975.33 33396.39c159.15,-64.63 348.47,31.52 422.89,214.76 74.42,183.23 5.74,384.16 -153.4,448.8 -159.15,64.63 -348.48,-31.52 -422.89,-214.76 -74.42,-183.23 -5.75,-384.16 153.4,-448.8z"/>
      </clipPath>
      <clipPath id="id20">
       <path d="M-2.07 2.07l50000 0 0 50000 -50000 0 0 -50000z"/>
      </clipPath>
        <linearGradient id="id21" gradientUnits="userSpaceOnUse" x1="33318.86" y1="18406.21" x2="34611" y2="18406.21">
         <stop offset="0" stop-opacity="1" stop-color="#FF9F43"/>
         <stop offset="1" stop-opacity="1" stop-color="#FED136"/>
        </linearGradient>
        <linearGradient id="id22" gradientUnits="userSpaceOnUse" x1="34507.01" y1="19292.5" x2="35193.55" y2="19999.49">
         <stop offset="0" stop-opacity="1" stop-color="#FF9F43"/>
         <stop offset="1" stop-opacity="1" stop-color="#FED136"/>
        </linearGradient>
 </defs>
 <g id="Layer_x0020_1">
  <metadata id="CorelCorpID_0Corel-Layer"/>
  <g>
  </g>
  <g clip-path="url(#id0)">
   <g>
    <g id="_1713442068816">
     <g>
      <path fill="#F4F4F4" fill-opacity="0.619608" d="M8162.2 16604.16c-3893.39,-2101.22 -1352.32,-9042.37 4023.69,-11589.48 5376.02,-2547.11 10619.27,-2020.14 12368.34,313.37 1749.08,2333.5 3793.48,2397.5 9875.02,3129.29 6081.55,731.79 12862.27,1179.89 9813.24,9367.2 -3049.02,8187.31 541.36,4633.18 2383.57,11743.88 1842.22,7110.7 -8532.85,4879.11 -11910.88,9726.34 -3378.03,4847.23 -4898.82,7626.48 -11794.21,7379.39 -6895.4,-247.1 -5770.86,-5309.18 -9875.02,-6951.64 -4104.16,-1642.45 -12144.82,-4188.72 -9941.38,-9840.7 2203.44,-5651.98 8951.03,-11176.42 5057.63,-13277.65z"/>
      <path fill="#FCFCFC" fill-opacity="0.619608" d="M8062.52 16332.12c-3813.58,-2058.15 -1324.6,-8857 3941.2,-11351.89 5265.81,-2494.9 10401.57,-1978.73 12114.79,306.94 1713.22,2285.67 3715.71,2348.35 9672.58,3065.14 5956.87,716.79 12598.58,1155.71 9612.07,9175.17 -2986.52,8019.47 530.26,4538.2 2334.7,11503.13 1804.45,6964.93 -8357.93,4779.09 -11666.7,9526.95 -3308.78,4747.86 -4798.39,7470.14 -11552.43,7228.11 -6754.04,-242.04 -5652.55,-5200.34 -9672.58,-6809.13 -4020.03,-1608.78 -11895.85,-4102.85 -9737.58,-9638.97 2158.27,-5536.11 8767.53,-10947.3 4953.95,-13005.45z"/>
     </g>
     <g>
      <path fill="#F4C74A" fill-opacity="0.211765" d="M15402.61 37613.98l-6025.7 0c-197.2,0 -358.55,161.33 -358.55,358.54l0 0.06c0,197.21 161.35,358.54 358.55,358.54l6025.7 0c197.21,0 358.55,-161.33 358.55,-358.54l0 -0.06c0,-197.21 -161.34,-358.54 -358.55,-358.54z"/>
      <path fill="#F4C74A" fill-opacity="0.211765" d="M14442.83 39039.56l-10814.17 0c-197.16,0 -358.57,161.33 -358.57,358.54l0 0.06c0,197.21 161.41,358.54 358.57,358.54l10814.17 0c197.28,0 358.57,-161.33 358.57,-358.54l0 -0.06c0,-197.21 -161.29,-358.54 -358.57,-358.54z"/>
      <path fill="#F4C74A" fill-opacity="0.211765" d="M16261.95 40464.34l-10814.17 0c-197.16,0 -358.57,161.33 -358.57,358.54l0 0.05c0,197.22 161.41,358.54 358.57,358.54l10814.17 0c197.28,0 358.57,-161.32 358.57,-358.54l0 -0.05c0,-197.21 -161.29,-358.54 -358.57,-358.54z"/>
      <path fill="#F4C74A" fill-opacity="0.211765" d="M11486.51 38331.12c-341.6,0 -683.13,0 -1024.73,0 110.88,273.21 107.44,508.91 0,710.41 341.6,0 683.13,0 1024.73,0 -110.96,-211.04 -172.63,-433.46 0,-710.41z"/>
      <path fill="#F4C74A" fill-opacity="0.211765" d="M12565.88 39756.21c-1477.57,0 -2954.82,0 -4432.4,0 327.37,273.21 277.56,508.97 0,710.41 1477.58,0 2954.83,0 4432.4,0 -100.87,-189.46 -284.86,-407.16 0,-710.41z"/>
      <path fill="#F4C74A" fill-opacity="0.211765" d="M15402.61 37613.98l-6025.7 0c-197.2,0 -358.55,161.33 -358.55,358.54l0 0.06c0,197.21 161.35,358.54 358.55,358.54l6025.7 0c197.21,0 358.55,-161.33 358.55,-358.54l0 -0.06c0,-197.21 -161.34,-358.54 -358.55,-358.54z"/>
      <path fill="#F4C74A" fill-opacity="0.211765" d="M14442.83 39039.56l-10814.17 0c-197.16,0 -358.57,161.33 -358.57,358.54l0 0.06c0,197.21 161.41,358.54 358.57,358.54l10814.17 0c197.28,0 358.57,-161.33 358.57,-358.54l0 -0.06c0,-197.21 -161.29,-358.54 -358.57,-358.54z"/>
      <path fill="#F4C74A" fill-opacity="0.211765" d="M16261.95 40464.34l-10814.17 0c-197.16,0 -358.57,161.33 -358.57,358.54l0 0.05c0,197.22 161.41,358.54 358.57,358.54l10814.17 0c197.28,0 358.57,-161.32 358.57,-358.54l0 -0.05c0,-197.21 -161.29,-358.54 -358.57,-358.54z"/>
      <path fill="#F4C74A" fill-opacity="0.211765" d="M11486.51 38331.12c-341.6,0 -683.13,0 -1024.73,0 110.88,273.21 107.44,508.91 0,710.41 341.6,0 683.13,0 1024.73,0 -110.96,-211.04 -172.63,-433.46 0,-710.41z"/>
      <path fill="#F4C74A" fill-opacity="0.211765" d="M12565.88 39756.21c-1477.57,0 -2954.82,0 -4432.4,0 327.37,273.21 277.56,508.97 0,710.41 1477.58,0 2954.83,0 4432.4,0 -100.87,-189.46 -284.86,-407.16 0,-710.41z"/>
     </g>
     <g>
      <path fill="#F4C74A" fill-opacity="0.211765" d="M35181.27 17090.2l6025.7 0c197.2,0 358.55,-161.33 358.55,-358.54l0 -0.06c0,-197.21 -161.35,-358.54 -358.55,-358.54l-6025.7 0c-197.21,0 -358.55,161.33 -358.55,358.54l0 0.06c0,197.21 161.34,358.54 358.55,358.54z"/>
      <path fill="#F4C74A" fill-opacity="0.211765" d="M36141.05 15664.61l10814.17 0c197.16,0 358.57,-161.32 358.57,-358.54l0 -0.05c0,-197.21 -161.41,-358.54 -358.57,-358.54l-10814.17 0c-197.28,0 -358.57,161.33 -358.57,358.54l0 0.05c0,197.22 161.29,358.54 358.57,358.54z"/>
      <path fill="#F4C74A" fill-opacity="0.211765" d="M34321.93 14239.84l10814.17 0c197.16,0 358.57,-161.33 358.57,-358.54l0 -0.06c0,-197.21 -161.41,-358.53 -358.57,-358.53l-10814.17 0c-197.28,0 -358.57,161.32 -358.57,358.53l0 0.06c0,197.21 161.29,358.54 358.57,358.54z"/>
      <path fill="#F4C74A" fill-opacity="0.211765" d="M39097.37 16373.06c341.6,0 683.13,0 1024.73,0 -110.88,-273.21 -107.44,-508.91 0,-710.41 -341.6,0 -683.13,0 -1024.73,0 110.96,211.04 172.63,433.46 0,710.41z"/>
      <path fill="#F4C74A" fill-opacity="0.211765" d="M38018 14947.97c1477.57,0 2954.82,0 4432.4,0 -327.37,-273.21 -277.56,-508.97 0,-710.41 -1477.58,0 -2954.83,0 -4432.4,0 100.87,189.46 284.86,407.16 0,710.41z"/>
      <path fill="#F4C74A" fill-opacity="0.211765" d="M35181.27 17090.2l6025.7 0c197.2,0 358.55,-161.33 358.55,-358.54l0 -0.06c0,-197.21 -161.35,-358.54 -358.55,-358.54l-6025.7 0c-197.21,0 -358.55,161.33 -358.55,358.54l0 0.06c0,197.21 161.34,358.54 358.55,358.54z"/>
      <path fill="#F4C74A" fill-opacity="0.211765" d="M36141.05 15664.61l10814.17 0c197.16,0 358.57,-161.32 358.57,-358.54l0 -0.05c0,-197.21 -161.41,-358.54 -358.57,-358.54l-10814.17 0c-197.28,0 -358.57,161.33 -358.57,358.54l0 0.05c0,197.22 161.29,358.54 358.57,358.54z"/>
      <path fill="#F4C74A" fill-opacity="0.211765" d="M34321.93 14239.84l10814.17 0c197.16,0 358.57,-161.33 358.57,-358.54l0 -0.06c0,-197.21 -161.41,-358.53 -358.57,-358.53l-10814.17 0c-197.28,0 -358.57,161.32 -358.57,358.53l0 0.06c0,197.21 161.29,358.54 358.57,358.54z"/>
      <path fill="#F4C74A" fill-opacity="0.211765" d="M39097.37 16373.06c341.6,0 683.13,0 1024.73,0 -110.88,-273.21 -107.44,-508.91 0,-710.41 -341.6,0 -683.13,0 -1024.73,0 110.96,211.04 172.63,433.46 0,710.41z"/>
      <path fill="#F4C74A" fill-opacity="0.211765" d="M38018 14947.97c1477.57,0 2954.82,0 4432.4,0 -327.37,-273.21 -277.56,-508.97 0,-710.41 -1477.58,0 -2954.83,0 -4432.4,0 100.87,189.46 284.86,407.16 0,710.41z"/>
     </g>
     <g>
      <path fill="#606060" d="M41014.07 8301.17c103.13,-257.59 395.55,-382.8 653.15,-279.67 257.59,103.14 382.8,395.55 279.66,653.15 -103.13,257.59 -395.55,382.8 -653.14,279.67 -257.6,-103.14 -382.81,-395.55 -279.67,-653.15z"/>
      <path fill="#606060" d="M44493.76 10333.51c-63,157.34 13.48,335.95 170.82,398.95 157.34,62.99 335.95,-13.49 398.95,-170.83 62.99,-157.34 -13.49,-335.95 -170.83,-398.94 -157.34,-63 -335.95,13.48 -398.94,170.82z"/>
      <path fill="#606060" d="M45914.66 13676.19c86.19,-215.27 330.56,-319.9 545.83,-233.71 215.26,86.19 319.9,330.56 233.71,545.82 -86.19,215.27 -330.56,319.91 -545.82,233.72 -215.27,-86.19 -319.91,-330.56 -233.72,-545.83z"/>
      <path fill="#606060" d="M45914.66 13676.19c86.19,-215.27 330.56,-319.9 545.83,-233.71 215.26,86.19 319.9,330.56 233.71,545.82 -86.19,215.27 -330.56,319.91 -545.82,233.72 -215.27,-86.19 -319.91,-330.56 -233.72,-545.83z"/>
     </g>
     <g>
      <path fill="#606060" d="M47710.29 32886.01c238.9,141.13 318.16,449.2 177.03,688.1 -141.14,238.9 -449.2,318.15 -688.1,177.02 -238.9,-141.13 -318.16,-449.19 -177.02,-688.09 141.13,-238.91 449.19,-318.16 688.09,-177.03z"/>
      <path fill="#606060" d="M45172.12 36015.92c-145.92,-86.2 -334.09,-37.8 -420.29,108.13 -86.21,145.92 -37.8,334.08 108.12,420.29 145.92,86.2 334.09,37.79 420.3,-108.13 86.2,-145.92 37.79,-334.09 -108.13,-420.29z"/>
      <path fill="#606060" d="M41652.15 36911.62c199.65,117.94 265.88,375.39 147.93,575.04 -117.94,199.64 -375.38,265.87 -575.03,147.93 -199.65,-117.94 -265.88,-375.39 -147.94,-575.03 117.95,-199.65 375.39,-265.88 575.04,-147.94z"/>
      <path fill="#606060" d="M41652.15 36911.62c199.65,117.94 265.88,375.39 147.93,575.04 -117.94,199.64 -375.38,265.87 -575.03,147.93 -199.65,-117.94 -265.88,-375.39 -147.94,-575.03 117.95,-199.65 375.39,-265.88 575.04,-147.94z"/>
     </g>
     <g>
      <polygon fill="url(#id1)" points="41975.59,33377.6 42441.55,33166.04 42515.41,34936.71 43409.59,33855.41 43706.32,36183.34 43230.7,34703.04 42361.34,35856.91 "/>
      <polygon fill="url(#id2)" points="31356.45,15753.23 31635.68,15619.69 31701.67,16689.54 32229.37,16024.89 32436.85,17429.05 32131.4,16539.62 31619.59,17247.85 "/>
      <g>
      </g>
    
      <g clip-path="url(#id4)">
      </g>
      <polygon fill="white" points="19851.94,9912.75 26583.58,18425.51 33315.2,26938.27 19851.94,26938.27 6388.67,26938.27 13120.3,18425.51 "/>
     </g>
     <g clip-path="url(#id5)">
      <g>
       <g>
        <path id="1" fill="#E6E6E6" d="M9313.76 24106.97l251.8 116.43c70.42,32.58 102.68,119.74 71.66,193.76l-0.02 0.04c-31,73.98 -113.97,107.87 -184.42,75.31l-271.35 -125.5c-125.38,-58.04 -277.99,-15.38 -345.31,-189.54 -51.67,-133.66 9.6,-286.05 136.81,-340.33 127.22,-54.28 272.28,10.08 323.94,143.73 16.01,41.4 21.14,84.59 16.89,126.1z"/>
        <path fill="#E6E6E6" d="M10455.48 26999.63c127.22,-54.29 188.48,-206.68 136.82,-340.33 -21.31,-55.13 -58.49,-98.43 -103.78,-126.53l52.57 -279.53c14.9,-79.35 -34.67,-157.02 -110.15,-172.69l-0.06 0c-75.47,-15.67 -149.45,36.36 -164.35,115.68 -13.47,71.57 -67.18,297.29 -58.49,356.15 -84.79,70.15 -119.13,193.22 -76.5,303.51 51.67,133.65 196.72,198.02 323.94,143.74z"/>
        <path fill="#E6E6E6" d="M9442.76 25871.12c120.83,-51.55 182.13,-191.58 143.72,-320.05l194.86 -140.79c63.42,-45.81 79.6,-137.79 36,-204.41l-0.04 -0.02c-43.6,-66.62 -131.14,-83.66 -194.54,-37.82 -60.9,43.99 -228.16,150.93 -269.43,199.83 -32.49,-0.6 -65.66,5.56 -97.69,19.22 -127.21,54.28 -188.48,206.68 -136.82,340.3 51.67,133.66 196.72,198.02 323.94,143.74z"/>
        <path fill="#E6E6E6" d="M11895.56 23005.38l-103.23 267.91c-28.86,74.94 5.87,161.05 77.23,191.39l0.03 0.01c71.33,30.32 153.3,-6.16 182.18,-81.11l111.22 -288.73c51.36,-133.45 189.07,-214.66 121.74,-388.82 -51.67,-133.65 -196.72,-198.02 -323.94,-143.74 -127.22,54.29 -188.48,206.68 -136.81,340.33 16,41.4 40.98,76.12 71.58,102.76z"/>
        <path fill="#E6E6E6" d="M12996.91 25915.26c-127.21,54.28 -272.27,-10.08 -323.93,-143.74 -21.32,-55.13 -23.4,-113.39 -9.58,-166.72l-223.21 -161.86c-63.34,-45.97 -79.35,-137.95 -35.65,-204.47l0.04 -0.05c43.71,-66.52 131.27,-83.41 194.59,-37.47 57.16,41.44 245.45,163.9 278.29,212.45 107.35,-11.82 213.64,51.25 256.27,161.53 51.67,133.66 -9.6,286.05 -136.82,340.33z"/>
        <path fill="#E6E6E6" d="M12973.91 24364.47c-120.83,51.55 -257.71,-3.91 -315.44,-124.14l-233.12 41.82c-75.86,13.61 -148.5,-40.47 -161.46,-120.16l0.01 -0.04c-12.96,-79.7 38.49,-156.03 114.35,-169.62 72.86,-13.08 263.73,-58.94 325.76,-54.12 22.89,-24.23 50.76,-44.12 82.78,-57.78 127.22,-54.28 272.27,10.08 323.93,143.71 51.67,133.66 -9.6,286.05 -136.81,340.33z"/>
        <path fill="#E6E6E6" d="M10365.03 22940.89c793.58,-338.6 1737.66,165.12 2108.74,1125.04 371.08,959.93 28.64,2012.57 -764.94,2351.17 -793.58,338.6 -1737.66,-165.11 -2108.74,-1125.04 -371.08,-959.93 -28.64,-2012.57 764.94,-2351.17z"/>
       </g>
       <g clip-path="url(#id6)">
        <g>
         <path id="1" fill="none" stroke="white" stroke-width="42.33" stroke-linecap="round" stroke-linejoin="round" stroke-miterlimit="22.9256" d="M9203.89 23861.41c1299.98,974.51 2368.03,580.83 2662.14,-1098.36"/>
         <line fill="none" stroke="white" stroke-width="42.33" stroke-linecap="round" stroke-linejoin="round" stroke-miterlimit="22.9256" x1="10924.52" y1="24302.32" x2="11859.86" y2= "26721.91" />
        </g>
       </g>
       <g clip-path="url(#id7)">
        <path fill="none" d="M10365.03 22940.89c793.58,-338.6 1737.66,165.12 2108.74,1125.04 371.08,959.93 28.64,2012.57 -764.94,2351.17 -793.58,338.6 -1737.66,-165.11 -2108.74,-1125.04 -371.08,-959.93 -28.64,-2012.57 764.94,-2351.17z"/>
       </g>
       <g>
        <path fill="#E6E6E6" d="M23254.93 17392.3l134.73 62.29c37.68,17.43 54.94,64.07 38.34,103.67l0 0.02c-16.59,39.59 -60.99,57.72 -98.68,40.3l-145.19 -67.15c-67.08,-31.05 -148.74,-8.23 -184.76,-101.42 -27.65,-71.51 5.13,-153.05 73.2,-182.09 68.07,-29.05 145.69,5.39 173.33,76.91 8.56,22.15 11.31,45.26 9.03,67.47z"/>
        <path fill="#E6E6E6" d="M23865.83 18940.04c68.06,-29.05 100.84,-110.58 73.2,-182.1 -11.4,-29.5 -31.3,-52.66 -55.53,-67.7l28.13 -149.56c7.97,-42.46 -18.55,-84.02 -58.93,-92.4l-0.04 0c-40.38,-8.39 -79.96,19.45 -87.94,61.9 -7.2,38.29 -35.94,159.06 -31.29,190.55 -45.37,37.54 -63.74,103.39 -40.93,162.4 27.64,71.51 105.26,105.95 173.33,76.91z"/>
        <path fill="#E6E6E6" d="M23323.96 18336.22c64.65,-27.58 97.45,-102.51 76.9,-171.25l104.26 -75.33c33.93,-24.51 42.59,-73.72 19.26,-109.37l-0.02 -0.01c-23.33,-35.64 -70.17,-44.76 -104.09,-20.24 -32.59,23.54 -122.08,80.76 -144.16,106.92 -17.39,-0.31 -35.14,2.98 -52.27,10.29 -68.07,29.04 -100.85,110.58 -73.21,182.08 27.65,71.52 105.26,105.95 173.33,76.91z"/>
        <path fill="#E6E6E6" d="M24636.35 16802.88l-55.23 143.35c-15.44,40.09 3.14,86.17 41.32,102.4l0.02 0.01c38.17,16.22 82.02,-3.3 97.48,-43.4l59.51 -154.49c27.48,-71.4 101.16,-114.85 65.13,-208.04 -27.64,-71.51 -105.25,-105.95 -173.32,-76.91 -68.07,29.04 -100.85,110.58 -73.21,182.1 8.56,22.15 21.93,40.73 38.3,54.98z"/>
        <path fill="#E6E6E6" d="M25225.64 18359.84c-68.07,29.04 -145.68,-5.4 -173.32,-76.91 -11.41,-29.5 -12.52,-60.67 -5.13,-89.2l-119.43 -86.61c-33.89,-24.6 -42.46,-73.82 -19.07,-109.41l0.02 -0.02c23.38,-35.59 70.24,-44.63 104.12,-20.05 30.58,22.17 131.33,87.69 148.9,113.67 57.43,-6.32 114.31,27.42 137.12,86.43 27.64,71.52 -5.14,153.05 -73.21,182.1z"/>
        <path fill="#E6E6E6" d="M25213.33 17530.07c-64.65,27.59 -137.89,-2.09 -168.77,-66.42l-124.74 22.38c-40.58,7.28 -79.45,-21.66 -86.39,-64.3l0.01 -0.02c-6.94,-42.64 20.59,-83.49 61.18,-90.76 38.98,-6.99 141.11,-31.53 174.3,-28.95 12.25,-12.97 27.16,-23.61 44.3,-30.92 68.07,-29.04 145.68,5.4 173.32,76.9 27.64,71.51 -5.14,153.05 -73.21,182.09z"/>
        <path fill="#E6E6E6" d="M23817.43 16768.37c424.61,-181.17 929.75,88.35 1128.3,601.97 198.55,513.62 15.32,1076.84 -409.29,1258.01 -424.61,181.17 -929.75,-88.34 -1128.3,-601.96 -198.55,-513.62 -15.32,-1076.85 409.29,-1258.02z"/>
       </g>
       <g clip-path="url(#id8)">
        <g>
         <path id="1" fill="none" stroke="white" stroke-width="42.33" stroke-linecap="round" stroke-linejoin="round" stroke-miterlimit="22.9256" d="M23196.15 17260.91c695.57,521.42 1267.04,310.77 1424.4,-587.69"/>
         <line fill="none" stroke="white" stroke-width="42.33" stroke-linecap="round" stroke-linejoin="round" stroke-miterlimit="22.9256" x1="24116.79" y1="17496.82" x2="24617.25" y2= "18791.45" />
        </g>
       </g>
       <g clip-path="url(#id9)">
        <path fill="none" d="M23817.43 16768.37c424.61,-181.17 929.75,88.35 1128.3,601.97 198.55,513.62 15.32,1076.84 -409.29,1258.01 -424.61,181.17 -929.75,-88.34 -1128.3,-601.96 -198.55,-513.62 -15.32,-1076.85 409.29,-1258.02z"/>
       </g>
      </g>
     </g>
     <g clip-path="url(#id10)">
      <polygon fill="none" points="19851.94,9912.75 26583.58,18425.51 33315.2,26938.27 19851.94,26938.27 6388.67,26938.27 13120.3,18425.51 "/>
      <g>
       <path fill="url(#id11)" d="M19688.95 18129.6c634.72,0 1274.76,4.6 1712.06,-806.09 323.4,-599.55 925.71,-4315.86 1089.27,-5162.71 218.57,-1131.73 597.73,-2354.09 116.92,-3461.92 -952.94,-2195.62 -4233.31,-2286.13 -5289.08,-60.4 -522.53,1101.58 -151.62,2224.42 76.43,3449.54 145.39,781.05 790.75,4620.66 1073.66,5178.29 192.24,378.88 692.79,863.29 1220.74,863.29z"/>
       <path fill="url(#id12)" d="M17767.92 21882.52c0,3026.87 4168.01,3026.87 4168.01,0 0,-1062.91 -912.74,-1910.32 -2257.68,-1910.32 -955.25,0 -1910.33,955.08 -1910.33,1910.32z"/>
      </g>
      <polygon fill="url(#id13)" points="24369.83,37720.2 24613.52,37609.56 24652.15,38535.59 25119.79,37970.08 25274.97,39187.56 25026.23,38413.38 24571.57,39016.84 "/>
      <polygon fill="url(#id14)" points="18144.86,32179.57 18312.29,32103.55 18338.83,32739.79 18660.12,32351.25 18766.74,33187.73 18595.84,32655.82 18283.46,33070.43 "/>
      <path fill="#E6E6E6" fill-opacity="0.560784" d="M30074.19 38118.07c349.89,-538.84 952.67,867.94 1408.44,311.74 205.15,-250.37 -147.31,-488.2 -443.18,-810.9 -356.03,-388.32 -398.27,-1080.57 86.11,-1243.66 267.41,-90.05 524.2,138.42 492.45,418.28 -32.3,284.65 -3.01,264.5 312.37,519.73 722.18,584.45 623.74,1942.24 -493.1,2043.22 -1116.84,100.98 -1712.98,-699.57 -1363.09,-1238.41z"/>
      <path fill="#E6E6E6" fill-opacity="0.560784" d="M31351.91 36186.05c212.85,0 385.4,-172.55 385.4,-385.4 0,-212.85 -172.55,-385.41 -385.4,-385.41 -212.86,0 -385.41,172.56 -385.41,385.41 0,212.85 172.55,385.4 385.41,385.4z"/>
      <path fill="#E6E6E6" d="M25911.71 15061.89c288.08,119.74 602.41,7.51 903.61,11.28 -216.32,203.23 -643.1,312.96 -648.97,609.68l-18.5 935.04c-0.9,45.61 -347.07,-410.55 -520.55,-615.8 -202.73,-239.85 -734.21,-69.13 -1093.38,-82.8 250.44,-222.56 644.79,-333.59 767.21,-625.84 122.42,-292.26 -65.74,-593.76 -98.6,-890.64 236.39,219.7 421.11,539.34 709.18,659.08z"/>
      <path fill="#E6E6E6" d="M26514.19 9716.79c192.64,80.07 402.84,5.02 604.26,7.54 -144.66,135.9 -430.06,209.29 -433.98,407.71l-12.37 625.29c-0.6,30.5 -232.1,-274.55 -348.11,-411.8 -135.57,-160.4 -490.99,-46.24 -731.18,-55.38 167.48,-148.83 431.2,-223.08 513.06,-418.52 81.87,-195.44 -43.96,-397.06 -65.94,-595.59 158.08,146.92 281.61,360.67 474.26,440.75z"/>
      <path fill="#E6E6E6" d="M29039.41 14934.31c99.73,41.45 208.56,2.6 312.84,3.9 -74.89,70.36 -222.65,108.35 -224.68,211.08l-6.41 323.73c-0.31,15.79 -120.16,-142.14 -180.22,-213.2 -70.19,-83.04 -254.2,-23.94 -378.55,-28.67 86.71,-77.05 223.24,-115.49 265.62,-216.68 42.39,-101.18 -22.76,-205.57 -34.14,-308.35 81.85,76.07 145.8,186.73 245.54,228.19z"/>
      <path fill="#E6E6E6" d="M37711.61 23813.89c203.24,79.77 421.62,-3.14 632.43,-4.7 -148.53,145.22 -445.63,227.95 -445.6,435.65l0.09 654.52c0.01,31.92 -248.58,-282.43 -372.82,-423.63 -145.2,-165 -514.71,-38.14 -766.22,-42.7 172.14,-159.22 446.53,-242.4 528.11,-448.6 81.59,-206.21 -54.27,-414.55 -81.41,-621.82 168.47,150.43 302.18,371.52 505.42,451.28z"/>
      <path fill="#E6E6E6" d="M37858.51 21984.24c135.91,53.34 281.95,-2.1 422.92,-3.15 -99.32,97.11 -298,152.44 -297.98,291.33l0.06 437.7c0,21.35 -166.23,-188.87 -249.32,-283.29 -97.09,-110.35 -344.19,-25.51 -512.38,-28.56 115.11,-106.47 298.6,-162.1 353.16,-299.99 54.56,-137.9 -36.3,-277.22 -54.44,-415.83 112.66,100.6 202.07,248.44 337.98,301.79z"/>
      <path fill="#E6E6E6" d="M39470.78 22687.06c70.37,27.62 145.98,-1.09 218.96,-1.63 -51.42,50.28 -154.28,78.92 -154.27,150.83l0.03 226.61c0,11.05 -86.06,-97.79 -129.08,-146.67 -50.27,-57.13 -178.2,-13.21 -265.27,-14.78 59.59,-55.13 154.59,-83.93 182.84,-155.32 28.24,-71.39 -18.79,-143.52 -28.19,-215.28 58.33,52.08 104.62,128.62 174.98,156.24z"/>
      <path fill="#E6E6E6" d="M14860.64 29681.16c130.79,54.36 273.51,3.41 410.26,5.12 -98.22,92.27 -291.99,142.09 -294.65,276.81l-8.4 424.53c-0.41,20.71 -157.58,-186.4 -236.34,-279.58 -92.05,-108.9 -333.36,-31.39 -496.43,-37.6 113.71,-101.05 292.75,-151.46 348.34,-284.15 55.58,-132.69 -29.85,-269.58 -44.77,-404.37 107.33,99.75 191.19,244.87 321.99,299.24z"/>
      <path fill="#E6E6E6" d="M46171.22 32137.31c112.65,46.82 235.57,2.93 353.36,4.41 -84.59,79.47 -251.49,122.38 -253.79,238.42l-7.23 365.65c-0.35,17.84 -135.73,-160.55 -203.57,-240.81 -79.28,-93.8 -287.12,-27.04 -427.58,-32.38 97.94,-87.03 252.16,-130.45 300.03,-244.74 47.87,-114.29 -25.71,-232.2 -38.56,-348.29 92.44,85.91 164.68,210.91 277.34,257.74z"/>
      <path fill="#E6E6E6" d="M42235.66 32183.85c58.32,24.24 121.96,1.52 182.95,2.28 -43.8,41.15 -130.21,63.36 -131.39,123.44l-3.75 189.3c-0.18,9.24 -70.27,-83.12 -105.39,-124.67 -41.05,-48.56 -148.65,-14 -221.37,-16.77 50.71,-45.05 130.55,-67.53 155.33,-126.7 24.79,-59.17 -13.31,-120.22 -19.96,-180.32 47.86,44.48 85.26,109.19 143.58,133.44z"/>
      <path fill="#E6E6E6" fill-opacity="0.560784" d="M17015.61 27924.18c160.52,247.2 437.04,-398.16 646.12,-143 94.12,114.85 -67.57,223.95 -203.3,371.99 -163.33,178.15 -182.71,495.72 39.5,570.54 122.67,41.3 240.48,-63.5 225.91,-191.89 -14.82,-130.59 -1.38,-121.34 143.3,-238.43 331.3,-268.11 286.14,-891 -226.21,-937.33 -512.35,-46.32 -785.83,320.93 -625.32,568.12z"/>
      <path fill="#E6E6E6" fill-opacity="0.560784" d="M17601.77 28810.5c97.64,0 176.8,79.16 176.8,176.8 0,97.65 -79.16,176.81 -176.8,176.81 -97.65,0 -176.81,-79.16 -176.81,-176.81 0,-97.64 79.16,-176.8 176.81,-176.8z"/>
      <g>
       <path fill="#E6E6E6" fill-opacity="0.560784" d="M14469.25 13426.1c83.59,128.73 227.6,-207.35 336.49,-74.47 49.01,59.81 -35.2,116.63 -105.88,193.73 -85.06,92.77 -95.15,258.15 20.57,297.11 63.89,21.52 125.23,-33.06 117.65,-99.93 -7.72,-68 -0.72,-63.19 74.63,-124.16 172.53,-139.63 149.01,-464.02 -117.81,-488.14 -266.82,-24.13 -409.24,167.13 -325.65,295.86z"/>
       <path fill="#E6E6E6" fill-opacity="0.560784" d="M14774.51 13887.67c50.85,0 92.07,41.23 92.07,92.08 0,50.85 -41.22,92.08 -92.07,92.08 -50.86,0 -92.08,-41.23 -92.08,-92.08 0,-50.85 41.22,-92.08 92.08,-92.08z"/>
      </g>
      <path fill="#E6E6E6" d="M35891.06 26010.27c-261.59,114.89 -551.46,17.87 -827.19,26.8 201.78,182.15 594.57,274.84 605.35,546.43l34 855.83c1.65,41.75 310.31,-382.25 465.41,-573.35 181.26,-223.32 671.03,-76.7 999.66,-95.76 -233.39,-199.22 -596.5,-293.69 -713.93,-559.06 -117.42,-265.38 49.37,-544.88 74.05,-817.32 -212.45,205.48 -375.76,501.54 -637.35,616.43z"/>
      <path fill="#E6E6E6" d="M14415.08 37679.27c-95.41,39.66 -199.52,2.49 -299.28,3.74 71.65,67.31 213,103.65 214.94,201.93l6.13 309.69c0.3,15.11 114.96,-135.97 172.41,-203.95 67.15,-79.44 243.18,-22.9 362.14,-27.43 -82.95,-73.71 -213.56,-110.49 -254.11,-207.28 -40.54,-96.8 21.78,-196.66 32.66,-294.99 -78.29,72.77 -139.48,178.64 -234.89,218.29z"/>
      <path fill="#E6E6E6" d="M27671.62 40539.88c-119.36,49.61 -249.61,3.11 -374.41,4.67 89.63,84.21 266.47,129.67 268.9,252.62l7.67 387.43c0.37,18.9 143.81,-170.11 215.68,-255.15 84.01,-99.39 304.22,-28.65 453.05,-34.31 -103.78,-92.22 -267.18,-138.22 -317.9,-259.32 -50.72,-121.09 27.24,-246.02 40.86,-369.03 -97.95,91.03 -174.49,223.47 -293.85,273.09z"/>
      <path fill="#E6E6E6" d="M26713.06 36591.99c-130.79,54.36 -273.51,3.41 -410.26,5.12 98.21,92.27 291.98,142.09 294.64,276.81l8.41 424.53c0.4,20.71 157.58,-186.39 236.34,-279.58 92.05,-108.9 333.35,-31.39 496.43,-37.6 -113.71,-101.05 -292.76,-151.46 -348.34,-284.15 -55.58,-132.69 29.85,-269.58 44.77,-404.37 -107.33,99.75 -191.2,244.88 -321.99,299.24z"/>
      <g>
       <path fill="#E6E6E6" d="M13745.04 17015.73l88.32 38.87c24.71,10.88 36.02,39.98 25.14,64.7l0 0.01c-10.88,24.7 -39.98,36.02 -64.7,25.14l-95.18 -41.9c-43.98,-19.38 -97.51,-5.13 -121.13,-63.29 -18.12,-44.62 3.37,-95.5 47.99,-113.63 44.63,-18.12 95.51,3.37 113.63,47.99 5.62,13.83 7.42,28.25 5.93,42.11z"/>
       <path fill="#E6E6E6" d="M14145.53 17981.55c44.63,-18.12 66.12,-69 48,-113.63 -7.48,-18.41 -20.52,-32.86 -36.41,-42.24l18.44 -93.34c5.23,-26.49 -12.16,-52.42 -38.63,-57.66l-0.03 0c-26.47,-5.23 -52.42,12.14 -57.65,38.63 -4.72,23.9 -23.56,99.26 -20.52,118.91 -29.74,23.43 -41.78,64.52 -26.83,101.34 18.13,44.63 69.01,66.12 113.63,47.99z"/>
       <path fill="#E6E6E6" d="M13790.29 17604.76c42.38,-17.22 63.89,-63.97 50.41,-106.86l68.36 -47.01c22.24,-15.3 27.92,-46.01 12.62,-68.25l-0.01 -0.01c-15.29,-22.24 -46,-27.93 -68.24,-12.63 -21.36,14.69 -80.03,50.4 -94.51,66.72 -11.4,-0.2 -23.04,1.86 -34.27,6.42 -44.62,18.13 -66.11,69.01 -47.99,113.63 18.12,44.62 69,66.11 113.63,47.99z"/>
       <path fill="#E6E6E6" d="M14650.69 16647.92l-36.21 89.45c-10.13,25.02 2.05,53.77 27.09,63.9l0.01 0.01c25.02,10.12 53.77,-2.06 63.9,-27.08l39.02 -96.41c18.01,-44.56 66.32,-71.67 42.7,-129.82 -18.12,-44.63 -69.01,-66.12 -113.63,-47.99 -44.63,18.12 -66.12,69 -47.99,113.63 5.61,13.82 14.37,25.41 25.11,34.31z"/>
       <path fill="#E6E6E6" d="M15037.02 17619.5c-44.62,18.12 -95.51,-3.37 -113.63,-48 -7.48,-18.4 -8.21,-37.86 -3.36,-55.66l-78.3 -54.05c-22.21,-15.34 -27.83,-46.06 -12.5,-68.27l0.01 -0.01c15.33,-22.21 46.05,-27.85 68.26,-12.51 20.05,13.83 86.1,54.72 97.62,70.93 37.65,-3.95 74.94,17.11 89.89,53.93 18.13,44.63 -3.36,95.51 -47.99,113.64z"/>
       <path fill="#E6E6E6" d="M15028.95 17101.7c-42.38,17.22 -90.4,-1.3 -110.65,-41.45l-81.77 13.97c-26.61,4.54 -52.09,-13.51 -56.64,-40.12l0 -0.02c-4.54,-26.61 13.5,-52.09 40.12,-56.63 25.55,-4.37 92.51,-19.68 114.27,-18.07 8.03,-8.09 17.8,-14.73 29.03,-19.29 44.63,-18.13 95.51,3.36 113.63,47.98 18.13,44.63 -3.36,95.51 -47.99,113.63z"/>
       <path fill="#E6E6E6" d="M14113.81 16626.39c278.37,-113.06 609.53,55.13 739.7,375.64 130.17,320.5 10.05,671.97 -268.33,785.02 -278.37,113.06 -609.54,-55.13 -739.7,-375.63 -130.17,-320.51 -10.05,-671.98 268.33,-785.03z"/>
      </g>
      <g clip-path="url(#id15)">
       <g>
        <path id="1" fill="none" stroke="white" stroke-width="42.33" stroke-linecap="round" stroke-linejoin="round" stroke-miterlimit="22.9256" d="M13706.5 16933.74c456.01,325.38 830.66,193.93 933.83,-366.73"/>
        <line fill="none" stroke="white" stroke-width="42.33" stroke-linecap="round" stroke-linejoin="round" stroke-miterlimit="22.9256" x1="14310.06" y1="17080.95" x2="14638.16" y2= "17888.83" />
       </g>
      </g>
      <g clip-path="url(#id16)">
       <path fill="none" d="M14113.81 16626.39c278.37,-113.06 609.53,55.13 739.7,375.64 130.17,320.5 10.05,671.97 -268.33,785.02 -278.37,113.06 -609.54,-55.13 -739.7,-375.63 -130.17,-320.51 -10.05,-671.98 268.33,-785.03z"/>
      </g>
      <g>
       <path fill="#E6E6E6" d="M35368.86 32592.37l-118.72 -49.45c-33.2,-13.84 -49.05,-52.31 -35.21,-85.53l0.01 -0.02c13.83,-33.2 52.31,-49.05 85.52,-35.22l127.94 53.31c59.11,24.65 130.06,4.25 163.07,81.1 25.33,58.98 -1.95,127.35 -60.93,152.68 -58.98,25.33 -127.34,-1.95 -152.68,-60.93 -7.84,-18.27 -10.63,-37.43 -9,-55.94z"/>
       <path fill="#E6E6E6" d="M34809.61 31316.16c-58.98,25.33 -86.26,93.7 -60.93,152.67 10.45,24.33 28.21,43.25 49.63,55.33l-22.1 124.84c-6.25,35.44 17.6,69.53 53.01,75.8l0.03 0c35.42,6.27 69.53,-17.57 75.79,-53 5.66,-31.96 28.76,-132.87 24.18,-158.98 39.01,-32 53.97,-87.07 33.06,-135.73 -25.33,-58.98 -93.69,-86.26 -152.67,-60.93z"/>
       <path fill="#E6E6E6" d="M35292.93 31808.76c-56.01,24.06 -83.43,86.93 -64.34,143.72l-89.82 64.45c-29.23,20.97 -35.98,62.04 -15.01,91.27l0.01 0.01c20.97,29.23 62.04,35.99 91.26,15.01 28.08,-20.14 105.3,-69.27 124.16,-91.4 15.19,-0.04 30.64,-3.09 45.48,-9.47 58.98,-25.33 86.26,-93.69 60.93,-152.66 -25.33,-58.98 -93.69,-86.26 -152.67,-60.93z"/>
       <path fill="#E6E6E6" d="M34171.95 33106.47l45.88 -120.15c12.82,-33.6 -4.17,-71.59 -37.79,-84.42l-0.02 -0.01c-33.61,-12.82 -71.59,4.17 -84.43,37.78l-49.42 129.49c-22.82,59.84 -86.46,97.25 -53.45,174.1 25.33,58.98 93.7,86.26 152.67,60.93 58.98,-25.33 86.26,-93.7 60.93,-152.68 -7.84,-18.26 -19.83,-33.48 -34.37,-45.04z"/>
       <path fill="#E6E6E6" d="M33631.42 31822.22c58.98,-25.33 127.35,1.95 152.68,60.93 10.45,24.32 11.94,50.23 5.95,74.07l105.76 69.93c30.01,19.86 38.31,60.64 18.47,90.64l-0.02 0.02c-19.83,30 -60.61,38.32 -90.61,18.48 -27.08,-17.91 -116.17,-70.63 -131.95,-91.92 -50.06,6.26 -100.3,-20.81 -121.2,-69.48 -25.33,-58.97 1.95,-127.34 60.92,-152.67z"/>
       <path fill="#E6E6E6" d="M33655.92 32511.9c56.02,-24.06 120.48,-0.66 148.53,52.29l108.58 -20.78c35.33,-6.76 69.77,16.62 76.53,51.95l-0.01 0.02c6.77,35.33 -16.6,69.77 -51.94,76.52 -33.93,6.5 -122.73,28.68 -151.77,27.11 -10.48,10.99 -23.33,20.1 -38.18,26.48 -58.97,25.33 -127.34,-1.95 -152.67,-60.92 -25.33,-58.98 1.95,-127.34 60.93,-152.67z"/>
       <path fill="#E6E6E6" d="M34887.85 33120.91c-367.89,158.02 -813.59,-57.28 -995.53,-480.86 -181.94,-423.58 -31.22,-895.06 336.67,-1053.08 367.9,-158.02 813.6,57.28 995.54,480.86 181.94,423.59 31.22,895.06 -336.68,1053.08z"/>
      </g>
      <g clip-path="url(#id17)">
       <g>
        <path id="1" fill="none" stroke="white" stroke-width="42.33" stroke-linecap="round" stroke-linejoin="round" stroke-miterlimit="22.9256" d="M35422.38 32700.59c-616.21,-421.42 -1111.9,-236.34 -1234.48,513.41"/>
        <line fill="none" stroke="white" stroke-width="42.33" stroke-linecap="round" stroke-linejoin="round" stroke-miterlimit="22.9256" x1="34614.3" y1="32520.46" x2="34155.7" y2= "31452.78" />
       </g>
      </g>
      <g clip-path="url(#id18)">
       <path fill="none" d="M34887.85 33120.91c-367.89,158.02 -813.59,-57.28 -995.53,-480.86 -181.94,-423.58 -31.22,-895.06 336.67,-1053.08 367.9,-158.02 813.6,57.28 995.54,480.86 181.94,423.59 31.22,895.06 -336.68,1053.08z"/>
      </g>
      <path fill="#E6E6E6" d="M20764.5 33618.98l50.5 22.22c14.12,6.22 20.59,22.86 14.37,36.99l0 0.01c-6.22,14.12 -22.86,20.59 -36.98,14.37l-54.42 -23.95c-25.15,-11.08 -55.75,-2.94 -69.25,-36.18 -10.36,-25.52 1.92,-54.61 27.44,-64.97 25.51,-10.36 54.6,1.93 64.96,27.44 3.21,7.9 4.24,16.15 3.38,24.07z"/>
      <path fill="#E6E6E6" d="M20993.47 34171.14c25.51,-10.36 37.8,-39.45 27.44,-64.96 -4.28,-10.53 -11.73,-18.79 -20.82,-24.15l10.55 -53.36c2.98,-15.15 -6.96,-29.97 -22.09,-32.97l-0.01 0c-15.14,-2.99 -29.98,6.95 -32.96,22.09 -2.71,13.66 -13.48,56.74 -11.73,67.98 -17.01,13.39 -23.89,36.88 -15.34,57.93 10.36,25.52 39.45,37.8 64.96,27.44z"/>
      <path fill="#E6E6E6" d="M20790.38 33955.73c24.23,-9.84 36.52,-36.57 28.82,-61.09l39.08 -26.88c12.71,-8.74 15.96,-26.3 7.21,-39.02l0 0c-8.75,-12.72 -26.3,-15.97 -39.02,-7.22 -12.21,8.4 -45.75,28.81 -54.03,38.14 -6.51,-0.11 -13.17,1.06 -19.59,3.67 -25.51,10.36 -37.8,39.45 -27.44,64.96 10.36,25.51 39.45,37.8 64.97,27.44z"/>
      <path fill="#E6E6E6" d="M21282.26 33408.7l-20.7 51.14c-5.78,14.31 1.18,30.74 15.49,36.54l0.01 0c14.3,5.79 30.74,-1.18 36.53,-15.48l22.31 -55.12c10.3,-25.47 37.91,-40.97 24.41,-74.22 -10.36,-25.51 -39.45,-37.8 -64.96,-27.43 -25.52,10.36 -37.8,39.45 -27.44,64.96 3.21,7.9 8.22,14.53 14.35,19.61z"/>
      <path fill="#E6E6E6" d="M21503.13 33964.15c-25.51,10.36 -54.6,-1.92 -64.96,-27.43 -4.28,-10.53 -4.69,-21.65 -1.92,-31.83l-44.76 -30.89c-12.71,-8.78 -15.92,-26.34 -7.15,-39.04l0 0c8.77,-12.7 26.33,-15.93 39.03,-7.16 11.46,7.91 49.22,31.29 55.81,40.56 21.52,-2.26 42.84,9.78 51.39,30.83 10.36,25.51 -1.93,54.6 -27.44,64.96z"/>
      <path fill="#E6E6E6" d="M21498.52 33668.13c-24.23,9.84 -51.68,-0.75 -63.26,-23.69l-46.75 7.98c-15.21,2.6 -29.78,-7.73 -32.38,-22.94l0 -0.01c-2.6,-15.21 7.72,-29.78 22.93,-32.37 14.61,-2.5 52.89,-11.25 65.33,-10.34 4.59,-4.62 10.18,-8.42 16.6,-11.02 25.52,-10.36 54.61,1.92 64.97,27.43 10.36,25.51 -1.93,54.6 -27.44,64.96z"/>
      <path fill="#E6E6E6" d="M20975.33 33396.39c159.15,-64.63 348.47,31.52 422.89,214.76 74.42,183.23 5.74,384.16 -153.4,448.8 -159.15,64.63 -348.48,-31.52 -422.89,-214.76 -74.42,-183.23 -5.75,-384.16 153.4,-448.8z"/>
     </g>
     <g clip-path="url(#id19)">
      <g>
       <path id="1" fill="none" stroke="white" stroke-width="8.47" stroke-linecap="round" stroke-linejoin="round" stroke-miterlimit="22.9256" d="M20742.47 33572.11c260.7,186.01 474.89,110.87 533.87,-209.66"/>
       <line fill="none" stroke="white" stroke-width="8.47" stroke-linecap="round" stroke-linejoin="round" stroke-miterlimit="22.9256" x1="21087.53" y1="33656.27" x2="21275.1" y2= "34118.13" />
      </g>
     </g>
     <g clip-path="url(#id20)">
      <path fill="none" d="M20975.33 33396.39c159.15,-64.63 348.47,31.52 422.89,214.76 74.42,183.23 5.74,384.16 -153.4,448.8 -159.15,64.63 -348.48,-31.52 -422.89,-214.76 -74.42,-183.23 -5.75,-384.16 153.4,-448.8z"/>
      <path fill="#606060" d="M16870 6979.28c-136.4,-46.2 -284.43,26.92 -330.63,163.33 -46.21,136.41 26.92,284.43 163.32,330.64 136.41,46.2 284.44,-26.93 330.64,-163.33 46.2,-136.41 -26.92,-284.44 -163.33,-330.64z"/>
      <path fill="#F4C74A" d="M14157.34 8632.35c125.7,274.2 28.18,581.83 42.27,872.74 188.87,-216.08 280.08,-632.28 566.59,-648.25l902.86 -50.35c44.04,-2.45 -408.75,-321.11 -613.1,-481.61 -238.81,-187.57 -92.3,-707.05 -117.98,-1053.64 -206.36,249.73 -299.95,634.64 -578.1,763.08 -278.14,128.44 -576.01,-42.91 -864.02,-64.35 220.5,220.79 535.78,388.18 661.48,662.38z"/>
      <path fill="#F4C74A" d="M12924.11 11912.78c111.48,243.17 24.99,515.98 37.48,773.98 167.5,-191.63 248.39,-560.73 502.48,-574.89l800.68 -44.66c39.06,-2.17 -362.49,-284.77 -543.72,-427.11 -211.78,-166.33 -81.85,-627.03 -104.63,-934.4 -183,221.47 -266,562.82 -512.67,676.72 -246.67,113.91 -510.83,-38.04 -766.24,-57.07 195.54,195.81 475.14,344.26 586.62,587.43z"/>
      <path fill="#F4C74A" d="M16520.65 13502.69c57.71,125.89 12.93,267.13 19.4,400.7 86.72,-99.21 128.6,-290.3 260.15,-297.63l414.53 -23.12c20.22,-1.12 -187.67,-147.43 -281.5,-221.12 -109.64,-86.12 -42.38,-324.64 -54.17,-483.77 -94.74,114.66 -137.71,291.39 -265.42,350.36 -127.71,58.97 -264.47,-19.7 -396.7,-29.55 101.24,101.38 245.99,178.23 303.71,304.13z"/>
      <path fill="#606060" d="M15948.71 10113.17c-136.41,-46.2 -284.44,26.92 -330.64,163.33 -46.2,136.41 26.92,284.43 163.33,330.64 136.41,46.2 284.44,-26.93 330.64,-163.33 46.2,-136.41 -26.92,-284.44 -163.33,-330.64z"/>
      <g>
       <ellipse fill="#FBB9AB" cx="27754.31" cy="26953.54" rx="6036.89" ry="7413.42"/>
       <circle fill="#EE8A92" cx="23800.58" cy="29318.72" r="760.84"/>
       <circle fill="#EE8A92" cx="32107.54" cy="29318.72" r="760.84"/>
       <path fill="none" stroke="#EE4540" stroke-width="67.73" stroke-linecap="round" stroke-linejoin="round" stroke-miterlimit="22.9256" d="M27112.13 31183.41c624.9,-560.27 1921.37,-873.1 2744.07,-742.14"/>
       <path fill="#EE8A92" d="M27307.02 28903.98c34.16,-8.03 300.64,93.2 556.05,71.64 294.42,-24.83 580.52,-170.95 580.52,-146.48 0,127.14 -64.15,289.86 -143.43,386.11 -243.42,295.36 -598.06,234.37 -855.45,-10.86 -42.23,-40.25 -197.52,-286.33 -137.69,-300.41z"/>
       <path fill="#051934" d="M22016.06 27588.82c-61.53,520.89 -619.98,684.97 -938.42,166.94 -318.44,-518.03 -1758.87,-5493.88 641.94,-6690.22 1363.7,-2808.54 3902.44,-3619.4 7703.42,-2866.84 4860.8,1308.77 5844.79,7204.3 4722.11,8748.92 -1122.69,1544.61 -233.02,-2872.16 -1534.15,-2787.37 -1301.13,84.8 -6016.32,1321.92 -9944.77,-1197.61 -778.41,1611.29 -888.15,3099.66 -650.13,4626.18z"/>
       <g>
        <path fill="#334C62" fill-rule="nonzero" d="M24745.09 20817.86c-9.52,-6.77 -11.74,-19.99 -4.97,-29.51 6.77,-9.52 19.99,-11.74 29.51,-4.97l-24.54 34.48zm8036.58 1218.33l13.44 40.14 -425.12 134.35 -412.06 114.41 -399.18 95.33 -386.49 77.14 -373.97 59.79 -361.66 43.34 -349.55 27.75 -337.58 13.03 -325.84 -0.81 -314.27 -13.78 -302.87 -25.87 -291.68 -37.1 -280.67 -47.45 -269.83 -56.9 -259.2 -65.5 -248.74 -73.22 -238.47 -80.05 -228.39 -86 -218.49 -91.09 -208.79 -95.27 -199.28 -98.61 -189.95 -101.04 -180.81 -102.59 -171.86 -103.28 -163.11 -103.09 -154.53 -101.99 -146.16 -100.04 -137.95 -97.21 -129.96 -93.47 -122.11 -88.87 -114.45 -83.37 -107 -77.01 24.54 -34.48 107.28 77.21 114.55 83.43 122.01 88.79 129.68 93.29 137.55 96.91 145.62 99.68 153.89 101.57 162.35 102.61 171 102.76 179.85 102.05 188.89 100.48 198.12 98.03 207.55 94.71 217.17 90.53 226.97 85.48 236.99 79.55 247.2 72.76 257.58 65.1 268.17 56.56 278.97 47.15 289.96 36.88 301.13 25.73 312.51 13.7 324.1 0.81 335.86 -12.97 347.83 -27.61 360 -43.14 372.35 -59.53 384.91 -76.82 397.66 -94.97 410.6 -114.01 423.74 -133.91zm0 0c11.08,-3.71 23.08,2.27 26.79,13.35 3.71,11.08 -2.27,23.08 -13.35,26.79l-13.44 -40.14z"/>
       </g>
       <g>
        <path fill="#233957" fill-rule="nonzero" d="M26576.82 19655.43c-9.52,-6.77 -11.74,-19.99 -4.97,-29.51 6.77,-9.52 19.99,-11.74 29.51,-4.97l-24.54 34.48zm4831.55 773.7l9.78 41.18 -251.54 55.98 -244.06 46.89 -236.68 38.2 -229.41 29.88 -222.22 21.93 -215.15 14.38 -208.19 7.2 -201.31 0.41 -194.54 -5.99 -187.88 -12.03 -181.3 -17.67 -174.83 -22.93 -168.48 -27.82 -162.2 -32.3 -156.04 -36.43 -149.97 -40.14 -144.01 -43.48 -138.14 -46.45 -132.39 -49.02 -126.73 -51.2 -121.17 -52.99 -115.71 -54.42 -110.36 -55.44 -105.11 -56.09 -99.95 -56.34 -94.9 -56.2 -89.96 -55.7 -85.12 -54.78 -80.36 -53.49 -75.72 -51.81 -71.17 -49.74 -66.73 -47.29 24.54 -34.48 66.55 47.15 70.89 49.54 75.32 51.53 79.86 53.17 84.52 54.4 89.3 55.28 94.16 55.76 99.13 55.88 104.21 55.61 109.4 54.96 114.69 53.94 120.09 52.53 125.59 50.74 131.21 48.58 136.92 46.03 142.73 43.1 148.67 39.8 154.7 36.11 160.84 32.04 167.08 27.58 173.45 22.75 179.9 17.53 186.48 11.95 193.14 5.95 199.93 -0.41 206.81 -7.16 213.81 -14.28 220.9 -21.81 228.11 -29.7 235.42 -38 242.84 -46.65 250.36 -55.72zm0 0c11.37,-2.7 22.78,4.33 25.48,15.7 2.7,11.37 -4.33,22.78 -15.7,25.48l-9.78 -41.18z"/>
       </g>
       <ellipse fill="#FBB9AB" cx="21572.31" cy="27898.19" rx="968.91" ry="1473.14"/>
       <ellipse fill="#FBB9AB" cx="33671.01" cy="27723.55" rx="968.91" ry="1473.14"/>
      </g>
      <g id="_1713442071504">
       <path fill="url(#id21)" d="M33382.08 19420.05c-296.06,-1024.45 516.45,-2239.52 1019.32,-1996.18 502.88,243.33 -12.91,839.14 -361.01,1205.14 -348.1,365.99 -502.59,513.2 -658.31,791.04z"/>
       <path fill="url(#id22)" d="M33985.85 19865.76c403.24,-706.32 1499.78,-907.34 1633.83,-502.89 134.04,404.45 -466.01,438.79 -851.22,442.79 -385.22,4 -547.85,-2.32 -782.61,60.1z"/>
      </g>
      <path fill="#E6E6E6" d="M29844.86 44314.64c110.73,51.2 235.28,12.16 352.92,18.25 -87.64,76.1 -256.09,112.44 -262.93,228.3l-21.56 365.08c-1.05,17.81 -129.33,-165.74 -193.97,-248.6 -75.55,-96.83 -285.84,-38.27 -425.98,-49.11 101.27,-83.13 257.07,-120.47 309.38,-232.8 52.32,-112.32 -16.59,-233.02 -24.88,-349.53 89.01,89.47 156.29,217.2 267.02,268.41z"/>
     </g>
     <g>
      <path fill="#606060" d="M33884.46 43392.58c233.19,150.39 300.31,461.32 149.93,694.51 -150.39,233.19 -461.32,300.31 -694.51,149.92 -233.19,-150.38 -300.31,-461.32 -149.92,-694.5 150.38,-233.19 461.32,-300.31 694.5,-149.93z"/>
      <path fill="#606060" d="M31225.58 46420.62c-142.43,-91.86 -332.35,-50.86 -424.2,91.57 -91.86,142.43 -50.86,332.35 91.57,424.21 142.43,91.86 332.35,50.86 424.21,-91.57 91.85,-142.43 50.86,-332.35 -91.58,-424.21z"/>
      <path fill="#606060" d="M27673.22 47177.69c194.87,125.68 250.96,385.52 125.28,580.39 -125.67,194.87 -385.51,250.97 -580.39,125.29 -194.87,-125.68 -250.96,-385.52 -125.28,-580.39 125.67,-194.87 385.52,-250.96 580.39,-125.29z"/>
      <path fill="#606060" d="M27673.22 47177.69c194.87,125.68 250.96,385.52 125.28,580.39 -125.67,194.87 -385.51,250.97 -580.39,125.29 -194.87,-125.68 -250.96,-385.52 -125.28,-580.39 125.67,-194.87 385.52,-250.96 580.39,-125.29z"/>
     </g>
    </g>
   </g>
  </g>
  <polygon fill="none" points="-2.07,2.07 49997.93,2.07 49997.93,50002.07 -2.07,50002.07 "/>
 </g>
</svg>
