<?xml version="1.0" encoding="UTF-8"?>
<!DOCTYPE svg PUBLIC "-//W3C//DTD SVG 1.1//EN" "http://www.w3.org/Graphics/SVG/1.1/DTD/svg11.dtd">
<!-- Creator: CorelDRAW 2019 (64-Bit) -->
<svg xmlns="http://www.w3.org/2000/svg" xml:space="preserve" width="500mm" height="500mm" version="1.1" shape-rendering="geometricPrecision" text-rendering="geometricPrecision" image-rendering="optimizeQuality" fill-rule="evenodd" clip-rule="evenodd"
viewBox="0 0 50000 50000"
 xmlns:xlink="http://www.w3.org/1999/xlink">
 <defs>
   <clipPath id="id0">
    <path d="M-2.07 2.07l50000 0 0 50000 -50000 0 0 -50000z"/>
   </clipPath>
      <linearGradient id="id1" gradientUnits="userSpaceOnUse" x1="9633.45" y1="33544.29" x2="36604.36" y2="33115.76">
       <stop offset="0" stop-opacity="1" stop-color="#FF9F43"/>
       <stop offset="1" stop-opacity="1" stop-color="#FED136"/>
      </linearGradient>
     <clipPath id="id2">
      <path d="M13330.96 29804.25l23091.52 -56.84c7.08,-0.02 3939.23,2681.58 4372.59,2984.59 308.8,215.99 306.06,997.28 -227.47,997.65l-30565.29 22.84c-1288.84,0.96 -1013.28,-625.79 -918.07,-713.73 346.72,-320.3 4236.32,-3234.49 4246.72,-3234.51z"/>
     </clipPath>
     <clipPath id="id3">
      <path d="M-2.07 2.07l50000 0 0 50000 -50000 0 0 -50000z"/>
     </clipPath>
      <linearGradient id="id4" gradientUnits="userSpaceOnUse" x1="16757.84" y1="19108.03" x2="34970.56" y2="28642.93">
       <stop offset="0" stop-opacity="1" stop-color="#FF9F43"/>
       <stop offset="1" stop-opacity="1" stop-color="#FED136"/>
      </linearGradient>
     <clipPath id="id5">
      <path d="M14001.29 16251.64l21776.97 0c345.63,0 628.4,282.79 628.4,628.42l0 12665.38c0,345.63 -282.77,628.42 -628.4,628.42l-21776.97 0c-345.62,0 -628.41,-282.79 -628.41,-628.42l0 -12665.38c0,-345.63 282.79,-628.42 628.41,-628.42z"/>
     </clipPath>
        <linearGradient id="id6" gradientUnits="userSpaceOnUse" x1="63208.45" y1="7211.34" x2="65100.06" y2="7211.34">
         <stop offset="0" stop-opacity="1" stop-color="#FF9F43"/>
         <stop offset="1" stop-opacity="1" stop-color="#FED136"/>
        </linearGradient>
       <clipPath id="id7">
       </clipPath>
       <clipPath id="id8">
        <path d="M14001.29 16251.64l21776.97 0c345.63,0 628.4,282.79 628.4,628.42l0 12665.38c0,345.63 -282.77,628.42 -628.4,628.42l-21776.97 0c-345.62,0 -628.41,-282.79 -628.41,-628.42l0 -12665.38c0,-345.63 282.79,-628.42 628.41,-628.42z"/>
       </clipPath>
        <linearGradient id="id9" gradientUnits="userSpaceOnUse" x1="64087.52" y1="5445.72" x2="67713.16" y2="5445.72">
         <stop offset="0" stop-opacity="1" stop-color="#FF9F43"/>
         <stop offset="1" stop-opacity="1" stop-color="#FED136"/>
        </linearGradient>
       <clipPath id="id10">
       </clipPath>
       <clipPath id="id11">
        <path d="M14001.29 16251.64l21776.97 0c345.63,0 628.4,282.79 628.4,628.42l0 12665.38c0,345.63 -282.77,628.42 -628.4,628.42l-21776.97 0c-345.62,0 -628.41,-282.79 -628.41,-628.42l0 -12665.38c0,-345.63 282.79,-628.42 628.41,-628.42z"/>
       </clipPath>
        <linearGradient id="id12" gradientUnits="userSpaceOnUse" x1="66255.19" y1="5935.78" x2="69556.96" y2="5935.78">
         <stop offset="0" stop-opacity="1" stop-color="#FF9F43"/>
         <stop offset="1" stop-opacity="1" stop-color="#FED136"/>
        </linearGradient>
       <clipPath id="id13">
       </clipPath>
       <clipPath id="id14">
        <path d="M14001.29 16251.64l21776.97 0c345.63,0 628.4,282.79 628.4,628.42l0 12665.38c0,345.63 -282.77,628.42 -628.4,628.42l-21776.97 0c-345.62,0 -628.41,-282.79 -628.41,-628.42l0 -12665.38c0,-345.63 282.79,-628.42 628.41,-628.42z"/>
       </clipPath>
     <clipPath id="id15">
      <path d="M-2.07 2.07l50000 0 0 50000 -50000 0 0 -50000z"/>
     </clipPath>
     <clipPath id="id16">
      <path d="M14721.81 16983.23l20335.94 0c345.63,0 628.4,282.77 628.4,628.41l0 11202.23c0,345.62 -282.77,628.41 -628.4,628.41l-20335.94 0c-345.63,0 -628.42,-282.79 -628.42,-628.41l0 -11202.23c0,-345.64 282.79,-628.41 628.42,-628.41z"/>
     </clipPath>
        <linearGradient id="id17" gradientUnits="userSpaceOnUse" x1="56859.11" y1="29721.73" x2="58750.72" y2="29721.73">
         <stop offset="0" stop-opacity="1" stop-color="#FF9F43"/>
         <stop offset="1" stop-opacity="1" stop-color="#FED136"/>
        </linearGradient>
       <clipPath id="id18">
       </clipPath>
       <clipPath id="id19">
        <path d="M14721.81 16983.23l20335.94 0c345.63,0 628.4,282.77 628.4,628.41l0 11202.23c0,345.62 -282.77,628.41 -628.4,628.41l-20335.94 0c-345.63,0 -628.42,-282.79 -628.42,-628.41l0 -11202.23c0,-345.64 282.79,-628.41 628.42,-628.41z"/>
       </clipPath>
        <linearGradient id="id20" gradientUnits="userSpaceOnUse" x1="57738.18" y1="27956.11" x2="61363.82" y2="27956.11">
         <stop offset="0" stop-opacity="1" stop-color="#FF9F43"/>
         <stop offset="1" stop-opacity="1" stop-color="#FED136"/>
        </linearGradient>
       <clipPath id="id21">
       </clipPath>
       <clipPath id="id22">
        <path d="M14721.81 16983.23l20335.94 0c345.63,0 628.4,282.77 628.4,628.41l0 11202.23c0,345.62 -282.77,628.41 -628.4,628.41l-20335.94 0c-345.63,0 -628.42,-282.79 -628.42,-628.41l0 -11202.23c0,-345.64 282.79,-628.41 628.42,-628.41z"/>
       </clipPath>
        <linearGradient id="id23" gradientUnits="userSpaceOnUse" x1="59905.84" y1="28446.17" x2="63207.62" y2="28446.17">
         <stop offset="0" stop-opacity="1" stop-color="#FF9F43"/>
         <stop offset="1" stop-opacity="1" stop-color="#FED136"/>
        </linearGradient>
       <clipPath id="id24">
       </clipPath>
       <clipPath id="id25">
        <path d="M14721.81 16983.23l20335.94 0c345.63,0 628.4,282.77 628.4,628.41l0 11202.23c0,345.62 -282.77,628.41 -628.4,628.41l-20335.94 0c-345.63,0 -628.42,-282.79 -628.42,-628.41l0 -11202.23c0,-345.64 282.79,-628.41 628.42,-628.41z"/>
       </clipPath>
        <linearGradient id="id26" gradientUnits="userSpaceOnUse" x1="30012.58" y1="28066.25" x2="31904.19" y2="28066.25">
         <stop offset="0" stop-opacity="1" stop-color="#FF9F43"/>
         <stop offset="1" stop-opacity="1" stop-color="#FED136"/>
        </linearGradient>
       <clipPath id="id27">
        <path d="M30744.71 26331.71c-508.01,344.45 -1087.66,2079.22 -454.41,3110.57l1612.67 0c40.46,-1032.76 -1184.6,-2087.37 -1158.26,-3110.57z"/>
       </clipPath>
       <clipPath id="id28">
        <path d="M14721.81 16983.23l20335.94 0c345.63,0 628.4,282.77 628.4,628.41l0 11202.23c0,345.62 -282.77,628.41 -628.4,628.41l-20335.94 0c-345.63,0 -628.42,-282.79 -628.42,-628.41l0 -11202.23c0,-345.64 282.79,-628.41 628.42,-628.41z"/>
       </clipPath>
        <linearGradient id="id29" gradientUnits="userSpaceOnUse" x1="30891.66" y1="26300.63" x2="34517.29" y2="26300.63">
         <stop offset="0" stop-opacity="1" stop-color="#FF9F43"/>
         <stop offset="1" stop-opacity="1" stop-color="#FED136"/>
        </linearGradient>
       <clipPath id="id30">
        <path d="M31406.68 22811.87c-502.39,2247.59 -804.3,4402.5 -101.66,6630.41l3210.03 0c57.7,-2862.36 -1045.27,-4973.14 -3108.37,-6630.41z"/>
       </clipPath>
       <clipPath id="id31">
        <path d="M14721.81 16983.23l20335.94 0c345.63,0 628.4,282.77 628.4,628.41l0 11202.23c0,345.62 -282.77,628.41 -628.4,628.41l-20335.94 0c-345.63,0 -628.42,-282.79 -628.42,-628.41l0 -11202.23c0,-345.64 282.79,-628.41 628.42,-628.41z"/>
       </clipPath>
        <linearGradient id="id32" gradientUnits="userSpaceOnUse" x1="33059.32" y1="26790.69" x2="36361.09" y2="26790.69">
         <stop offset="0" stop-opacity="1" stop-color="#FF9F43"/>
         <stop offset="1" stop-opacity="1" stop-color="#FED136"/>
        </linearGradient>
       <clipPath id="id33">
        <path d="M35686.15 24091.89c-1912.06,1943.95 -2613.93,3728.04 -2626.52,5350.39l1998.12 0c345.63,0 628.4,-282.79 628.4,-628.41l0 -4721.98z"/>
       </clipPath>
       <clipPath id="id34">
        <path d="M14721.81 16983.23l20335.94 0c345.63,0 628.4,282.77 628.4,628.41l0 11202.23c0,345.62 -282.77,628.41 -628.4,628.41l-20335.94 0c-345.63,0 -628.42,-282.79 -628.42,-628.41l0 -11202.23c0,-345.64 282.79,-628.41 628.42,-628.41z"/>
       </clipPath>
        <linearGradient id="id35" gradientUnits="userSpaceOnUse" x1="35940.91" y1="37616.32" x2="37103.78" y2="37616.32">
         <stop offset="0" stop-opacity="1" stop-color="#FF9F43"/>
         <stop offset="1" stop-opacity="1" stop-color="#FED136"/>
        </linearGradient>
       <clipPath id="id36">
       </clipPath>
       <clipPath id="id37">
        <path d="M14721.81 16983.23l20335.94 0c345.63,0 628.4,282.77 628.4,628.41l0 11202.23c0,345.62 -282.77,628.41 -628.4,628.41l-20335.94 0c-345.63,0 -628.42,-282.79 -628.42,-628.41l0 -11202.23c0,-345.64 282.79,-628.41 628.42,-628.41z"/>
       </clipPath>
        <linearGradient id="id38" gradientUnits="userSpaceOnUse" x1="36481.32" y1="36530.9" x2="38710.18" y2="36530.9">
         <stop offset="0" stop-opacity="1" stop-color="#FF9F43"/>
         <stop offset="1" stop-opacity="1" stop-color="#FED136"/>
        </linearGradient>
       <clipPath id="id39">
       </clipPath>
       <clipPath id="id40">
        <path d="M14721.81 16983.23l20335.94 0c345.63,0 628.4,282.77 628.4,628.41l0 11202.23c0,345.62 -282.77,628.41 -628.4,628.41l-20335.94 0c-345.63,0 -628.42,-282.79 -628.42,-628.41l0 -11202.23c0,-345.64 282.79,-628.41 628.42,-628.41z"/>
       </clipPath>
        <linearGradient id="id41" gradientUnits="userSpaceOnUse" x1="37813.89" y1="36832.16" x2="39843.66" y2="36832.16">
         <stop offset="0" stop-opacity="1" stop-color="#FF9F43"/>
         <stop offset="1" stop-opacity="1" stop-color="#FED136"/>
        </linearGradient>
       <clipPath id="id42">
       </clipPath>
       <clipPath id="id43">
        <path d="M14721.81 16983.23l20335.94 0c345.63,0 628.4,282.77 628.4,628.41l0 11202.23c0,345.62 -282.77,628.41 -628.4,628.41l-20335.94 0c-345.63,0 -628.42,-282.79 -628.42,-628.41l0 -11202.23c0,-345.64 282.79,-628.41 628.42,-628.41z"/>
       </clipPath>
     <clipPath id="id44">
      <path d="M-2.07 2.07l50000 0 0 50000 -50000 0 0 -50000z"/>
     </clipPath>
       <linearGradient id="id45" gradientUnits="userSpaceOnUse" x1="7965.32" y1="14267.06" x2="8665.39" y2="14267.06">
        <stop offset="0" stop-opacity="1" stop-color="#FF9F43"/>
        <stop offset="1" stop-opacity="1" stop-color="#FED136"/>
       </linearGradient>
       <linearGradient id="id46" gradientUnits="userSpaceOnUse" x1="9959.58" y1="14267.06" x2="9259.51" y2="14267.06">
        <stop offset="0" stop-opacity="1" stop-color="#FF9F43"/>
        <stop offset="1" stop-opacity="1" stop-color="#FED136"/>
       </linearGradient>
       <linearGradient id="id47" gradientUnits="userSpaceOnUse" x1="10562.54" y1="14267.06" x2="11262.62" y2="14267.06">
        <stop offset="0" stop-opacity="1" stop-color="#FF9F43"/>
        <stop offset="1" stop-opacity="1" stop-color="#FED136"/>
       </linearGradient>
       <linearGradient id="id48" gradientUnits="userSpaceOnUse" x1="12556.8" y1="14267.06" x2="11856.73" y2="14267.06">
        <stop offset="0" stop-opacity="1" stop-color="#FF9F43"/>
        <stop offset="1" stop-opacity="1" stop-color="#FED136"/>
       </linearGradient>
        <linearGradient id="id49" gradientUnits="userSpaceOnUse" x1="10675.53" y1="15286.95" x2="11200.3" y2="15286.95">
         <stop offset="0" stop-opacity="1" stop-color="#FF9F43"/>
         <stop offset="1" stop-opacity="1" stop-color="#FED136"/>
        </linearGradient>
        <linearGradient id="id50" gradientUnits="userSpaceOnUse" x1="11645.64" y1="15286.95" x2="12170.39" y2="15286.95">
         <stop offset="0" stop-opacity="1" stop-color="#FF9F43"/>
         <stop offset="1" stop-opacity="1" stop-color="#FED136"/>
        </linearGradient>
        <linearGradient id="id51" gradientUnits="userSpaceOnUse" x1="12622.37" y1="15286.95" x2="13147.12" y2="15286.95">
         <stop offset="0" stop-opacity="1" stop-color="#FF9F43"/>
         <stop offset="1" stop-opacity="1" stop-color="#FED136"/>
        </linearGradient>
        <linearGradient id="id52" gradientUnits="userSpaceOnUse" x1="13592.46" y1="15286.95" x2="14117.22" y2="15286.95">
         <stop offset="0" stop-opacity="1" stop-color="#FF9F43"/>
         <stop offset="1" stop-opacity="1" stop-color="#FED136"/>
        </linearGradient>
        <linearGradient id="id53" gradientUnits="userSpaceOnUse" x1="14577.83" y1="15286.95" x2="15102.6" y2="15286.95">
         <stop offset="0" stop-opacity="1" stop-color="#FF9F43"/>
         <stop offset="1" stop-opacity="1" stop-color="#FED136"/>
        </linearGradient>
        <linearGradient id="id54" gradientUnits="userSpaceOnUse" x1="15547.94" y1="15286.95" x2="16072.69" y2="15286.95">
         <stop offset="0" stop-opacity="1" stop-color="#FF9F43"/>
         <stop offset="1" stop-opacity="1" stop-color="#FED136"/>
        </linearGradient>
        <linearGradient id="id55" gradientUnits="userSpaceOnUse" x1="16524.66" y1="15286.95" x2="17049.42" y2="15286.95">
         <stop offset="0" stop-opacity="1" stop-color="#FF9F43"/>
         <stop offset="1" stop-opacity="1" stop-color="#FED136"/>
        </linearGradient>
        <linearGradient id="id56" gradientUnits="userSpaceOnUse" x1="17494.76" y1="15286.95" x2="18019.52" y2="15286.95">
         <stop offset="0" stop-opacity="1" stop-color="#FF9F43"/>
         <stop offset="1" stop-opacity="1" stop-color="#FED136"/>
        </linearGradient>
       <linearGradient id="id57" gradientUnits="userSpaceOnUse" x1="16220.63" y1="12980.05" x2="27223.33" y2="29101.29">
        <stop offset="0" stop-opacity="1" stop-color="#FED136"/>
        <stop offset="1" stop-opacity="1" stop-color="#FF9F43"/>
       </linearGradient>
         <linearGradient id="id58" gradientUnits="userSpaceOnUse" x1="17163.43" y1="16132.65" x2="19057.2" y2="16132.65">
          <stop offset="0" stop-opacity="1" stop-color="#FF9F43"/>
          <stop offset="1" stop-opacity="1" stop-color="#FED136"/>
         </linearGradient>
        <clipPath id="id59">
         <path d="M18110.31 15185.77c522.95,0 946.88,423.93 946.88,946.88 0,522.94 -423.93,946.89 -946.88,946.89 -522.95,0 -946.89,-423.95 -946.89,-946.89 0,-522.95 423.94,-946.88 946.89,-946.88z"/>
        </clipPath>
        <clipPath id="id60">
         <path d="M-2.07 2.07l50000 0 0 50000 -50000 0 0 -50000z"/>
        </clipPath>
         <linearGradient id="id61" gradientUnits="userSpaceOnUse" x1="19838.36" y1="15700.64" x2="24661.61" y2="15700.64">
          <stop offset="0" stop-opacity="1" stop-color="#FED136"/>
          <stop offset="1" stop-opacity="1" stop-color="white"/>
         </linearGradient>
         <linearGradient id="id62" gradientUnits="userSpaceOnUse" x1="19838.36" y1="16564.66" x2="23491.42" y2="16564.66">
          <stop offset="0" stop-opacity="1" stop-color="#FED136"/>
          <stop offset="1" stop-opacity="1" stop-color="white"/>
         </linearGradient>
         <linearGradient id="id63" gradientUnits="userSpaceOnUse" x1="17163.43" y1="19720.01" x2="19057.2" y2="19720.01">
          <stop offset="0" stop-opacity="1" stop-color="#FF9F43"/>
          <stop offset="1" stop-opacity="1" stop-color="#FED136"/>
         </linearGradient>
        <clipPath id="id64">
         <path d="M18110.31 18773.13c522.95,0 946.88,423.93 946.88,946.89 0,522.94 -423.93,946.88 -946.88,946.88 -522.95,0 -946.89,-423.94 -946.89,-946.88 0,-522.96 423.94,-946.89 946.89,-946.89z"/>
        </clipPath>
        <clipPath id="id65">
         <path d="M-2.07 2.07l50000 0 0 50000 -50000 0 0 -50000z"/>
        </clipPath>
         <linearGradient id="id66" gradientUnits="userSpaceOnUse" x1="19838.36" y1="19288" x2="24661.61" y2="19288">
          <stop offset="0" stop-opacity="1" stop-color="#FED136"/>
          <stop offset="1" stop-opacity="1" stop-color="white"/>
         </linearGradient>
         <linearGradient id="id67" gradientUnits="userSpaceOnUse" x1="19838.35" y1="20152.03" x2="22627.39" y2="20152.03">
          <stop offset="0" stop-opacity="1" stop-color="#FED136"/>
          <stop offset="1" stop-opacity="1" stop-color="white"/>
         </linearGradient>
         <linearGradient id="id68" gradientUnits="userSpaceOnUse" x1="17163.43" y1="23225.36" x2="19057.2" y2="23225.36">
          <stop offset="0" stop-opacity="1" stop-color="#FF9F43"/>
          <stop offset="1" stop-opacity="1" stop-color="#FED136"/>
         </linearGradient>
        <clipPath id="id69">
         <path d="M18110.31 22278.48c522.95,0 946.88,423.93 946.88,946.89 0,522.94 -423.93,946.88 -946.88,946.88 -522.95,0 -946.89,-423.94 -946.89,-946.88 0,-522.96 423.94,-946.89 946.89,-946.89z"/>
        </clipPath>
        <clipPath id="id70">
         <path d="M-2.07 2.07l50000 0 0 50000 -50000 0 0 -50000z"/>
        </clipPath>
         <linearGradient id="id71" gradientUnits="userSpaceOnUse" x1="19838.36" y1="22793.35" x2="24661.61" y2="22793.35">
          <stop offset="0" stop-opacity="1" stop-color="#FED136"/>
          <stop offset="1" stop-opacity="1" stop-color="white"/>
         </linearGradient>
         <linearGradient id="id72" gradientUnits="userSpaceOnUse" x1="19838.36" y1="23657.38" x2="22693.01" y2="23657.38">
          <stop offset="0" stop-opacity="1" stop-color="#FED136"/>
          <stop offset="1" stop-opacity="1" stop-color="white"/>
         </linearGradient>
       <linearGradient id="id73" gradientUnits="userSpaceOnUse" x1="17543.89" y1="11755.1" x2="24445.18" y2="11755.1">
        <stop offset="0" stop-opacity="1" stop-color="#FF9F43"/>
        <stop offset="1" stop-opacity="1" stop-color="#FED136"/>
       </linearGradient>
       <linearGradient id="id74" gradientUnits="userSpaceOnUse" x1="35555.53" y1="35519.66" x2="36080.29" y2="35519.66">
        <stop offset="0" stop-opacity="1" stop-color="#FF9F43"/>
        <stop offset="1" stop-opacity="1" stop-color="#FED136"/>
       </linearGradient>
       <linearGradient id="id75" gradientUnits="userSpaceOnUse" x1="34585.44" y1="35519.66" x2="35110.19" y2="35519.66">
        <stop offset="0" stop-opacity="1" stop-color="#FF9F43"/>
        <stop offset="1" stop-opacity="1" stop-color="#FED136"/>
       </linearGradient>
       <linearGradient id="id76" gradientUnits="userSpaceOnUse" x1="33608.71" y1="35519.66" x2="34133.46" y2="35519.66">
        <stop offset="0" stop-opacity="1" stop-color="#FF9F43"/>
        <stop offset="1" stop-opacity="1" stop-color="#FED136"/>
       </linearGradient>
       <linearGradient id="id77" gradientUnits="userSpaceOnUse" x1="32638.6" y1="35519.66" x2="33163.37" y2="35519.66">
        <stop offset="0" stop-opacity="1" stop-color="#FF9F43"/>
        <stop offset="1" stop-opacity="1" stop-color="#FED136"/>
       </linearGradient>
       <linearGradient id="id78" gradientUnits="userSpaceOnUse" x1="39149.89" y1="34522.55" x2="38449.82" y2="34522.55">
        <stop offset="0" stop-opacity="1" stop-color="#FF9F43"/>
        <stop offset="1" stop-opacity="1" stop-color="#FED136"/>
       </linearGradient>
       <linearGradient id="id79" gradientUnits="userSpaceOnUse" x1="37155.63" y1="34522.55" x2="37855.71" y2="34522.55">
        <stop offset="0" stop-opacity="1" stop-color="#FF9F43"/>
        <stop offset="1" stop-opacity="1" stop-color="#FED136"/>
       </linearGradient>
       <linearGradient id="id80" gradientUnits="userSpaceOnUse" x1="36552.67" y1="34522.55" x2="35852.6" y2="34522.55">
        <stop offset="0" stop-opacity="1" stop-color="#FF9F43"/>
        <stop offset="1" stop-opacity="1" stop-color="#FED136"/>
       </linearGradient>
       <linearGradient id="id81" gradientUnits="userSpaceOnUse" x1="34558.41" y1="34522.55" x2="35258.48" y2="34522.55">
        <stop offset="0" stop-opacity="1" stop-color="#FF9F43"/>
        <stop offset="1" stop-opacity="1" stop-color="#FED136"/>
       </linearGradient>
      <clipPath id="id82">
       <path d="M24445.29 12027.19l17286.65 0 0 15451.84 -17286.65 0 0 -15451.84z"/>
      </clipPath>
      <clipPath id="id83">
       <path d="M-2.07 2.07l50000 0 0 50000 -50000 0 0 -50000z"/>
      </clipPath>
     <clipPath id="id84" clip-rule="nonzero">
      <path d="M28289.71 21218.38c0,-1344.42 0,-2688.83 0,-4033.24 0,-742.3 602.12,-1344.41 1344.42,-1344.41 2302.99,0 4605.97,0 6908.97,0 742.3,0 1344.41,602.11 1344.41,1344.41 0,1344.41 0,2688.82 0,4033.24 0,742.29 -602.11,1344.41 -1344.41,1344.41 -191.72,0 -383.43,0 -575.15,0 -34.44,358.68 -68.85,717.35 -103.28,1076.03 -685.41,-358.68 -1370.81,-717.35 -2056.23,-1076.03 -1391.43,0 -2782.88,0 -4174.31,0 -742.3,0 -1344.42,-602.12 -1344.42,-1344.41z"/>
     </clipPath>
       <linearGradient id="id85" gradientUnits="userSpaceOnUse" x1="35791.09" y1="22205.3" x2="36469.82" y2="22047.15">
        <stop offset="0" stop-opacity="1" stop-color="#FF9F43"/>
        <stop offset="1" stop-opacity="1" stop-color="#FED136"/>
       </linearGradient>
      <clipPath id="id86">
       <path d="M35908.77 21521.72c-145.87,157.83 -210,771.74 53.09,1104.47l6.09 -63.4c191.72,0 383.43,0 575.15,0 15.02,0 29.96,-0.34 44.86,-0.83 -55.55,-384.69 -601.69,-664.02 -679.19,-1040.24z"/>
      </clipPath>
      <clipPath id="id87">
       <path d="M28289.71 21218.38c0,-1344.42 0,-2688.83 0,-4033.24 0,-742.3 602.12,-1344.41 1344.42,-1344.41 2302.99,0 4605.97,0 6908.97,0 742.3,0 1344.41,602.11 1344.41,1344.41 0,1344.41 0,2688.82 0,4033.24 0,742.29 -602.11,1344.41 -1344.41,1344.41 -191.72,0 -383.43,0 -575.15,0 -34.44,358.68 -68.85,717.35 -103.28,1076.03 -685.41,-358.68 -1370.81,-717.35 -2056.23,-1076.03 -1391.43,0 -2782.88,0 -4174.31,0 -742.3,0 -1344.42,-602.12 -1344.42,-1344.41z"/>
      </clipPath>
       <linearGradient id="id88" gradientUnits="userSpaceOnUse" x1="35958.9" y1="21498.28" x2="37259.81" y2="21195.16">
        <stop offset="0" stop-opacity="1" stop-color="#FF9F43"/>
        <stop offset="1" stop-opacity="1" stop-color="#FED136"/>
       </linearGradient>
      <clipPath id="id89">
       <path d="M35852.02 20203.43c7.55,837.7 77.64,1626.65 501.34,2359.36l189.74 0c367.99,0 701.47,-148.03 944.28,-387.7 -240.54,-948.28 -799.16,-1569.97 -1635.36,-1971.66z"/>
      </clipPath>
      <clipPath id="id90">
       <path d="M28289.71 21218.38c0,-1344.42 0,-2688.83 0,-4033.24 0,-742.3 602.12,-1344.41 1344.42,-1344.41 2302.99,0 4605.97,0 6908.97,0 742.3,0 1344.41,602.11 1344.41,1344.41 0,1344.41 0,2688.82 0,4033.24 0,742.29 -602.11,1344.41 -1344.41,1344.41 -191.72,0 -383.43,0 -575.15,0 -34.44,358.68 -68.85,717.35 -103.28,1076.03 -685.41,-358.68 -1370.81,-717.35 -2056.23,-1076.03 -1391.43,0 -2782.88,0 -4174.31,0 -742.3,0 -1344.42,-602.12 -1344.42,-1344.41z"/>
      </clipPath>
       <linearGradient id="id91" gradientUnits="userSpaceOnUse" x1="36777.65" y1="21492.89" x2="37962.36" y2="21216.85">
        <stop offset="0" stop-opacity="1" stop-color="#FF9F43"/>
        <stop offset="1" stop-opacity="1" stop-color="#FED136"/>
       </linearGradient>
      <clipPath id="id92">
       <path d="M37565.57 20191.57c-596.8,927.38 -707.45,1673.01 -557.71,2288.64 513.38,-189.24 879.65,-682.89 879.65,-1261.83l0 -293.94c-73.15,-237.43 -182.55,-479.92 -321.94,-732.87z"/>
      </clipPath>
      <clipPath id="id93">
       <path d="M28289.71 21218.38c0,-1344.42 0,-2688.83 0,-4033.24 0,-742.3 602.12,-1344.41 1344.42,-1344.41 2302.99,0 4605.97,0 6908.97,0 742.3,0 1344.41,602.11 1344.41,1344.41 0,1344.41 0,2688.82 0,4033.24 0,742.29 -602.11,1344.41 -1344.41,1344.41 -191.72,0 -383.43,0 -575.15,0 -34.44,358.68 -68.85,717.35 -103.28,1076.03 -685.41,-358.68 -1370.81,-717.35 -2056.23,-1076.03 -1391.43,0 -2782.88,0 -4174.31,0 -742.3,0 -1344.42,-602.12 -1344.42,-1344.41z"/>
      </clipPath>
     <clipPath id="id94" clip-rule="nonzero">
      <path d="M-2.07 2.07l50000 0 0 50000 -50000 0 0 -50000z"/>
     </clipPath>
      <linearGradient id="id95" gradientUnits="userSpaceOnUse" x1="29660.99" y1="19322.76" x2="31422.47" y2="19322.76">
       <stop offset="0" stop-opacity="1" stop-color="#FF9F43"/>
       <stop offset="1" stop-opacity="1" stop-color="#FED136"/>
      </linearGradient>
     <clipPath id="id96">
      <path d="M30424.14 17912.12c779.12,0 1410.72,631.61 1410.72,1410.73 0,779.11 -631.6,1410.73 -1410.72,1410.73 -779.11,0 -1410.73,-631.62 -1410.73,-1410.73 0,-779.12 631.62,-1410.73 1410.73,-1410.73z"/>
     </clipPath>
     <clipPath id="id97">
      <path d="M-2.07 2.07l50000 0 0 50000 -50000 0 0 -50000z"/>
     </clipPath>
      <linearGradient id="id98" gradientUnits="userSpaceOnUse" x1="32996.8" y1="18480.93" x2="32765.72" y2="17906.88">
       <stop offset="0" stop-opacity="1" stop-color="#FF9F43"/>
       <stop offset="1" stop-opacity="1" stop-color="#FED136"/>
      </linearGradient>
      <linearGradient id="id99" gradientUnits="userSpaceOnUse" x1="34192.08" y1="18563.57" x2="34004.15" y2="18018.54">
       <stop offset="0" stop-opacity="1" stop-color="#FF9F43"/>
       <stop offset="1" stop-opacity="1" stop-color="#FED136"/>
      </linearGradient>
      <linearGradient id="id100" gradientUnits="userSpaceOnUse" x1="35093.45" y1="18591.47" x2="35281.24" y2="18128.64">
       <stop offset="0" stop-opacity="1" stop-color="#FF9F43"/>
       <stop offset="1" stop-opacity="1" stop-color="#FED136"/>
      </linearGradient>
      <linearGradient id="id101" gradientUnits="userSpaceOnUse" x1="36717.94" y1="18569" x2="36415.19" y2="18090.11">
       <stop offset="0" stop-opacity="1" stop-color="#FF9F43"/>
       <stop offset="1" stop-opacity="1" stop-color="#FED136"/>
      </linearGradient>
      <linearGradient id="id102" gradientUnits="userSpaceOnUse" x1="32398.22" y1="19367.61" x2="37163.79" y2="19367.61">
       <stop offset="0" stop-opacity="1" stop-color="#FED136"/>
       <stop offset="1" stop-opacity="1" stop-color="white"/>
      </linearGradient>
      <linearGradient id="id103" gradientUnits="userSpaceOnUse" x1="32398.22" y1="19915.95" x2="35330.78" y2="19915.95">
       <stop offset="0" stop-opacity="1" stop-color="#FED136"/>
       <stop offset="1" stop-opacity="1" stop-color="white"/>
      </linearGradient>
      <linearGradient id="id104" gradientUnits="userSpaceOnUse" x1="32398.22" y1="20374.57" x2="34532.6" y2="20374.57">
       <stop offset="0" stop-opacity="1" stop-color="#FED136"/>
       <stop offset="1" stop-opacity="1" stop-color="white"/>
      </linearGradient>
       <linearGradient id="id105" gradientUnits="userSpaceOnUse" x1="15401.51" y1="27834.98" x2="14802.95" y2="27737.87">
        <stop offset="0" stop-opacity="1" stop-color="#FF9F43"/>
        <stop offset="1" stop-opacity="1" stop-color="#FED136"/>
       </linearGradient>
       <linearGradient id="id106" gradientUnits="userSpaceOnUse" x1="14917.73" y1="27335.12" x2="14652.83" y2="26956.03">
        <stop offset="0" stop-opacity="1" stop-color="#FF9F43"/>
        <stop offset="1" stop-opacity="1" stop-color="#FED136"/>
       </linearGradient>
 </defs>
 <g id="Layer_x0020_1">
  <metadata id="CorelCorpID_0Corel-Layer"/>
  <g>
  </g>
  <g clip-path="url(#id0)">
   <g>
    <g id="_2745884399216">
     <g>
      <path fill="#F4F4F4" fill-opacity="0.831373" d="M6739.23 15771.36c-4276.22,-2307.83 -1485.3,-9931.48 4419.33,-12729.04 5904.62,-2797.56 11663.42,-2218.77 13584.48,344.18 1921.05,2562.95 4166.47,2633.25 10845.99,3436.98 6679.52,803.75 14126.97,1295.91 10778.15,10288.26 -3348.83,8992.34 594.59,5088.74 2617.94,12898.61 2023.35,7809.87 -9371.86,5358.86 -13082.04,10682.7 -3710.18,5323.85 -5380.5,8376.38 -12953.9,8104.98 -7573.4,-271.4 -6338.29,-5831.22 -10846,-7635.17 -4507.71,-1803.94 -13338.98,-4600.58 -10918.88,-10808.31 2420.1,-6207.72 9831.15,-12275.35 5554.93,-14583.19z"/>
      <path fill="#FCFCFC" fill-opacity="0.831373" d="M6629.75 15472.57c-4188.56,-2260.52 -1454.84,-9727.88 4328.73,-12468.1 5783.57,-2740.2 11424.32,-2173.27 13305.99,337.14 1881.68,2510.4 4081.06,2579.26 10623.65,3366.52 6542.6,787.26 13837.37,1269.34 10557.2,10077.34 -3280.17,8808 582.39,4984.42 2564.26,12634.19 1981.88,7649.77 -9179.73,5249 -12813.85,10463.71 -3634.11,5214.7 -5270.2,8204.65 -12688.34,7938.82 -7418.14,-265.84 -6208.35,-5711.67 -10623.65,-7478.65 -4415.31,-1766.97 -13065.54,-4506.27 -10695.05,-10586.73 2370.49,-6080.47 9629.62,-12023.72 5441.06,-14284.24z"/>
     </g>
     <g>
      <path fill="#F4C74A" fill-opacity="0.211765" d="M17155.83 36191.11l-7912.67 0c-258.95,0 -470.82,211.84 -470.82,470.82l0 0.07c0,258.97 211.87,470.81 470.82,470.81l7912.67 0c258.96,0 470.83,-211.84 470.83,-470.81l0 -0.07c0,-258.98 -211.87,-470.82 -470.83,-470.82z"/>
      <path fill="#F4C74A" fill-opacity="0.211765" d="M15895.49 38063.11l-14200.65 0c-259.06,0 -470.86,211.85 -470.86,470.82l0 0.07c0,258.97 211.8,470.82 470.86,470.82l14200.65 0c258.9,0 470.86,-211.85 470.86,-470.82l0 -0.07c0,-258.97 -211.96,-470.82 -470.86,-470.82z"/>
      <path fill="#F4C74A" fill-opacity="0.211765" d="M18284.27 39934.06l-14200.65 0c-259.07,0 -470.86,211.85 -470.86,470.82l0 0.07c0,258.97 211.79,470.82 470.86,470.82l14200.65 0c258.9,0 470.85,-211.85 470.85,-470.82l0 -0.07c0,-258.97 -211.95,-470.82 -470.85,-470.82z"/>
      <path fill="#F4C74A" fill-opacity="0.211765" d="M12013.39 37132.82c-448.57,0 -897.05,0 -1345.63,0 145.61,358.76 141.08,668.28 0,932.87 448.58,0 897.06,0 1345.63,0 -145.7,-277.12 -226.69,-569.19 0,-932.87z"/>
      <path fill="#F4C74A" fill-opacity="0.211765" d="M13430.77 39004.17c-1940.27,0 -3880.13,0 -5820.41,0 429.88,358.78 364.48,668.36 0,932.88 1940.28,0 3880.14,0 5820.41,0 -132.46,-248.78 -374.06,-534.67 0,-932.88z"/>
      <path fill="#F4C74A" fill-opacity="0.211765" d="M17155.83 36191.11l-7912.67 0c-258.95,0 -470.82,211.84 -470.82,470.82l0 0.07c0,258.97 211.87,470.81 470.82,470.81l7912.67 0c258.96,0 470.83,-211.84 470.83,-470.81l0 -0.07c0,-258.98 -211.87,-470.82 -470.83,-470.82z"/>
      <path fill="#F4C74A" fill-opacity="0.211765" d="M15895.49 38063.11l-14200.65 0c-259.06,0 -470.86,211.85 -470.86,470.82l0 0.07c0,258.97 211.8,470.82 470.86,470.82l14200.65 0c258.9,0 470.86,-211.85 470.86,-470.82l0 -0.07c0,-258.97 -211.96,-470.82 -470.86,-470.82z"/>
      <path fill="#F4C74A" fill-opacity="0.211765" d="M18284.27 39934.06l-14200.65 0c-259.07,0 -470.86,211.85 -470.86,470.82l0 0.07c0,258.97 211.79,470.82 470.86,470.82l14200.65 0c258.9,0 470.85,-211.85 470.85,-470.82l0 -0.07c0,-258.97 -211.95,-470.82 -470.85,-470.82z"/>
      <path fill="#F4C74A" fill-opacity="0.211765" d="M12013.39 37132.82c-448.57,0 -897.05,0 -1345.63,0 145.61,358.76 141.08,668.28 0,932.87 448.58,0 897.06,0 1345.63,0 -145.7,-277.12 -226.69,-569.19 0,-932.87z"/>
      <path fill="#F4C74A" fill-opacity="0.211765" d="M13430.77 39004.17c-1940.27,0 -3880.13,0 -5820.41,0 429.88,358.78 364.48,668.36 0,932.88 1940.28,0 3880.14,0 5820.41,0 -132.46,-248.78 -374.06,-534.67 0,-932.88z"/>
     </g>
     <g>
      <path fill="#F4C74A" fill-opacity="0.211765" d="M35704.83 13093.59l5892.37 0c272.52,0 495.54,-222.97 495.54,-495.53l0 -0.08c0,-272.56 -223.02,-495.52 -495.54,-495.52l-5892.37 0c-272.52,0 -495.54,222.96 -495.54,495.52l0 0.08c0,272.56 223.02,495.53 495.54,495.53z"/>
      <path fill="#F4C74A" fill-opacity="0.211765" d="M36684.69 11123.33l10780.63 0c272.58,0 495.62,-222.96 495.62,-495.53l0 -0.07c0,-272.56 -223.04,-495.53 -495.62,-495.53l-10780.63 0c-272.59,0 -495.63,222.97 -495.63,495.53l0 0.07c0,272.57 223.04,495.53 495.63,495.53z"/>
      <path fill="#F4C74A" fill-opacity="0.211765" d="M34827.62 9154.19l10780.63 0c272.59,0 495.62,-222.96 495.62,-495.53l0 -0.07c0,-272.56 -223.03,-495.53 -495.62,-495.53l-10780.63 0c-272.59,0 -495.62,222.97 -495.62,495.53l0 0.07c0,272.57 223.03,495.53 495.62,495.53z"/>
      <path fill="#F4C74A" fill-opacity="0.211765" d="M39573.11 12102.46c348.73,0 697.38,0 1046.11,0 -113.2,-377.61 -109.68,-703.36 0,-981.84 -348.73,0 -697.38,0 -1046.11,0 113.27,291.66 176.24,599.07 0,981.84z"/>
      <path fill="#F4C74A" fill-opacity="0.211765" d="M38471.22 10132.87c1508.39,0 3016.47,0 4524.86,0 -334.18,-377.59 -283.35,-703.43 0,-981.83 -1508.39,0 -3016.47,0 -4524.86,0 102.98,261.85 290.8,562.73 0,981.83z"/>
      <path fill="#F4C74A" fill-opacity="0.211765" d="M35704.83 13093.59l5892.37 0c272.52,0 495.54,-222.97 495.54,-495.53l0 -0.08c0,-272.56 -223.02,-495.52 -495.54,-495.52l-5892.37 0c-272.52,0 -495.54,222.96 -495.54,495.52l0 0.08c0,272.56 223.02,495.53 495.54,495.53z"/>
      <path fill="#F4C74A" fill-opacity="0.211765" d="M36684.69 11123.33l10780.63 0c272.58,0 495.62,-222.96 495.62,-495.53l0 -0.07c0,-272.56 -223.04,-495.53 -495.62,-495.53l-10780.63 0c-272.59,0 -495.63,222.97 -495.63,495.53l0 0.07c0,272.57 223.04,495.53 495.63,495.53z"/>
      <path fill="#F4C74A" fill-opacity="0.211765" d="M34827.62 9154.19l10780.63 0c272.59,0 495.62,-222.96 495.62,-495.53l0 -0.07c0,-272.56 -223.03,-495.53 -495.62,-495.53l-10780.63 0c-272.59,0 -495.62,222.97 -495.62,495.53l0 0.07c0,272.57 223.03,495.53 495.62,495.53z"/>
      <path fill="#F4C74A" fill-opacity="0.211765" d="M39573.11 12102.46c348.73,0 697.38,0 1046.11,0 -113.2,-377.61 -109.68,-703.36 0,-981.84 -348.73,0 -697.38,0 -1046.11,0 113.27,291.66 176.24,599.07 0,981.84z"/>
      <path fill="#F4C74A" fill-opacity="0.211765" d="M38471.22 10132.87c1508.39,0 3016.47,0 4524.86,0 -334.18,-377.59 -283.35,-703.43 0,-981.83 -1508.39,0 -3016.47,0 -4524.86,0 102.98,261.85 290.8,562.73 0,981.83z"/>
     </g>
     <path fill="url(#id1)" d="M13330.96 29804.25l23091.52 -56.84c7.08,-0.02 3939.23,2681.58 4372.59,2984.59 308.8,215.99 306.06,997.28 -227.47,997.65l-30565.29 22.84c-1288.84,0.96 -1013.28,-625.79 -918.07,-713.73 346.72,-320.3 4236.32,-3234.49 4246.72,-3234.51z"/>
    </g>
    <g clip-path="url(#id2)">
     <g>
      <path id="1" fill="#F4F4F4" d="M12773.12 29720.22l24183.38 -47.87c7.41,-0.02 4140.6,2823.54 4555.14,3098.6 103.57,68.7 -101.74,226 -226,226l-32315.48 0c-124.25,0 -325.77,-151.87 -226,-226 363.18,-269.75 4018.07,-3050.71 4028.96,-3050.73z"/>
     </g>
    </g>
    <g clip-path="url(#id3)">
     <path fill="none" d="M13330.96 29804.25l23091.52 -56.84c7.08,-0.02 3939.23,2681.58 4372.59,2984.59 308.8,215.99 306.06,997.28 -227.47,997.65l-30565.29 22.84c-1288.84,0.96 -1013.28,-625.79 -918.07,-713.73 346.72,-320.3 4236.32,-3234.49 4246.72,-3234.51z"/>
     <path fill="url(#id4)" d="M14001.29 16251.64l21776.97 0c345.63,0 628.4,282.79 628.4,628.42l0 12665.38c0,345.63 -282.77,628.42 -628.4,628.42l-21776.97 0c-345.62,0 -628.41,-282.79 -628.41,-628.42l0 -12665.38c0,-345.63 282.79,-628.42 628.41,-628.42z"/>
    </g>
    <g clip-path="url(#id5)">
     <g>
      <g>
       <path id="1" fill="url(#id6)" d="M63940.58 5476.81c-573.31,388.71 -1238.17,2548.3 -147.61,3469.07l1244.39 -21.34c384.44,-1139.44 -1125.99,-2312.91 -1096.78,-3447.73z"/>
      </g>
      <g clip-path="url(#id7)">
       <g>
        <path id="2" fill="none" stroke="white" stroke-width="169.33" stroke-linecap="round" stroke-linejoin="round" stroke-miterlimit="22.9256" d="M63842.5 6886.05c26.22,701.2 395.1,1402.39 590.48,2103.59"/>
       </g>
      </g>
      <g clip-path="url(#id8)">
       <path fill="none" d="M63940.58 5476.81c-573.31,388.71 -1238.17,2548.3 -147.61,3469.07l1244.39 -21.34c384.44,-1139.44 -1125.99,-2312.91 -1096.78,-3447.73z"/>
       <path fill="url(#id9)" d="M64602.55 1956.97c-528.44,2364.11 -835.19,4625.66 15.72,6977.5l3084.31 -85.48c131.95,-2996 -974.57,-5184.65 -3100.03,-6892.02z"/>
      </g>
      <g clip-path="url(#id10)">
       <g>
        <path id="1" fill="none" stroke="white" stroke-width="169.33" stroke-linecap="round" stroke-linejoin="round" stroke-miterlimit="22.9256" d="M66359.65 8320.72c-36.81,-984.13 -554.53,-1968.26 -828.75,-2952.39"/>
       </g>
      </g>
      <g clip-path="url(#id11)">
       <path fill="none" d="M64602.55 1956.97c-528.44,2364.11 -835.19,4625.66 15.72,6977.5l3084.31 -85.48c131.95,-2996 -974.57,-5184.65 -3100.03,-6892.02z"/>
       <path fill="url(#id12)" d="M69139.58 2981.07c-2233.72,2166.24 -2958,4136.9 -2878.59,5909.43l2269.66 -59.98c1230.14,-1719.5 1249.98,-3575.21 608.93,-5849.45z"/>
      </g>
      <g clip-path="url(#id13)">
       <g>
        <path id="1" fill="none" stroke="white" stroke-width="169.33" stroke-linecap="round" stroke-linejoin="round" stroke-miterlimit="22.9256" d="M67606.81 8966.56c26.23,-1091.77 395.11,-2183.54 590.49,-3275.31"/>
       </g>
      </g>
      <g clip-path="url(#id14)">
       <path fill="none" d="M69139.58 2981.07c-2233.72,2166.24 -2958,4136.9 -2878.59,5909.43l2269.66 -59.98c1230.14,-1719.5 1249.98,-3575.21 608.93,-5849.45z"/>
      </g>
     </g>
    </g>
    <g clip-path="url(#id15)">
     <path fill="none" d="M14001.29 16251.64l21776.97 0c345.63,0 628.4,282.79 628.4,628.42l0 12665.38c0,345.63 -282.77,628.42 -628.4,628.42l-21776.97 0c-345.62,0 -628.41,-282.79 -628.41,-628.42l0 -12665.38c0,-345.63 282.79,-628.42 628.41,-628.42z"/>
     <path fill="white" d="M14721.81 16983.23l20335.94 0c345.63,0 628.4,282.77 628.4,628.41l0 11202.23c0,345.62 -282.77,628.41 -628.4,628.41l-20335.94 0c-345.63,0 -628.42,-282.79 -628.42,-628.41l0 -11202.23c0,-345.64 282.79,-628.41 628.42,-628.41z"/>
    </g>
    <g clip-path="url(#id16)">
     <g>
      <g>
       <path id="1" fill="url(#id17)" d="M57591.24 27987.2c-573.32,388.71 -1238.17,2548.3 -147.62,3469.07l1244.4 -21.34c384.43,-1139.44 -1126,-2312.91 -1096.78,-3447.73z"/>
      </g>
      <g clip-path="url(#id18)">
       <g>
        <path id="2" fill="none" stroke="white" stroke-width="169.33" stroke-linecap="round" stroke-linejoin="round" stroke-miterlimit="22.9256" d="M57493.15 29396.44c26.23,701.2 395.11,1402.39 590.49,2103.59"/>
       </g>
      </g>
      <g clip-path="url(#id19)">
       <path fill="none" d="M57591.24 27987.2c-573.32,388.71 -1238.17,2548.3 -147.62,3469.07l1244.4 -21.34c384.43,-1139.44 -1126,-2312.91 -1096.78,-3447.73z"/>
       <path fill="url(#id20)" d="M58253.21 24467.36c-528.44,2364.11 -835.2,4625.66 15.71,6977.51l3084.32 -85.49c131.95,-2996 -974.57,-5184.65 -3100.03,-6892.02z"/>
      </g>
      <g clip-path="url(#id21)">
       <g>
        <path id="1" fill="none" stroke="white" stroke-width="169.33" stroke-linecap="round" stroke-linejoin="round" stroke-miterlimit="22.9256" d="M60010.3 30831.11c-36.8,-984.13 -554.52,-1968.26 -828.74,-2952.39"/>
       </g>
      </g>
      <g clip-path="url(#id22)">
       <path fill="none" d="M58253.21 24467.36c-528.44,2364.11 -835.2,4625.66 15.71,6977.51l3084.32 -85.49c131.95,-2996 -974.57,-5184.65 -3100.03,-6892.02z"/>
       <path fill="url(#id23)" d="M62790.23 25491.46c-2233.71,2166.24 -2957.99,4136.91 -2878.59,5909.43l2269.67 -59.98c1230.14,-1719.5 1249.98,-3575.21 608.92,-5849.45z"/>
      </g>
      <g clip-path="url(#id24)">
       <g>
        <path id="1" fill="none" stroke="white" stroke-width="169.33" stroke-linecap="round" stroke-linejoin="round" stroke-miterlimit="22.9256" d="M61257.47 31476.95c26.22,-1091.77 395.1,-2183.54 590.48,-3275.31"/>
       </g>
      </g>
      <g clip-path="url(#id25)">
       <path fill="none" d="M62790.23 25491.46c-2233.71,2166.24 -2957.99,4136.91 -2878.59,5909.43l2269.67 -59.98c1230.14,-1719.5 1249.98,-3575.21 608.92,-5849.45z"/>
      </g>
      <g>
       <path fill="url(#id26)" d="M30744.71 26331.71c-573.31,388.72 -1238.16,2548.31 -147.61,3469.08l1244.4 -21.34c384.43,-1139.44 -1126,-2312.91 -1096.79,-3447.74z"/>
      </g>
      <g clip-path="url(#id27)">
       <g>
        <path id="1" fill="none" stroke="white" stroke-width="169.33" stroke-linecap="round" stroke-linejoin="round" stroke-miterlimit="22.9256" d="M30646.63 27740.96c26.23,701.2 395.1,1402.39 590.49,2103.59"/>
       </g>
      </g>
      <g clip-path="url(#id28)">
       <path fill="none" d="M30744.71 26331.71c-573.31,388.72 -1238.16,2548.31 -147.61,3469.08l1244.4 -21.34c384.43,-1139.44 -1126,-2312.91 -1096.79,-3447.74z"/>
       <path fill="url(#id29)" d="M31406.68 22811.87c-528.44,2364.11 -835.19,4625.67 15.72,6977.51l3084.32 -85.48c131.94,-2996 -974.57,-5184.66 -3100.04,-6892.03z"/>
      </g>
      <g clip-path="url(#id30)">
       <g>
        <path id="1" fill="none" stroke="white" stroke-width="169.33" stroke-linecap="round" stroke-linejoin="round" stroke-miterlimit="22.9256" d="M33163.78 29175.63c-36.8,-984.13 -554.52,-1968.26 -828.74,-2952.39"/>
       </g>
      </g>
      <g clip-path="url(#id31)">
       <path fill="none" d="M31406.68 22811.87c-528.44,2364.11 -835.19,4625.67 15.72,6977.51l3084.32 -85.48c131.94,-2996 -974.57,-5184.66 -3100.04,-6892.03z"/>
       <path fill="url(#id32)" d="M35943.71 23835.98c-2233.71,2166.24 -2958,4136.9 -2878.59,5909.43l2269.67 -59.98c1230.13,-1719.5 1249.98,-3575.21 608.92,-5849.45z"/>
      </g>
      <g clip-path="url(#id33)">
       <g>
        <path id="1" fill="none" stroke="white" stroke-width="169.33" stroke-linecap="round" stroke-linejoin="round" stroke-miterlimit="22.9256" d="M34410.95 29821.47c26.22,-1091.78 395.1,-2183.54 590.48,-3275.31"/>
       </g>
      </g>
      <g clip-path="url(#id34)">
       <path fill="none" d="M35943.71 23835.98c-2233.71,2166.24 -2958,4136.9 -2878.59,5909.43l2269.67 -59.98c1230.13,-1719.5 1249.98,-3575.21 608.92,-5849.45z"/>
      </g>
      <g>
       <path fill="url(#id35)" d="M36390.99 36550.01c-352.45,238.96 -761.17,1566.58 -90.76,2132.61l765.01 -13.11c236.32,-700.48 -692.21,-1421.87 -674.25,-2119.5z"/>
      </g>
      <g clip-path="url(#id36)">
       <g>
        <path id="1" fill="none" stroke="white" stroke-width="169.33" stroke-linecap="round" stroke-linejoin="round" stroke-miterlimit="22.9256" d="M36330.69 37416.34c16.12,431.06 242.89,862.12 363,1293.19"/>
       </g>
      </g>
      <g clip-path="url(#id37)">
       <path fill="none" d="M36390.99 36550.01c-352.45,238.96 -761.17,1566.58 -90.76,2132.61l765.01 -13.11c236.32,-700.48 -692.21,-1421.87 -674.25,-2119.5z"/>
       <path fill="url(#id38)" d="M36797.93 34386.19c-324.86,1453.33 -513.44,2843.62 9.66,4289.43l1896.09 -52.55c81.12,-1841.8 -599.12,-3187.28 -1905.75,-4236.88z"/>
      </g>
      <g clip-path="url(#id39)">
       <g>
        <path id="1" fill="none" stroke="white" stroke-width="169.33" stroke-linecap="round" stroke-linejoin="round" stroke-miterlimit="22.9256" d="M37878.11 38298.31c-22.63,-605 -340.9,-1209.99 -509.47,-1814.99"/>
       </g>
      </g>
      <g clip-path="url(#id40)">
       <path fill="none" d="M36797.93 34386.19c-324.86,1453.33 -513.44,2843.62 9.66,4289.43l1896.09 -52.55c81.12,-1841.8 -599.12,-3187.28 -1905.75,-4236.88z"/>
       <path fill="url(#id41)" d="M39587.08 35015.75c-1373.18,1331.7 -1818.43,2543.17 -1769.62,3632.83l1395.28 -36.87c756.22,-1057.07 768.42,-2197.87 374.34,-3595.96z"/>
      </g>
      <g clip-path="url(#id42)">
       <g>
        <path id="1" fill="none" stroke="white" stroke-width="169.33" stroke-linecap="round" stroke-linejoin="round" stroke-miterlimit="22.9256" d="M38644.81 38695.34c16.12,-671.17 242.89,-1342.34 363,-2013.51"/>
       </g>
      </g>
      <g clip-path="url(#id43)">
       <path fill="none" d="M39587.08 35015.75c-1373.18,1331.7 -1818.43,2543.17 -1769.62,3632.83l1395.28 -36.87c756.22,-1057.07 768.42,-2197.87 374.34,-3595.96z"/>
      </g>
     </g>
    </g>
    <g clip-path="url(#id44)">
     <path fill="none" d="M14721.81 16983.23l20335.94 0c345.63,0 628.4,282.77 628.4,628.41l0 11202.23c0,345.62 -282.77,628.41 -628.4,628.41l-20335.94 0c-345.63,0 -628.42,-282.79 -628.42,-628.41l0 -11202.23c0,-345.64 282.79,-628.41 628.42,-628.41z"/>
     <path fill="#FED136" d="M26644.66 11188.02c-137.51,145.71 -141.7,360.02 -212.56,540.04 -72.77,-176.18 -41.47,-457.45 -218.31,-528.55l-557.25 -224.04c-27.18,-10.93 325.57,-114.92 488.32,-172.35 190.2,-67.11 208.73,-425.13 298.73,-637.69 76.6,201.07 53.47,463.16 201.08,603.23 147.61,140.06 371.5,95.73 557.25,143.61 -185.76,91.91 -419.76,130.05 -557.26,275.75z"/>
     <path fill="#FED136" d="M28832.09 10849.97c-64.92,68.79 -66.91,169.97 -100.36,254.96 -34.36,-83.18 -19.58,-215.97 -103.07,-249.54l-263.11 -105.79c-12.84,-5.16 153.72,-54.25 230.55,-81.37 89.81,-31.69 98.55,-200.72 141.06,-301.09 36.16,94.94 25.23,218.68 94.94,284.81 69.69,66.14 175.4,45.21 263.11,67.82 -87.71,43.39 -198.2,61.39 -263.12,130.2z"/>
     <path fill="#FED136" d="M27891.51 12462.23c-105.48,111.77 -108.7,276.15 -163.05,414.23 -55.81,-135.14 -31.81,-350.88 -167.45,-405.42l-427.44 -171.86c-20.85,-8.38 249.73,-88.14 374.57,-132.19 145.88,-51.48 160.09,-326.09 229.14,-489.14 58.75,154.23 41,355.26 154.23,462.7 113.23,107.43 284.96,73.44 427.44,110.16 -142.48,70.5 -321.97,99.75 -427.44,211.52z"/>
     <path fill="#606060" d="M11216.63 35205.15c-64.67,161.54 -248.04,240.05 -409.57,175.37 -161.53,-64.67 -240.04,-248.04 -175.37,-409.56 64.67,-161.54 248.03,-240.05 409.57,-175.37 161.53,64.67 240.04,248.04 175.37,409.56z"/>
     <path fill="#606060" d="M8967.17 34820.52c39.5,-98.66 -8.46,-210.66 -107.12,-250.16 -98.66,-39.51 -210.66,8.46 -250.17,107.12 -39.5,98.66 8.46,210.66 107.13,250.17 98.66,39.49 210.66,-8.46 250.16,-107.13z"/>
     <path fill="#606060" d="M7431.19 33275.63c-54.05,134.99 -207.29,200.61 -342.28,146.56 -134.99,-54.05 -200.6,-207.29 -146.55,-342.27 54.05,-135 207.28,-200.61 342.27,-146.56 134.98,54.05 200.61,207.28 146.56,342.27z"/>
     <g>
      <path fill="url(#id45)" d="M8315.36 13917.02c193.32,0 350.04,156.72 350.04,350.04 0,193.33 -156.72,350.05 -350.04,350.05 -193.33,0 -350.05,-156.72 -350.05,-350.05 0,-193.32 156.72,-350.04 350.05,-350.04z"/>
      <path fill="url(#id46)" d="M9609.54 14617.11c-193.32,0 -350.04,-156.72 -350.04,-350.05 0,-193.32 156.72,-350.04 350.04,-350.04 193.32,0 350.04,156.72 350.04,350.04 0,193.33 -156.72,350.05 -350.04,350.05z"/>
      <path fill="url(#id47)" d="M10912.58 13917.02c193.32,0 350.04,156.72 350.04,350.04 0,193.33 -156.72,350.05 -350.04,350.05 -193.33,0 -350.04,-156.72 -350.04,-350.05 0,-193.32 156.71,-350.04 350.04,-350.04z"/>
      <path fill="url(#id48)" d="M12206.76 14617.11c-193.32,0 -350.03,-156.72 -350.03,-350.05 0,-193.32 156.71,-350.04 350.03,-350.04 193.33,0 350.04,156.72 350.04,350.04 0,193.33 -156.71,350.05 -350.04,350.05z"/>
     </g>
     <g>
      <g>
       <circle fill="url(#id49)" cx="10937.92" cy="15286.95" r="262.38"/>
       <circle fill="url(#id50)" cx="11908.01" cy="15286.95" r="262.38"/>
       <circle fill="url(#id51)" cx="12884.74" cy="15286.95" r="262.38"/>
       <circle fill="url(#id52)" cx="13854.84" cy="15286.95" r="262.38"/>
      </g>
      <g>
       <circle fill="url(#id53)" cx="14840.21" cy="15286.95" r="262.38"/>
       <circle fill="url(#id54)" cx="15810.31" cy="15286.95" r="262.38"/>
       <circle fill="url(#id55)" cx="16787.04" cy="15286.95" r="262.38"/>
       <circle fill="url(#id56)" cx="17757.14" cy="15286.95" r="262.38"/>
      </g>
     </g>
     <g>
      <path fill="url(#id57)" d="M16212.2 11957.43l9400.62 0c560.88,0 1019.78,458.9 1019.78,1019.78l0 13403.59c0,560.88 -458.9,1019.77 -1019.78,1019.77l-9400.62 0c-560.89,0 -1019.77,-458.89 -1019.77,-1019.77l0 -13403.59c0,-560.88 458.88,-1019.78 1019.77,-1019.78z"/>
      <g>
       <rect fill="white" stroke="#FED136" stroke-width="20" stroke-miterlimit="22.9256" x="16231.45" y="12908.95" width="9362.13" height="13540.09" rx="516.71" ry="516.71"/>
       <g>
        <path fill="url(#id58)" d="M18110.31 15185.77c522.95,0 946.88,423.93 946.88,946.88 0,522.94 -423.93,946.89 -946.88,946.89 -522.95,0 -946.89,-423.95 -946.89,-946.89 0,-522.95 423.94,-946.88 946.89,-946.88z"/>
       </g>
       <g clip-path="url(#id59)">
        <g>
         <path id="1" fill="white" d="M17537.46 16232.06c-34.17,-118.56 120.38,-186.1 177.4,-128.36 35.34,35.79 126.62,185.75 189.93,278.62 187.83,-230.97 397.81,-516.45 518.1,-649.59 121.62,-134.61 322.03,34.1 249.93,123.65 -106.4,132.14 -527.78,538.26 -669.53,684.77 -75.03,77.55 -142.73,31.47 -194.43,-14.84 -64.68,-57.91 -254.17,-234.49 -271.4,-294.25z"/>
        </g>
       </g>
       <g clip-path="url(#id60)">
        <path fill="none" d="M18110.31 15185.77c522.95,0 946.88,423.93 946.88,946.88 0,522.94 -423.93,946.89 -946.88,946.89 -522.95,0 -946.89,-423.95 -946.89,-946.89 0,-522.95 423.94,-946.88 946.89,-946.88z"/>
        <rect fill="url(#id61)" x="19838.36" y="15460.03" width="4823.26" height="481.22"/>
        <rect fill="url(#id62)" x="19838.36" y="16324.05" width="3653.07" height="481.22"/>
        <path fill="url(#id63)" d="M18110.31 18773.13c522.95,0 946.88,423.93 946.88,946.89 0,522.94 -423.93,946.88 -946.88,946.88 -522.95,0 -946.89,-423.94 -946.89,-946.88 0,-522.96 423.94,-946.89 946.89,-946.89z"/>
       </g>
       <g clip-path="url(#id64)">
        <g>
         <path id="1" fill="white" d="M17537.46 19819.42c-34.17,-118.56 120.38,-186.09 177.4,-128.35 35.34,35.78 126.62,185.74 189.93,278.61 187.83,-230.96 397.81,-516.45 518.1,-649.59 121.62,-134.6 322.03,34.11 249.93,123.66 -106.4,132.14 -527.78,538.26 -669.53,684.76 -75.03,77.55 -142.73,31.47 -194.43,-14.83 -64.68,-57.92 -254.17,-234.49 -271.4,-294.26z"/>
        </g>
       </g>
       <g clip-path="url(#id65)">
        <path fill="none" d="M18110.31 18773.13c522.95,0 946.88,423.93 946.88,946.89 0,522.94 -423.93,946.88 -946.88,946.88 -522.95,0 -946.89,-423.94 -946.89,-946.88 0,-522.96 423.94,-946.89 946.89,-946.89z"/>
        <rect fill="url(#id66)" x="19838.36" y="19047.39" width="4823.26" height="481.22"/>
        <rect fill="url(#id67)" x="19838.36" y="19911.42" width="2789.03" height="481.22"/>
        <path fill="url(#id68)" d="M18110.31 22278.48c522.95,0 946.88,423.93 946.88,946.89 0,522.94 -423.93,946.88 -946.88,946.88 -522.95,0 -946.89,-423.94 -946.89,-946.88 0,-522.96 423.94,-946.89 946.89,-946.89z"/>
       </g>
       <g clip-path="url(#id69)">
        <g>
         <path id="1" fill="white" d="M17537.46 23324.77c-34.17,-118.56 120.38,-186.09 177.4,-128.35 35.34,35.78 126.62,185.75 189.93,278.62 187.83,-230.97 397.81,-516.46 518.1,-649.59 121.62,-134.61 322.03,34.1 249.93,123.65 -106.4,132.14 -527.78,538.26 -669.53,684.76 -75.03,77.55 -142.73,31.47 -194.43,-14.83 -64.68,-57.91 -254.17,-234.49 -271.4,-294.26z"/>
        </g>
       </g>
       <g clip-path="url(#id70)">
        <path fill="none" d="M18110.31 22278.48c522.95,0 946.88,423.93 946.88,946.89 0,522.94 -423.93,946.88 -946.88,946.88 -522.95,0 -946.89,-423.94 -946.89,-946.88 0,-522.96 423.94,-946.89 946.89,-946.89z"/>
        <rect fill="url(#id71)" x="19838.36" y="22552.74" width="4823.26" height="481.22"/>
        <polygon fill="url(#id72)" points="19838.36,23416.77 22693.01,23416.77 22693.01,23897.99 19838.36,23897.99 "/>
       </g>
      </g>
      <path fill="url(#id73)" d="M17957.26 11443.39l1536.79 0c50.67,-769.53 690.8,-1378.06 1473.16,-1378.06 782.35,0 1422.48,608.53 1473.15,1378.06l1591.45 0c227.36,0 413.37,186.02 413.37,413.37l0 1174.74c0,227.36 -186.01,413.37 -413.37,413.37l-6074.55 0c-227.36,0 -413.37,-186.01 -413.37,-413.37l0 -1174.74c0,-227.35 186.01,-413.37 413.37,-413.37zm2990.79 4.1l-708.19 0c0,-391.12 317.07,-708.18 708.19,-708.18 391.12,0 708.18,317.06 708.18,708.18l-708.18 0z"/>
      <rect fill="white" x="18068.87" y="12449.6" width="5763.84" height="207.8" rx="413.37" ry="413.37"/>
     </g>
     <g>
      <circle fill="url(#id74)" cx="35817.91" cy="35519.66" r="262.38"/>
      <circle fill="url(#id75)" cx="34847.82" cy="35519.66" r="262.38"/>
      <circle fill="url(#id76)" cx="33871.08" cy="35519.66" r="262.38"/>
      <circle fill="url(#id77)" cx="32900.99" cy="35519.66" r="262.38"/>
     </g>
     <g>
      <path fill="url(#id78)" d="M38799.86 34172.5c-193.32,0 -350.04,156.72 -350.04,350.05 0,193.32 156.72,350.04 350.04,350.04 193.32,0 350.04,-156.72 350.04,-350.04 0,-193.33 -156.72,-350.05 -350.04,-350.05z"/>
      <path fill="url(#id79)" d="M37505.67 34872.59c193.32,0 350.04,-156.72 350.04,-350.04 0,-193.33 -156.72,-350.05 -350.04,-350.05 -193.32,0 -350.04,156.72 -350.04,350.05 0,193.32 156.72,350.04 350.04,350.04z"/>
      <path fill="url(#id80)" d="M36202.64 34172.5c-193.33,0 -350.04,156.72 -350.04,350.05 0,193.32 156.71,350.04 350.04,350.04 193.32,0 350.03,-156.72 350.03,-350.04 0,-193.33 -156.71,-350.05 -350.03,-350.05z"/>
      <path fill="url(#id81)" d="M34908.45 34872.59c193.32,0 350.03,-156.72 350.03,-350.04 0,-193.33 -156.71,-350.05 -350.03,-350.05 -193.32,0 -350.04,156.72 -350.04,350.05 0,193.32 156.72,350.04 350.04,350.04z"/>
     </g>
     <g>
     </g>
    
     <g clip-path="url(#id83)">
     </g>
     <path fill="white" fill-rule="nonzero" d="M28289.71 21218.38c0,-1344.42 0,-2688.83 0,-4033.24 0,-742.3 602.12,-1344.41 1344.42,-1344.41 2302.99,0 4605.97,0 6908.97,0 742.3,0 1344.41,602.11 1344.41,1344.41 0,1344.41 0,2688.82 0,4033.24 0,742.29 -602.11,1344.41 -1344.41,1344.41 -191.72,0 -383.43,0 -575.15,0 -34.44,358.68 -68.85,717.35 -103.28,1076.03 -685.41,-358.68 -1370.81,-717.35 -2056.23,-1076.03 -1391.43,0 -2782.88,0 -4174.31,0 -742.3,0 -1344.42,-602.12 -1344.42,-1344.41z"/>
    </g>
    <g clip-path="url(#id84)">
     <g>
      <path id="1" fill="url(#id85)" d="M35908.77 21521.72c-173.21,187.41 -231.21,1017.88 237.07,1257.08l444.71 -111.69c42.68,-440.98 -597.39,-735.75 -681.78,-1145.39z"/>
     </g>
     <g clip-path="url(#id86)">
      <g>
       <path id="2" fill="none" stroke="white" stroke-width="84.67" stroke-linecap="round" stroke-linejoin="round" stroke-miterlimit="22.9256" d="M35991.4 22035.57c68.03,249.41 259.01,470.16 387.74,705.42"/>
      </g>
     </g>
     <g clip-path="url(#id87)">
      <path fill="none" d="M35908.77 21521.72c-173.21,187.41 -231.21,1017.88 237.07,1257.08l444.71 -111.69c42.68,-440.98 -597.39,-735.75 -681.78,-1145.39z"/>
      <path fill="url(#id88)" d="M35852.02 20203.43c8.04,892.44 87.05,1729.56 588.99,2502.28l1099.54 -288.53c-203.14,-1086.03 -783.15,-1778.83 -1688.53,-2213.75z"/>
     </g>
     <g clip-path="url(#id89)">
      <g>
       <path id="1" fill="none" stroke="white" stroke-width="84.67" stroke-linecap="round" stroke-linejoin="round" stroke-miterlimit="22.9256" d="M37014.52 22339.9c-95.48,-350.04 -363.52,-659.87 -544.19,-990.06"/>
      </g>
     </g>
     <g clip-path="url(#id90)">
      <path fill="none" d="M35852.02 20203.43c8.04,892.44 87.05,1729.56 588.99,2502.28l1099.54 -288.53c-203.14,-1086.03 -783.15,-1778.83 -1688.53,-2213.75z"/>
      <path fill="url(#id91)" d="M37565.57 20191.57c-620.38,964.02 -715.49,1731.66 -538.81,2361.02l809.36 -211.28c297.62,-719.82 149.6,-1387.31 -270.55,-2149.74z"/>
     </g>
     <g clip-path="url(#id92)">
      <g>
       <path id="1" fill="none" stroke="white" stroke-width="84.67" stroke-linecap="round" stroke-linejoin="round" stroke-miterlimit="22.9256" d="M37516.01 22467.36c-81.87,-393.93 -40.79,-816.5 -61.96,-1224.58"/>
      </g>
     </g>
     <g clip-path="url(#id93)">
      <path fill="none" d="M37565.57 20191.57c-620.38,964.02 -715.49,1731.66 -538.81,2361.02l809.36 -211.28c297.62,-719.82 149.6,-1387.31 -270.55,-2149.74z"/>
     </g>
    </g>
    <g clip-path="url(#id94)">
     <path fill="none" fill-rule="nonzero" stroke="#FED136" stroke-width="20" stroke-miterlimit="22.9256" d="M28289.71 21218.38c0,-1344.42 0,-2688.83 0,-4033.24 0,-742.3 602.12,-1344.41 1344.42,-1344.41 2302.99,0 4605.97,0 6908.97,0 742.3,0 1344.41,602.11 1344.41,1344.41 0,1344.41 0,2688.82 0,4033.24 0,742.29 -602.11,1344.41 -1344.41,1344.41 -191.72,0 -383.43,0 -575.15,0 -34.44,358.68 -68.85,717.35 -103.28,1076.03 -685.41,-358.68 -1370.81,-717.35 -2056.23,-1076.03 -1391.43,0 -2782.88,0 -4174.31,0 -742.3,0 -1344.42,-602.12 -1344.42,-1344.41z"/>
     <path fill="url(#id95)" d="M30424.14 17912.12c779.12,0 1410.72,631.61 1410.72,1410.73 0,779.11 -631.6,1410.73 -1410.72,1410.73 -779.11,0 -1410.73,-631.62 -1410.73,-1410.73 0,-779.12 631.62,-1410.73 1410.73,-1410.73z"/>
    </g>
    <g clip-path="url(#id96)">
     <g>
      <circle fill="white" cx="30434.16" cy="18963.84" r="528.4"/>
      <rect fill="white" x="29487.02" y="19661.72" width="1804.53" height="1545.32" rx="942.03" ry="942.03"/>
     </g>
    </g>
    <g clip-path="url(#id97)">
     <path fill="none" d="M30424.14 17912.12c779.12,0 1410.72,631.61 1410.72,1410.73 0,779.11 -631.6,1410.73 -1410.72,1410.73 -779.11,0 -1410.73,-631.62 -1410.73,-1410.73 0,-779.12 631.62,-1410.73 1410.73,-1410.73z"/>
     <path fill="url(#id98)" d="M32834.16 17772.51c-37.21,0 -67.16,202.71 -151.94,261.68 -84.78,58.97 -302.39,27.4 -311.26,60.5 -8.85,33.09 179.63,136.7 211.37,236.35 31.73,99.66 -57.63,296.78 -37.98,308.12 19.64,11.34 182.08,-127.65 287,-129.44 104.93,-1.79 270.89,131.33 291.23,119.59 20.34,-11.74 -63.43,-199.24 -32.36,-294.05 31.09,-94.8 211.27,-199.41 202.59,-225.1 -8.68,-25.68 -224.26,-22.31 -306.69,-83.01 -82.45,-60.69 -114.73,-254.64 -151.96,-254.64z"/>
     <path fill="url(#id99)" d="M34040.95 17772.51c37.23,0 67.17,202.71 151.95,261.68 84.78,58.97 302.39,27.4 311.25,60.5 8.86,33.09 -179.63,136.7 -211.36,236.35 -31.74,99.66 57.62,296.78 37.98,308.12 -19.65,11.34 -182.07,-127.65 -287.01,-129.44 -104.92,-1.79 -270.89,131.33 -291.22,119.59 -20.34,-11.74 63.43,-199.24 32.35,-294.05 -31.07,-94.8 -211.26,-199.41 -202.58,-225.1 8.68,-25.68 224.25,-22.31 306.69,-83.01 82.45,-60.69 114.73,-254.64 151.95,-254.64z"/>
     <path fill="url(#id100)" d="M35291.73 17772.51c-37.22,0 -67.17,202.71 -151.95,261.68 -84.78,58.97 -302.39,27.4 -311.24,60.5 -8.87,33.09 179.61,136.7 211.35,236.35 31.74,99.66 -57.62,296.78 -37.98,308.12 19.65,11.34 182.08,-127.65 287.01,-129.44 104.92,-1.79 270.89,131.33 291.22,119.59 20.35,-11.74 -63.43,-199.24 -32.35,-294.05 31.08,-94.8 211.26,-199.41 202.58,-225.1 -8.68,-25.68 -224.25,-22.31 -306.69,-83.01 -82.44,-60.69 -114.73,-254.64 -151.95,-254.64z"/>
     <path fill="url(#id101)" d="M36468.18 17772.51c-37.23,0 -67.18,202.71 -151.96,261.68 -84.77,58.97 -302.38,27.4 -311.25,60.5 -8.86,33.09 179.63,136.7 211.36,236.35 31.74,99.66 -57.62,296.78 -37.98,308.12 19.65,11.34 182.08,-127.65 287,-129.44 104.94,-1.79 270.9,131.33 291.24,119.59 20.34,-11.74 -63.44,-199.24 -32.35,-294.05 31.07,-94.8 211.25,-199.41 202.58,-225.1 -8.68,-25.68 -224.25,-22.31 -306.7,-83.01 -82.44,-60.69 -114.72,-254.64 -151.94,-254.64z"/>
     <rect fill="url(#id102)" x="32398.22" y="19223.05" width="4765.57" height="289.13"/>
     <polygon fill="url(#id103)" points="32398.22,19771.38 35330.78,19771.38 35330.78,20060.51 32398.22,20060.51 "/>
     <rect fill="url(#id104)" x="32398.22" y="20230" width="2134.38" height="289.13"/>
     <g>
      <path fill="#606060" d="M35093.6 14391.58c107.99,-136.43 306.12,-159.49 442.55,-51.5 136.43,107.99 159.49,306.12 51.51,442.55 -108,136.43 -306.12,159.49 -442.56,51.5 -136.43,-107.99 -159.48,-306.12 -51.5,-442.55z"/>
      <path fill="#606060" d="M37140.45 15400.75c-65.95,83.32 -51.87,204.35 31.47,270.3 83.32,65.97 204.35,51.88 270.3,-31.46 65.96,-83.32 51.88,-204.34 -31.46,-270.31 -83.32,-65.95 -204.35,-51.87 -270.31,31.47z"/>
      <path fill="#606060" d="M38173.01 17319.02c90.24,-114.02 255.82,-133.28 369.84,-43.04 114.01,90.25 133.28,255.82 43.04,369.83 -90.25,114.02 -255.83,133.29 -369.84,43.04 -114.01,-90.24 -133.28,-255.81 -43.04,-369.83z"/>
     </g>
     <g>
      <path fill="url(#id105)" d="M15448.43 27360.58c60.15,496.81 -407.55,998.61 -622.21,848.1 -214.66,-150.52 69.05,-387.75 257.8,-531.14 188.75,-143.38 271.39,-199.97 364.41,-316.96z"/>
      <path fill="url(#id106)" d="M15202.23 27108.73c-239.87,296.89 -762.94,307.6 -794.64,110.18 -31.7,-197.43 248.85,-168.24 427.59,-141.15 178.74,27.1 253.6,42.25 367.05,30.97z"/>
     </g>
     <path fill="#FED136" d="M28557.7 22901.92c93.26,-98.83 96.1,-244.17 144.15,-366.25 49.36,119.49 28.13,310.23 148.06,358.45l377.94 151.96c18.43,7.41 -220.81,77.93 -331.19,116.88 -128.99,45.51 -141.54,288.32 -202.59,432.49 -51.95,-136.37 -36.26,-314.12 -136.37,-409.12 -100.12,-94.99 -251.96,-64.93 -377.94,-97.4 125.98,-62.33 284.69,-88.19 377.94,-187.01z"/>
     <path fill="#FED136" d="M27074.17 23131.19c44.03,-46.66 45.38,-115.28 68.07,-172.92 23.3,56.41 13.28,146.48 69.9,169.24l178.44 71.75c8.71,3.5 -104.25,36.79 -156.36,55.19 -60.9,21.48 -66.83,136.13 -95.66,204.19 -24.53,-64.38 -17.12,-148.3 -64.39,-193.16 -47.27,-44.85 -118.96,-30.66 -178.44,-45.98 59.48,-29.43 134.42,-41.65 178.44,-88.31z"/>
     <path fill="#FED136" d="M27712.08 22037.75c71.54,-75.81 73.72,-187.29 110.58,-280.94 37.85,91.65 21.58,237.97 113.56,274.95l289.9 116.56c14.13,5.69 -169.37,59.79 -254.03,89.65 -98.95,34.92 -108.58,221.17 -155.4,331.74 -39.85,-104.59 -27.82,-240.93 -104.61,-313.8 -76.79,-72.86 -193.27,-49.81 -289.89,-74.71 96.63,-47.82 218.36,-67.65 289.89,-143.45z"/>
    </g>
   </g>
  </g>
  <polygon fill="none" points="-2.07,2.07 49997.93,2.07 49997.93,50002.07 -2.07,50002.07 "/>
 </g>
</svg>
