<?xml version="1.0" encoding="UTF-8"?>
<!DOCTYPE svg PUBLIC "-//W3C//DTD SVG 1.1//EN" "http://www.w3.org/Graphics/SVG/1.1/DTD/svg11.dtd">
<!-- Creator: CorelDRAW 2019 (64-Bit) -->
<svg xmlns="http://www.w3.org/2000/svg" xml:space="preserve" width="500mm" height="500mm" version="1.1" shape-rendering="geometricPrecision" text-rendering="geometricPrecision" image-rendering="optimizeQuality" fill-rule="evenodd" clip-rule="evenodd"
viewBox="0 0 50000 50000"
 xmlns:xlink="http://www.w3.org/1999/xlink">
 <defs>
   <clipPath id="id0">
    <path d="M-2.07 2.07l50000 0 0 50000 -50000 0 0 -50000z"/>
   </clipPath>
      <linearGradient id="id1" gradientUnits="userSpaceOnUse" x1="10717.25" y1="37913.48" x2="13924.76" y2="37913.48">
       <stop offset="0" stop-opacity="1" stop-color="#FF9F43"/>
       <stop offset="1" stop-opacity="1" stop-color="#FED136"/>
      </linearGradient>
      <linearGradient id="id2" gradientUnits="userSpaceOnUse" x1="25479.58" y1="39053.51" x2="22774.45" y2="39053.51">
       <stop offset="0" stop-opacity="1" stop-color="#FF9F43"/>
       <stop offset="1" stop-opacity="1" stop-color="#FED136"/>
      </linearGradient>
      <linearGradient id="id3" gradientUnits="userSpaceOnUse" x1="28957.64" y1="39401.32" x2="33401.77" y2="39401.32">
       <stop offset="0" stop-opacity="1" stop-color="#FF9F43"/>
       <stop offset="1" stop-opacity="1" stop-color="#FED136"/>
      </linearGradient>
      <linearGradient id="id4" gradientUnits="userSpaceOnUse" x1="16552.62" y1="35961.91" x2="19257.75" y2="35961.91">
       <stop offset="0" stop-opacity="1" stop-color="#FF9F43"/>
       <stop offset="1" stop-opacity="1" stop-color="#FED136"/>
      </linearGradient>
      <linearGradient id="id5" gradientUnits="userSpaceOnUse" x1="33265.81" y1="35380.87" x2="29873.46" y2="35380.87">
       <stop offset="0" stop-opacity="1" stop-color="#FF9F43"/>
       <stop offset="1" stop-opacity="1" stop-color="#FED136"/>
      </linearGradient>
      <linearGradient id="id6" gradientUnits="userSpaceOnUse" x1="25145.76" y1="7363.54" x2="24172.01" y2="9855.87">
       <stop offset="0" stop-opacity="1" stop-color="#F77C50"/>
       <stop offset="0.490196" stop-opacity="1" stop-color="#FF9F43"/>
       <stop offset="1" stop-opacity="1" stop-color="#FED136"/>
      </linearGradient>
        <linearGradient id="id7" gradientUnits="userSpaceOnUse" x1="12309.95" y1="20296.91" x2="35884.31" y2="20296.91">
         <stop offset="0" stop-opacity="1" stop-color="#FED136"/>
         <stop offset="1" stop-opacity="1" stop-color="#E6E6E6"/>
        </linearGradient>
        <linearGradient id="id8" gradientUnits="userSpaceOnUse" x1="16093.22" y1="20296.91" x2="32101.04" y2="20296.91">
         <stop offset="0" stop-opacity="1" stop-color="#FED136"/>
         <stop offset="1" stop-opacity="1" stop-color="#E6E6E6"/>
        </linearGradient>
        <linearGradient id="id9" gradientUnits="userSpaceOnUse" x1="19214.45" y1="20296.91" x2="28979.81" y2="20296.91">
         <stop offset="0" stop-opacity="1" stop-color="#FED136"/>
         <stop offset="1" stop-opacity="1" stop-color="#E6E6E6"/>
        </linearGradient>
        <linearGradient id="id10" gradientUnits="userSpaceOnUse" x1="21673.46" y1="20296.91" x2="26520.8" y2="20296.91">
         <stop offset="0" stop-opacity="1" stop-color="#FED136"/>
         <stop offset="1" stop-opacity="1" stop-color="#E6E6E6"/>
        </linearGradient>
       <linearGradient id="id11" gradientUnits="userSpaceOnUse" x1="23808.83" y1="29132.22" x2="24398.82" y2="29132.22">
        <stop offset="0" stop-opacity="1" stop-color="#FF9F43"/>
        <stop offset="1" stop-opacity="1" stop-color="#FED136"/>
       </linearGradient>
       <linearGradient id="id12" gradientUnits="userSpaceOnUse" x1="23462.61" y1="20296.91" x2="24731.64" y2="20296.91">
        <stop offset="0" stop-opacity="1" stop-color="#FF9F43"/>
        <stop offset="1" stop-opacity="1" stop-color="#FED136"/>
       </linearGradient>
 </defs>
 <g id="Layer_x0020_1">
  <metadata id="CorelCorpID_0Corel-Layer"/>
  <g>
  </g>
  <g clip-path="url(#id0)">
   <g>
    <g id="_1677288392688">
     <g>
     </g>
     <g>
      <path fill="#606060" fill-rule="nonzero" d="M16817.72 30947.83c-14.87,-11.33 -17.75,-32.59 -6.42,-47.46 11.33,-14.87 32.59,-17.75 47.46,-6.42l-41.04 53.88zm656.85 200.09l2.66 67.68 0 0 -45.97 1.56 -42.58 0.91 -39.36 0.26 -36.36 -0.38 -33.54 -1.04 -30.92 -1.7 -28.5 -2.37 -26.29 -3.06 -24.27 -3.76 -22.42 -4.49 -20.77 -5.24 -19.27 -6.02 -17.92 -6.82 -16.65 -7.6 -15.5 -8.37 -14.44 -9.08 -13.51 -9.74 -12.66 -10.28 -12.01 -10.76 -11.53 -11.2 -11.24 -11.58 -11.15 -11.95 -11.29 -12.34 -11.63 -12.74 -12.17 -13.16 -12.92 -13.64 -13.88 -14.13 -15.04 -14.67 -16.39 -15.21 -17.96 -15.79 -19.69 -16.38 -21.68 -17 41.04 -53.88 23.16 18.16 21.17 17.6 19.34 17.01 17.67 16.41 16.16 15.75 14.82 15.09 13.64 14.38 12.61 13.64 11.75 12.88 11.03 12.06 10.49 11.23 10.08 10.4 9.83 9.54 9.77 8.76 9.86 8.02 10.17 7.34 10.72 6.74 11.52 6.23 12.59 5.76 13.92 5.3 15.51 4.84 17.31 4.36 19.34 3.87 21.53 3.34 23.91 2.78 26.46 2.19 29.18 1.62 32.04 0.98 35.08 0.38 38.28 -0.26 41.66 -0.89 45.21 -1.54 0 0zm711.84 394.48l-66.78 11.32 0 0 -4.55 -21.33 -6.26 -20.55 -7.87 -19.83 -9.47 -19.16 -11 -18.5 -12.48 -17.87 -13.93 -17.25 -15.3 -16.63 -16.59 -15.96 -17.85 -15.32 -19 -14.65 -20.09 -13.97 -21.07 -13.27 -21.98 -12.57 -22.8 -11.84 -23.53 -11.12 -24.17 -10.4 -24.7 -9.67 -25.14 -8.93 -25.5 -8.19 -25.76 -7.44 -25.94 -6.71 -26 -5.98 -25.97 -5.23 -25.86 -4.49 -25.64 -3.77 -25.33 -3.04 -24.94 -2.31 -24.42 -1.6 -23.81 -0.88 -23.12 -0.18 -22.33 0.52 -2.66 -67.68 24.47 -0.56 25.16 0.18 25.77 0.96 26.3 1.72 26.74 2.49 27.13 3.24 27.42 4.03 27.62 4.81 27.75 5.59 27.8 6.38 27.74 7.19 27.64 7.98 27.42 8.81 27.14 9.63 26.76 10.47 26.29 11.32 25.75 12.18 25.14 13.06 24.42 13.95 23.61 14.87 22.71 15.81 21.72 16.75 20.65 17.72 19.47 18.74 18.18 19.75 16.77 20.79 15.26 21.85 13.6 22.9 11.83 23.96 9.93 24.99 7.9 25.99 5.75 26.93 0 0zm752.47 321.52l-8.26 67.22 -0.01 0 -30.38 -3.47 -30.78 -3.04 -31.12 -2.71 -31.39 -2.46 -31.59 -2.3 -31.72 -2.24 -31.75 -2.27 -31.73 -2.37 -31.63 -2.59 -31.47 -2.9 -31.24 -3.29 -30.94 -3.8 -30.58 -4.4 -30.15 -5.1 -29.66 -5.91 -29.1 -6.82 -28.48 -7.87 -27.77 -9 -27.02 -10.27 -26.17 -11.65 -25.22 -13.18 -24.17 -14.8 -23.01 -16.55 -21.73 -18.4 -20.29 -20.33 -18.71 -22.31 -17.01 -24.34 -15.2 -26.41 -13.28 -28.48 -11.29 -30.58 -9.24 -32.7 -7.16 -34.88 66.78 -11.32 6.2 30.24 7.84 27.78 9.41 25.46 10.86 23.3 12.26 21.29 13.61 19.46 14.91 17.77 16.21 16.25 17.51 14.82 18.79 13.51 20.07 12.28 21.32 11.12 22.51 10.03 23.68 8.99 24.75 8.02 25.78 7.11 26.7 6.26 27.58 5.49 28.35 4.8 29.06 4.18 29.68 3.64 30.22 3.19 30.67 2.82 31.07 2.55 31.37 2.35 31.61 2.25 31.76 2.24 31.85 2.32 31.87 2.5 31.82 2.77 31.68 3.14 31.48 3.59 -0.01 0zm486.5 264.96l-57.16 36.34 0 0 -10.78 -16.51 -10.79 -15.6 -10.79 -14.72 -10.82 -13.86 -10.84 -13.04 -10.9 -12.26 -10.97 -11.51 -11.04 -10.8 -11.15 -10.11 -11.27 -9.48 -11.41 -8.85 -11.58 -8.29 -11.77 -7.75 -12.01 -7.26 -12.24 -6.77 -12.54 -6.34 -12.82 -5.92 -13.17 -5.52 -13.52 -5.17 -13.91 -4.83 -14.32 -4.51 -14.72 -4.22 -15.19 -3.93 -15.63 -3.69 -16.11 -3.45 -16.6 -3.25 -17.11 -3.06 -17.63 -2.9 -18.17 -2.76 -18.71 -2.66 -19.27 -2.56 -19.82 -2.5 8.26 -67.22 20.26 2.54 19.79 2.64 19.33 2.74 18.91 2.88 18.51 3.04 18.11 3.24 17.74 3.47 17.39 3.73 17.03 4.03 16.71 4.33 16.42 4.7 16.1 5.07 15.81 5.49 15.54 5.93 15.27 6.42 15 6.92 14.74 7.46 14.48 8.01 14.23 8.6 13.97 9.19 13.74 9.83 13.49 10.49 13.25 11.14 13.03 11.81 12.82 12.52 12.59 13.23 12.42 13.96 12.24 14.72 12.08 15.5 11.95 16.28 11.83 17.1 11.72 17.95 0 0zm248.4 466.1l-67.52 -5.36 2.59 15.84 -1.43 -2.87 -2.8 -5.41 -3.94 -7.51 -4.93 -9.33 -5.86 -11 -6.71 -12.54 -7.45 -13.9 -8.14 -15.13 -8.75 -16.23 -9.26 -17.18 -9.73 -17.98 -10.1 -18.65 -10.4 -19.18 -10.62 -19.55 -10.78 -19.8 -10.84 -19.91 -10.84 -19.87 -10.77 -19.68 -10.61 -19.39 -10.36 -18.91 -10.08 -18.31 -9.68 -17.58 -9.22 -16.69 -8.68 -15.66 -8.07 -14.5 -7.37 -13.18 -6.61 -11.72 -5.74 -10.1 -4.79 -8.32 -3.69 -6.29 -2.38 -3.87 57.16 -36.34 3.34 5.45 4.13 7.03 5.03 8.72 5.9 10.38 6.71 11.92 7.45 13.32 8.13 14.6 8.74 15.76 9.26 16.77 9.72 17.64 10.1 18.37 10.4 18.97 10.63 19.41 10.79 19.74 10.86 19.91 10.86 19.93 10.8 19.84 10.64 19.61 10.42 19.2 10.12 18.69 9.75 18.02 9.3 17.22 8.77 16.27 8.18 15.21 7.49 13.98 6.73 12.6 5.94 11.14 5.03 9.51 4.08 7.77 3.1 6.01 2.19 4.41 3.81 18.7zm0 0c-1.48,18.64 -17.8,32.56 -36.44,31.08 -18.64,-1.48 -32.56,-17.8 -31.08,-36.44l67.52 5.36z"/>
     </g>
     <g>
      <path fill="#606060" fill-rule="nonzero" d="M17491.31 30468.38c4.48,-18.15 22.85,-29.24 41,-24.76 18.15,4.48 29.24,22.85 24.76,41l-65.76 -16.24zm140.27 557.4l-35.92 57.42 0 0 -20.26 -13.67 -18.68 -14.66 -17.11 -15.57 -15.56 -16.42 -14.02 -17.2 -12.53 -17.89 -11.07 -18.51 -9.67 -19.04 -8.32 -19.51 -7.05 -19.9 -5.83 -20.21 -4.71 -20.49 -3.64 -20.7 -2.66 -20.86 -1.75 -20.99 -0.9 -21.09 -0.11 -21.12 0.59 -21.14 1.23 -21.1 1.82 -21.04 2.34 -20.94 2.81 -20.81 3.19 -20.63 3.56 -20.43 3.84 -20.15 4.06 -19.9 4.25 -19.54 4.36 -19.19 4.42 -18.75 4.42 -18.3 4.37 -17.81 4.26 -17.26 65.76 16.24 -4.26 17.22 -4.33 17.63 -4.34 18 -4.32 18.31 -4.22 18.59 -4.09 18.84 -3.9 19.02 -3.64 19.19 -3.36 19.29 -3.01 19.35 -2.61 19.37 -2.16 19.34 -1.66 19.26 -1.13 19.14 -0.53 18.96 0.11 18.74 0.78 18.47 1.51 18.15 2.26 17.8 3.06 17.4 3.89 16.95 4.77 16.49 5.65 16 6.6 15.47 7.59 14.94 8.61 14.41 9.71 13.87 10.86 13.32 12.1 12.78 13.41 12.21 14.82 11.62 16.34 11.03 0 0zm61.74 184.97l-67.74 0 -0.03 -3.58 -0.11 -3.95 -0.18 -4.21 -0.27 -4.48 -0.34 -4.69 -0.43 -4.86 -0.51 -5.09 -0.57 -5.17 -0.68 -5.28 -0.75 -5.4 -0.83 -5.42 -0.91 -5.43 -1 -5.46 -1.07 -5.47 -1.15 -5.36 -1.22 -5.29 -1.3 -5.17 -1.38 -5.08 -1.42 -4.87 -1.49 -4.68 -1.55 -4.47 -1.57 -4.18 -1.6 -3.88 -1.62 -3.58 -1.6 -3.21 -1.53 -2.75 -1.44 -2.31 -1.31 -1.85 -1.07 -1.33 -0.78 -0.83 -0.33 -0.3 0.12 0.08 35.92 -57.42 5.98 4.22 5.31 4.66 4.66 4.89 4.17 5.11 3.73 5.27 3.4 5.43 3.09 5.57 2.84 5.67 2.62 5.78 2.46 5.94 2.27 6.04 2.11 6.11 1.99 6.24 1.84 6.29 1.72 6.34 1.6 6.41 1.5 6.45 1.37 6.46 1.27 6.41 1.18 6.42 1.07 6.41 0.97 6.34 0.87 6.24 0.78 6.18 0.69 6.07 0.59 5.89 0.51 5.82 0.4 5.63 0.33 5.46 0.22 5.27 0.15 5.05 0.05 4.9zm0 0c0,18.7 -15.17,33.87 -33.87,33.87 -18.7,0 -33.87,-15.17 -33.87,-33.87l67.74 0z"/>
     </g>
     <g>
      <path fill="#606060" fill-rule="nonzero" d="M17886.43 30437.85c0,-18.7 15.17,-33.87 33.87,-33.87 18.7,0 33.87,15.17 33.87,33.87l-67.74 0zm75.29 633.84l-56.9 36.74 0 0 -14.49 -23.59 -12.83 -23.27 -11.19 -22.95 -9.65 -22.65 -8.14 -22.38 -6.71 -22.1 -5.37 -21.83 -4.08 -21.58 -2.88 -21.3 -1.77 -21.06 -0.75 -20.8 0.17 -20.56 1 -20.34 1.74 -20.12 2.37 -19.94 2.91 -19.81 3.36 -19.69 3.72 -19.6 3.99 -19.55 4.17 -19.56 4.28 -19.58 4.29 -19.65 4.24 -19.75 4.1 -19.89 3.89 -20.07 3.61 -20.3 3.25 -20.56 2.83 -20.85 2.32 -21.2 1.75 -21.57 1.1 -21.99 0.38 -22.49 67.74 0 -0.42 24.75 -1.22 24.15 -1.91 23.57 -2.52 23 -3.03 22.45 -3.47 21.94 -3.81 21.46 -4.07 20.99 -4.24 20.55 -4.32 20.15 -4.33 19.77 -4.24 19.42 -4.07 19.08 -3.83 18.81 -3.52 18.54 -3.12 18.29 -2.67 18.11 -2.13 17.94 -1.54 17.8 -0.88 17.7 -0.15 17.66 0.63 17.68 1.49 17.72 2.42 17.86 3.4 18.02 4.49 18.27 5.65 18.6 6.9 18.94 8.25 19.39 9.69 19.87 11.23 20.39 12.89 20.97 0 0zm65.2 274.91l-53.84 -41.08 6.35 -8.66 5.36 -8.01 4.44 -7.37 3.56 -6.73 2.76 -6.09 2.02 -5.46 1.38 -4.83 0.84 -4.33 0.4 -3.92 0.03 -3.56 -0.3 -3.44 -0.62 -3.41 -0.97 -3.54 -1.39 -3.79 -1.8 -4.04 -2.3 -4.35 -2.8 -4.69 -3.31 -5 -3.77 -5.27 -4.26 -5.6 -4.7 -5.92 -5.1 -6.21 -5.47 -6.55 -5.78 -6.88 -6.06 -7.22 -6.31 -7.6 -6.5 -7.99 -6.66 -8.4 -6.76 -8.84 -6.85 -9.31 -6.86 -9.8 -6.83 -10.28 56.9 -36.74 5.89 8.86 5.94 8.48 5.99 8.15 6.02 7.86 6.04 7.62 6 7.39 5.99 7.2 5.92 7.06 5.84 6.94 5.73 6.87 5.62 6.85 5.46 6.88 5.3 6.96 5.09 7.13 4.81 7.3 4.52 7.55 4.16 7.91 3.7 8.28 3.13 8.67 2.49 9.1 1.7 9.47 0.84 9.76 -0.09 9.98 -1.04 10.06 -1.96 10.13 -2.88 10.17 -3.76 10.14 -4.58 10.15 -5.42 10.25 -6.24 10.37 -7.08 10.57 -7.93 10.8zm0 0c-11.34,14.86 -32.6,17.72 -47.46,6.38 -14.86,-11.34 -17.72,-32.6 -6.38,-47.46l53.84 41.08z"/>
     </g>
     <g>
      <path fill="#606060" fill-rule="nonzero" d="M16547.99 31648.83c-17.85,-5.56 -27.81,-24.56 -22.25,-42.41 5.56,-17.85 24.56,-27.81 42.41,-22.25l-20.16 64.66zm606.02 23.72l-34.16 58.48 -0.01 0 -39.57 -22.54 -36.86 -19.8 -34.28 -17.25 -31.78 -14.81 -29.38 -12.52 -27.12 -10.37 -24.93 -8.38 -22.86 -6.55 -20.91 -4.87 -19.05 -3.35 -17.35 -2.01 -15.8 -0.81 -14.41 0.2 -13.21 1.09 -12.2 1.82 -11.4 2.47 -10.79 3.02 -10.37 3.49 -10.15 3.9 -10.08 4.23 -10.16 4.47 -10.41 4.6 -10.78 4.58 -11.3 4.42 -11.97 4.04 -12.72 3.43 -13.53 2.57 -14.32 1.46 -15.07 0.12 -15.71 -1.35 -16.37 -2.93 -17.01 -4.57 20.16 -64.66 11.73 3.15 10.47 1.87 9.45 0.81 8.69 -0.08 8.24 -0.84 8.09 -1.55 8.2 -2.23 8.47 -2.88 8.9 -3.48 9.42 -4.02 10.05 -4.44 10.76 -4.73 11.58 -4.85 12.45 -4.78 13.43 -4.51 14.43 -4.02 15.52 -3.35 16.6 -2.48 17.75 -1.45 18.93 -0.26 20.16 1.05 21.47 2.47 22.85 4.03 24.35 5.67 25.96 7.43 27.71 9.32 29.58 11.31 31.58 13.46 33.72 15.71 36 18.11 38.4 20.64 40.93 23.3 -0.01 0zm1088.74 23.61l0 67.74 -17.76 0.06 -21.53 0.18 -25.01 0.29 -28.23 0.37 -31.15 0.43 -33.81 0.49 -36.21 0.51 -38.35 0.52 -40.19 0.51 -41.81 0.5 -43.16 0.44 -44.23 0.39 -45.06 0.31 -45.6 0.21 -45.9 0.09 -45.94 -0.04 -45.71 -0.19 -45.21 -0.36 -44.48 -0.55 -43.48 -0.75 -42.21 -0.99 -40.7 -1.22 -38.92 -1.5 -36.92 -1.76 -34.65 -2.09 -32.17 -2.4 -29.47 -2.77 -26.59 -3.17 -23.58 -3.63 -20.6 -4.23 -17.96 -5.18 -16.31 -7.34 34.16 -58.48 4.63 1.92 11.36 3.24 16.52 3.37 20.86 3.21 24.63 2.93 28.01 2.63 31.05 2.32 33.75 2.03 36.18 1.74 38.34 1.46 40.18 1.22 41.79 0.97 43.1 0.75 44.16 0.55 44.95 0.36 45.47 0.19 45.72 0.04 45.72 -0.09 45.44 -0.21 44.9 -0.31 44.13 -0.39 43.04 -0.44 41.73 -0.5 40.15 -0.51 38.29 -0.52 36.19 -0.51 33.81 -0.49 31.19 -0.43 28.31 -0.37 25.17 -0.29 21.79 -0.18 18.18 -0.08zm0 0c18.7,0 33.87,15.17 33.87,33.87 0,18.7 -15.17,33.87 -33.87,33.87l0 -67.74z"/>
     </g>
     <g>
      <path fill="#606060" fill-rule="nonzero" d="M17613.41 32189.23c-17.5,6.58 -37.04,-2.26 -43.62,-19.76 -6.58,-17.5 2.26,-37.04 19.76,-43.62l23.86 63.38zm646.25 -180.43l16.88 65.6 0 0 -31.94 7.92 -29.77 6.81 -27.75 5.78 -25.88 4.83 -24.16 3.94 -22.58 3.16 -21.15 2.45 -19.84 1.83 -18.67 1.28 -17.62 0.82 -16.69 0.46 -15.9 0.17 -15.2 -0.02 -14.64 -0.11 -14.24 -0.13 -13.96 -0.06 -13.85 0.1 -13.94 0.33 -14.2 0.62 -14.63 1.01 -15.28 1.48 -16.12 2.02 -17.15 2.66 -18.36 3.39 -19.72 4.2 -21.26 5.11 -22.96 6.12 -24.82 7.2 -26.82 8.39 -28.99 9.64 -31.29 11 -33.75 12.43 -23.86 -63.38 34.65 -12.77 32.31 -11.36 30.11 -10.02 28.08 -8.77 26.2 -7.6 24.48 -6.52 22.92 -5.51 21.48 -4.58 20.22 -3.73 19.07 -2.96 18.06 -2.28 17.18 -1.66 16.41 -1.13 15.74 -0.7 15.2 -0.35 14.79 -0.1 14.52 0.06 14.34 0.13 14.38 0.11 14.56 0.02 14.92 -0.17 15.49 -0.42 16.22 -0.76 17.15 -1.18 18.26 -1.67 19.55 -2.27 21.02 -2.94 22.64 -3.7 24.44 -4.55 26.41 -5.5 28.51 -6.53 30.8 -7.64 0 0zm491.51 -150.82l0 67.74 -1.3 0.12 -4.79 0.76 -7.14 1.44 -8.97 2.12 -10.56 2.73 -11.96 3.3 -13.2 3.8 -14.3 4.27 -15.29 4.69 -16.17 5.06 -16.93 5.38 -17.59 5.67 -18.16 5.92 -18.61 6.13 -18.97 6.27 -19.21 6.4 -19.36 6.46 -19.42 6.52 -19.37 6.49 -19.21 6.45 -18.98 6.36 -18.62 6.22 -18.18 6.04 -17.64 5.84 -17.01 5.58 -16.27 5.29 -15.44 4.94 -14.52 4.58 -13.54 4.17 -12.45 3.71 -11.32 3.24 -10.15 2.73 -16.88 -65.6 8.89 -2.39 10.44 -2.98 11.81 -3.53 13.04 -4.01 14.16 -4.46 15.16 -4.86 16.05 -5.21 16.83 -5.52 17.5 -5.8 18.1 -6.02 18.56 -6.2 18.92 -6.34 19.21 -6.45 19.39 -6.49 19.44 -6.52 19.44 -6.5 19.31 -6.42 19.07 -6.31 18.75 -6.17 18.34 -5.98 17.83 -5.75 17.21 -5.48 16.51 -5.16 15.71 -4.81 14.84 -4.43 13.88 -4 12.84 -3.54 11.78 -3.05 10.69 -2.52 9.68 -1.96 8.95 -1.36 9.18 -0.6zm0 0c18.7,0 33.87,15.17 33.87,33.87 0,18.7 -15.17,33.87 -33.87,33.87l0 -67.74z"/>
     </g>
     <g>
      <path fill="#606060" fill-rule="nonzero" d="M18490.16 30996.11c-9.52,-16.09 -4.18,-36.87 11.91,-46.39 16.09,-9.52 36.87,-4.18 46.39,11.91l-58.3 34.48zm490.26 621.45l-38.32 55.86 -0.01 -0.01 -24.02 -17.16 -22.87 -17.71 -21.78 -18.2 -20.73 -18.68 -19.72 -19.12 -18.77 -19.55 -17.85 -19.93 -16.99 -20.29 -16.19 -20.61 -15.42 -20.91 -14.72 -21.17 -14.08 -21.42 -13.48 -21.63 -12.95 -21.82 -12.46 -21.99 -12.02 -22.12 -11.67 -22.24 -11.33 -22.33 -11.07 -22.4 -10.86 -22.46 -10.7 -22.47 -10.6 -22.48 -10.55 -22.47 -10.54 -22.42 -10.61 -22.37 -10.69 -22.3 -10.87 -22.19 -11.06 -22.08 -11.33 -21.94 -11.62 -21.8 -11.99 -21.61 -12.39 -21.43 58.3 -34.48 13.03 22.53 12.55 22.63 12.1 22.68 11.73 22.72 11.38 22.72 11.11 22.71 10.89 22.68 10.71 22.61 10.6 22.54 10.53 22.43 10.52 22.32 10.56 22.17 10.64 22 10.79 21.82 10.97 21.61 11.21 21.4 11.5 21.14 11.84 20.89 12.21 20.6 12.66 20.31 13.14 20 13.68 19.67 14.26 19.33 14.89 18.97 15.59 18.61 16.31 18.21 17.11 17.83 17.96 17.42 18.87 17 19.84 16.58 20.85 16.13 21.94 15.68 -0.01 -0.01zm242.07 333.06l-15.14 66.02 -16.56 -8.75 -5.57 -5.64 -4.67 -5.6 -4.94 -6.39 -5.48 -7.42 -6.1 -8.5 -6.67 -9.49 -7.25 -10.44 -7.78 -11.3 -8.26 -12.08 -8.69 -12.76 -9.09 -13.34 -9.41 -13.84 -9.69 -14.22 -9.93 -14.52 -10.09 -14.71 -10.22 -14.79 -10.27 -14.78 -10.3 -14.68 -10.24 -14.45 -10.15 -14.14 -9.98 -13.71 -9.76 -13.19 -9.47 -12.53 -9.15 -11.79 -8.71 -10.93 -8.22 -9.93 -7.63 -8.81 -6.91 -7.54 -6.02 -6.08 -4.86 -4.4 -3.18 -2.47 38.32 -55.86 8.46 6.49 8.14 7.36 8.2 8.26 8.45 9.2 8.75 10.11 9.08 10.97 9.39 11.77 9.67 12.49 9.93 13.13 10.12 13.67 10.28 14.11 10.39 14.5 10.46 14.75 10.46 14.92 10.43 14.98 10.32 14.97 10.19 14.83 9.99 14.62 9.73 14.28 9.43 13.84 9.07 13.34 8.65 12.7 8.18 11.94 7.64 11.12 7.05 10.14 6.39 9.09 5.64 7.86 4.8 6.5 3.78 4.91 2.41 2.9 -0.27 -0.18 -13.14 -6.51zm0 0c18.23,4.18 29.62,22.35 25.44,40.58 -4.18,18.23 -22.35,29.62 -40.58,25.44l15.14 -66.02z"/>
     </g>
     <g>
      <path fill="#606060" fill-rule="nonzero" d="M19084.43 30470.67c0,-18.7 15.17,-33.87 33.87,-33.87 18.7,0 33.87,15.17 33.87,33.87l-67.74 0zm775.94 770.4l-34.96 58.02 0 -0.01 -27.69 -16.61 -28.46 -16.97 -29.14 -17.37 -29.7 -17.77 -30.16 -18.19 -30.52 -18.65 -30.76 -19.12 -30.9 -19.61 -30.92 -20.11 -30.86 -20.66 -30.69 -21.21 -30.4 -21.8 -30.02 -22.41 -29.52 -23.04 -28.94 -23.72 -28.23 -24.4 -27.42 -25.12 -26.51 -25.86 -25.49 -26.66 -24.36 -27.46 -23.1 -28.31 -21.75 -29.17 -20.26 -30.09 -18.67 -31 -16.93 -31.96 -15.08 -32.93 -13.11 -33.92 -10.99 -34.9 -8.75 -35.89 -6.4 -36.87 -3.92 -37.85 -1.33 -38.78 67.74 0 1.17 34.16 3.44 33.21 5.6 32.33 7.69 31.49 9.67 30.72 11.59 29.98 13.42 29.27 15.15 28.6 16.83 27.94 18.4 27.31 19.89 26.69 21.28 26.07 22.6 25.48 23.79 24.88 24.91 24.3 25.92 23.74 26.83 23.18 27.62 22.64 28.32 22.1 28.92 21.59 29.4 21.08 29.79 20.59 30.06 20.12 30.24 19.67 30.3 19.23 30.28 18.82 30.12 18.41 29.9 18.03 29.54 17.69 29.1 17.33 28.54 17.03 27.89 16.73 0 -0.01zm456.68 785.94l-40.16 54.54 0 0 -25.64 -20.47 -22.76 -21.43 -19.99 -22.29 -17.39 -23.04 -14.95 -23.67 -12.75 -24.19 -10.74 -24.57 -8.99 -24.86 -7.52 -25.06 -6.31 -25.18 -5.36 -25.26 -4.67 -25.33 -4.22 -25.35 -4.02 -25.35 -4.03 -25.32 -4.29 -25.29 -4.74 -25.21 -5.41 -25.15 -6.29 -25.04 -7.37 -24.95 -8.64 -24.85 -10.14 -24.75 -11.85 -24.71 -13.78 -24.65 -15.94 -24.62 -18.35 -24.61 -21.04 -24.62 -23.96 -24.62 -27.15 -24.6 -30.61 -24.56 -34.3 -24.49 -38.28 -24.37 34.96 -58.02 41.14 26.21 37.32 26.63 33.67 27.02 30.23 27.4 26.98 27.7 23.92 28 21.05 28.21 18.36 28.36 15.88 28.41 13.63 28.39 11.6 28.29 9.78 28.11 8.23 27.83 6.91 27.52 5.85 27.13 5.02 26.69 4.45 26.21 4.09 25.7 3.98 25.11 4.08 24.51 4.39 23.87 4.92 23.18 5.61 22.48 6.52 21.74 7.61 21.02 8.86 20.31 10.33 19.63 12.03 19.05 13.95 18.5 16.15 18.01 18.66 17.57 21.48 17.15 0 0zm109.29 251.36l-65.5 17.22 -1.78 -6.86 -1.8 -7.1 -1.82 -7.29 -1.86 -7.5 -1.89 -7.67 -1.94 -7.78 -1.98 -7.91 -2.05 -8.03 -2.1 -8.12 -2.15 -8.14 -2.23 -8.16 -2.31 -8.21 -2.37 -8.16 -2.45 -8.08 -2.53 -8.03 -2.61 -7.93 -2.7 -7.79 -2.78 -7.63 -2.86 -7.45 -2.94 -7.2 -3.03 -6.95 -3.12 -6.72 -3.17 -6.37 -3.24 -6.03 -3.3 -5.69 -3.32 -5.25 -3.35 -4.83 -3.35 -4.38 -3.34 -3.92 -3.29 -3.45 -3.19 -2.94 -3.1 -2.47 40.16 -54.54 7.02 5.59 6.57 6.04 6.13 6.41 5.74 6.74 5.39 7.04 5.07 7.31 4.78 7.55 4.5 7.75 4.28 7.95 4.05 8.15 3.84 8.26 3.67 8.43 3.5 8.58 3.32 8.63 3.18 8.71 3.04 8.79 2.91 8.81 2.79 8.83 2.67 8.84 2.55 8.8 2.45 8.71 2.37 8.68 2.27 8.58 2.18 8.4 2.11 8.29 2.04 8.11 1.96 7.92 1.89 7.67 1.84 7.4 1.78 7.13 1.72 6.8 1.68 6.46zm0 0c4.75,18.08 -6.06,36.61 -24.14,41.36 -18.08,4.75 -36.61,-6.06 -41.36,-24.14l65.5 -17.22z"/>
     </g>
     <g>
      <path fill="#606060" fill-rule="nonzero" d="M19688.68 30114.43c9.99,-15.81 30.92,-20.52 46.73,-10.53 15.81,9.99 20.52,30.92 10.53,46.73l-57.26 -36.2zm306.2 1251.51l-67.24 -8.08 5.31 -57.74 1.96 -55.2 -1.15 -52.82 -3.98 -50.57 -6.57 -48.47 -8.89 -46.51 -10.98 -44.69 -12.83 -43 -14.44 -41.45 -15.8 -40.02 -16.94 -38.7 -17.83 -37.52 -18.48 -36.45 -18.88 -35.5 -19.04 -34.66 -18.95 -33.95 -18.6 -33.36 -18.01 -32.9 -17.14 -32.59 -16.02 -32.41 -14.61 -32.39 -12.92 -32.52 -10.9 -32.79 -8.56 -33.18 -5.86 -33.69 -2.81 -34.26 0.61 -34.82 4.33 -35.35 8.31 -35.82 12.5 -36.25 16.86 -36.68 21.35 -37.17 57.26 36.2 -18.47 32.11 -14.18 30.86 -10.26 29.73 -6.69 28.86 -3.45 28.25 -0.47 27.9 2.29 27.84 4.88 27.99 7.32 28.3 9.56 28.75 11.64 29.28 13.49 29.89 15.12 30.57 16.5 31.35 17.61 32.18 18.46 33.12 19.07 34.15 19.36 35.26 19.42 36.48 19.16 37.83 18.65 39.26 17.86 40.8 16.76 42.46 15.4 44.21 13.73 46.06 11.8 48.01 9.57 50.05 7.05 52.19 4.28 54.37 1.23 56.68 -2.08 59.04 -5.67 61.48zm0 0c-2.23,18.56 -19.1,31.81 -37.66,29.58 -18.56,-2.23 -31.81,-19.1 -29.58,-37.66l67.24 8.08z"/>
     </g>
     <g>
      <path fill="#606060" fill-rule="nonzero" d="M20466 31011.71c0,-18.7 15.17,-33.87 33.87,-33.87 18.7,0 33.87,15.17 33.87,33.87l-67.74 0zm-153.76 601.7l-67.52 -5.42 0 0 2.66 -25.3 3.73 -23.86 4.74 -22.51 5.69 -21.26 6.56 -20.05 7.33 -18.95 8.02 -17.91 8.59 -16.97 9.07 -16.13 9.43 -15.35 9.7 -14.72 9.87 -14.19 9.94 -13.76 9.95 -13.49 9.87 -13.31 9.72 -13.27 9.54 -13.35 9.26 -13.53 8.98 -13.88 8.64 -14.35 8.27 -14.92 7.84 -15.67 7.39 -16.55 6.88 -17.58 6.33 -18.78 5.72 -20.09 5.05 -21.58 4.3 -23.2 3.47 -24.96 2.58 -26.87 1.61 -28.89 0.55 -31.05 67.74 0 -0.61 33.49 -1.75 31.53 -2.84 29.65 -3.89 27.9 -4.86 26.24 -5.77 24.68 -6.6 23.21 -7.37 21.84 -8.04 20.58 -8.65 19.37 -9.14 18.27 -9.55 17.26 -9.84 16.33 -10.04 15.54 -10.16 14.83 -10.16 14.23 -10.08 13.75 -9.93 13.39 -9.69 13.15 -9.4 13.02 -9.05 12.99 -8.64 13.1 -8.19 13.33 -7.71 13.69 -7.19 14.19 -6.64 14.83 -6.05 15.63 -5.42 16.59 -4.75 17.7 -4 18.97 -3.19 20.42 -2.3 22 0 0zm-0.64 441.43l-63.08 24.66 -6.13 -16.47 -5.46 -16.24 -4.82 -16.06 -4.19 -15.88 -3.59 -15.68 -3.02 -15.5 -2.47 -15.34 -1.96 -15.17 -1.47 -15 -1.02 -14.88 -0.58 -14.72 -0.19 -14.61 0.16 -14.46 0.5 -14.36 0.79 -14.26 1.05 -14.2 1.3 -14.11 1.49 -14.04 1.66 -14.02 1.8 -14 1.92 -13.99 1.99 -13.99 2.05 -14.03 2.08 -14.07 2.08 -14.14 2.04 -14.22 1.99 -14.32 1.91 -14.43 1.8 -14.57 1.66 -14.74 1.52 -14.9 1.31 -15.11 67.52 5.42 -1.41 16.05 -1.6 15.76 -1.74 15.46 -1.88 15.21 -1.97 14.95 -2.05 14.7 -2.08 14.48 -2.1 14.26 -2.06 14.05 -2.03 13.87 -1.95 13.69 -1.86 13.53 -1.72 13.4 -1.58 13.26 -1.39 13.16 -1.2 13.05 -0.97 12.96 -0.71 12.92 -0.44 12.88 -0.16 12.86 0.17 12.85 0.52 12.86 0.88 12.92 1.27 12.98 1.68 13.09 2.13 13.18 2.6 13.34 3.09 13.52 3.61 13.68 4.18 13.92 4.76 14.16 5.37 14.43zm0 0c6.8,17.41 -1.8,37.07 -19.21,43.87 -17.41,6.8 -37.07,-1.8 -43.87,-19.21l63.08 -24.66z"/>
     </g>
     <g>
      <path fill="#606060" fill-rule="nonzero" d="M20668.88 31359.51c0,-18.7 15.17,-33.87 33.87,-33.87 18.7,0 33.87,15.17 33.87,33.87l-67.74 0zm-265.58 826.03l-67.74 0 2.07 -14.32 3.77 -11.67 5.1 -12.72 6.46 -14.56 7.8 -16.59 9.05 -18.6 10.22 -20.53 11.27 -22.35 12.22 -24.02 13.05 -25.58 13.76 -26.99 14.35 -28.25 14.83 -29.36 15.17 -30.32 15.42 -31.14 15.51 -31.78 15.49 -32.31 15.37 -32.64 15.1 -32.85 14.73 -32.89 14.21 -32.77 13.59 -32.5 12.83 -32.06 11.97 -31.45 10.96 -30.68 9.84 -29.73 8.6 -28.61 7.24 -27.29 5.76 -25.76 4.2 -23.99 2.53 -21.99 0.85 -19.73 67.74 0 -1.07 25.15 -3.03 26.35 -4.8 27.49 -6.4 28.6 -7.86 29.63 -9.18 30.55 -10.38 31.37 -11.46 32.08 -12.41 32.65 -13.25 33.08 -13.95 33.38 -14.55 33.55 -15.03 33.55 -15.36 33.43 -15.61 33.16 -15.71 32.73 -15.69 32.16 -15.56 31.44 -15.29 30.56 -14.93 29.54 -14.41 28.37 -13.78 27.03 -13.03 25.56 -12.16 23.9 -11.15 22.09 -10 20.09 -8.73 17.94 -7.3 15.53 -5.7 12.84 -3.9 9.68 -1.79 5.41 0.15 -2.86zm0 0c0,18.7 -15.17,33.87 -33.87,33.87 -18.7,0 -33.87,-15.17 -33.87,-33.87l67.74 0z"/>
     </g>
     <g>
      <path fill="#606060" fill-rule="nonzero" d="M39840.2 30732.33c17.68,-6.06 36.96,3.36 43.02,21.04 6.06,17.68 -3.36,36.96 -21.04,43.02l-21.98 -64.06zm-525.2 847.15l-11.32 -66.78 0.01 0 27.32 -6.21 24.38 -8.67 21.86 -10.96 19.73 -13.15 17.94 -15.34 16.42 -17.51 15.07 -19.65 13.84 -21.71 12.74 -23.68 11.74 -25.45 10.86 -27.07 10.12 -28.46 9.53 -29.69 9.09 -30.68 8.84 -31.49 8.76 -32.1 8.86 -32.53 9.16 -32.77 9.67 -32.79 10.36 -32.68 11.29 -32.35 12.42 -31.86 13.78 -31.19 15.39 -30.31 17.23 -29.24 19.33 -27.94 21.65 -26.39 24.18 -24.54 26.9 -22.42 29.74 -19.98 32.67 -17.26 35.64 -14.3 21.98 64.06 -29.22 11.72 -26.35 13.94 -23.86 16.04 -21.64 18.04 -19.68 20 -17.93 21.85 -16.33 23.64 -14.89 25.3 -13.61 26.81 -12.44 28.15 -11.42 29.32 -10.57 30.31 -9.86 31.08 -9.33 31.69 -8.98 32.09 -8.8 32.31 -8.82 32.36 -9.04 32.21 -9.45 31.88 -10.09 31.39 -10.92 30.74 -12.02 29.91 -13.34 28.89 -14.92 27.7 -16.78 26.29 -18.91 24.63 -21.3 22.69 -23.88 20.38 -26.59 17.71 -29.34 14.7 -32.1 11.41 -34.78 7.91 0.01 0zm-830.24 599.08l-62.26 -26.66 0 -0.01 14.28 -31.3 15.76 -30.74 17.14 -30.15 18.47 -29.56 19.75 -28.93 20.95 -28.31 22.09 -27.65 23.17 -26.99 24.19 -26.31 25.15 -25.62 26.06 -24.9 26.9 -24.19 27.68 -23.44 28.4 -22.68 29.09 -21.91 29.69 -21.11 30.23 -20.3 30.75 -19.49 31.18 -18.63 31.56 -17.78 31.9 -16.9 32.17 -15.99 32.39 -15.08 32.55 -14.15 32.66 -13.19 32.71 -12.21 32.7 -11.22 32.65 -10.21 32.55 -9.17 32.37 -8.11 32.16 -7.03 31.88 -5.94 11.32 66.78 -29.76 5.54 -30.12 6.59 -30.43 7.63 -30.67 8.63 -30.85 9.65 -30.96 10.62 -31.03 11.59 -31 12.51 -30.93 13.45 -30.81 14.34 -30.61 15.23 -30.36 16.08 -30.04 16.92 -29.68 17.73 -29.23 18.53 -28.75 19.3 -28.19 20.05 -27.57 20.77 -26.9 21.48 -26.18 22.16 -25.38 22.81 -24.52 23.46 -23.63 24.06 -22.67 24.65 -21.63 25.19 -20.57 25.75 -19.43 26.25 -18.25 26.75 -17.01 27.2 -15.72 27.65 -14.38 28.06 -12.98 28.46 0 -0.01zm-327.43 484.11l6.32 -67.44 -4.18 0.21 0.25 -0.21 3.72 -2.33 5.97 -4.78 7.42 -7.08 8.48 -9.19 9.22 -11.02 9.83 -12.69 10.3 -14.14 10.67 -15.44 10.94 -16.57 11.16 -17.54 11.31 -18.37 11.38 -19.03 11.4 -19.56 11.36 -19.94 11.25 -20.17 11.09 -20.28 10.89 -20.24 10.61 -20.05 10.29 -19.72 9.89 -19.26 9.47 -18.66 8.96 -17.92 8.43 -17.02 7.8 -16.01 7.16 -14.85 6.44 -13.54 5.67 -12.08 4.82 -10.46 3.92 -8.68 2.93 -6.71 62.26 26.66 -3.31 7.57 -4.18 9.28 -5.04 10.92 -5.83 12.44 -6.6 13.86 -7.3 15.15 -7.96 16.31 -8.57 17.34 -9.12 18.22 -9.63 18.98 -10.07 19.6 -10.47 20.08 -10.81 20.43 -11.11 20.66 -11.35 20.72 -11.53 20.69 -11.68 20.5 -11.76 20.18 -11.8 19.73 -11.79 19.15 -11.74 18.46 -11.66 17.63 -11.53 16.7 -11.38 15.64 -11.23 14.49 -11.1 13.24 -11.02 11.93 -11.12 10.58 -11.51 9.16 -12.58 7.63 -14.81 5.49 -17.84 1.35zm0 0c-18.62,-1.74 -32.3,-18.26 -30.56,-36.88 1.74,-18.62 18.26,-32.3 36.88,-30.56l-6.32 67.44z"/>
     </g>
     <g>
      <path fill="#606060" fill-rule="nonzero" d="M37671.36 31609.57c-18.59,1.99 -35.29,-11.47 -37.28,-30.06 -1.99,-18.59 11.47,-35.29 30.06,-37.28l7.22 67.34zm474.86 157.33l-42.14 53.04 0 -0.01 -22.98 -18.53 -21.24 -17.67 -19.64 -16.79 -18.13 -15.93 -16.72 -15.07 -15.43 -14.2 -14.25 -13.36 -13.17 -12.49 -12.19 -11.63 -11.3 -10.76 -10.5 -9.87 -9.81 -9 -9.19 -8.11 -8.68 -7.24 -8.23 -6.4 -7.9 -5.59 -7.69 -4.85 -7.62 -4.21 -7.71 -3.62 -8.03 -3.12 -8.52 -2.66 -9.26 -2.24 -10.19 -1.8 -11.28 -1.38 -12.47 -0.92 -13.84 -0.44 -15.28 0.04 -16.82 0.53 -18.47 1.02 -20.2 1.51 -22.03 1.98 -23.95 2.44 -7.22 -67.34 24.69 -2.52 22.93 -2.06 21.36 -1.59 19.91 -1.1 18.6 -0.59 17.42 -0.04 16.4 0.52 15.51 1.14 14.72 1.8 14.03 2.5 13.44 3.24 12.88 4.02 12.33 4.8 11.81 5.54 11.32 6.23 10.91 6.89 10.58 7.49 10.37 8.04 10.3 8.6 10.37 9.15 10.59 9.7 10.98 10.31 11.48 10.94 12.13 11.57 12.95 12.29 13.87 13 14.95 13.76 16.14 14.55 17.47 15.35 18.92 16.19 20.5 17.03 22.22 17.93 0 -0.01zm341.74 443.05l-65.6 16.86 -3.66 -12.98 -4.36 -13.22 -5.04 -13.42 -5.7 -13.62 -6.32 -13.75 -6.93 -13.89 -7.5 -13.98 -8.04 -14.03 -8.55 -14.09 -9.04 -14.1 -9.48 -14.11 -9.89 -14.06 -10.28 -14.01 -10.64 -13.94 -10.94 -13.84 -11.22 -13.7 -11.48 -13.58 -11.7 -13.41 -11.87 -13.23 -12.02 -13.02 -12.15 -12.79 -12.21 -12.55 -12.27 -12.28 -12.29 -11.99 -12.26 -11.7 -12.21 -11.35 -12.13 -11.03 -12 -10.65 -11.85 -10.27 -11.65 -9.86 -11.43 -9.44 -11.17 -8.98 42.14 -53.04 11.83 9.54 12.07 9.96 12.27 10.38 12.45 10.79 12.6 11.19 12.71 11.55 12.81 11.91 12.86 12.26 12.87 12.57 12.87 12.88 12.83 13.17 12.75 13.45 12.66 13.7 12.53 13.95 12.34 14.17 12.16 14.36 11.94 14.58 11.66 14.76 11.36 14.9 11.06 15.07 10.69 15.2 10.3 15.31 9.88 15.42 9.43 15.53 8.94 15.61 8.4 15.68 7.87 15.75 7.26 15.81 6.62 15.84 5.98 15.9 5.24 15.92 4.5 15.94zm0 0c4.65,18.11 -6.26,36.58 -24.37,41.23 -18.11,4.65 -36.58,-6.26 -41.23,-24.37l65.6 -16.86z"/>
     </g>
     <g>
      <path fill="#606060" fill-rule="nonzero" d="M38967.13 31189.45c0,-18.7 15.17,-33.87 33.87,-33.87 18.7,0 33.87,15.17 33.87,33.87l-67.74 0zm33.93 478.21l-67.74 0 0.11 -15.49 0.29 -15.49 0.47 -15.5 0.62 -15.5 0.79 -15.51 0.91 -15.49 1.05 -15.48 1.15 -15.47 1.25 -15.44 1.34 -15.42 1.41 -15.39 1.47 -15.37 1.52 -15.31 1.55 -15.28 1.58 -15.24 1.59 -15.17 1.58 -15.12 1.56 -15.06 1.54 -14.99 1.5 -14.93 1.45 -14.85 1.39 -14.76 1.3 -14.68 1.22 -14.57 1.12 -14.49 1.01 -14.39 0.88 -14.27 0.75 -14.16 0.6 -14.04 0.45 -13.92 0.27 -13.77 0.09 -13.66 67.74 0 -0.11 14.56 -0.29 14.63 -0.47 14.68 -0.62 14.76 -0.79 14.8 -0.92 14.85 -1.05 14.89 -1.14 14.95 -1.26 14.99 -1.34 15 -1.41 15.06 -1.47 15.07 -1.52 15.09 -1.54 15.11 -1.58 15.12 -1.58 15.14 -1.59 15.15 -1.56 15.12 -1.53 15.14 -1.5 15.13 -1.45 15.11 -1.39 15.09 -1.3 15.06 -1.23 15.04 -1.11 15.01 -1.01 14.96 -0.89 14.93 -0.75 14.87 -0.6 14.82 -0.45 14.76 -0.27 14.69 -0.09 14.63zm0 0c0,18.7 -15.17,33.87 -33.87,33.87 -18.7,0 -33.87,-15.17 -33.87,-33.87l67.74 0z"/>
     </g>
     <g>
      <path fill="#606060" fill-rule="nonzero" d="M8887.56 32084.64c17.85,5.56 27.81,24.56 22.25,42.41 -5.56,17.85 -24.56,27.81 -42.41,22.25l20.16 -64.66zm-342.6 599.89l-67.56 4.92 0 0 -1.04 -25.98 0.55 -26.4 2.05 -26.67 3.46 -26.88 4.78 -27.03 6.03 -27.1 7.2 -27.08 8.3 -26.98 9.31 -26.8 10.27 -26.55 11.16 -26.21 11.98 -25.77 12.75 -25.26 13.43 -24.67 14.07 -23.99 14.65 -23.22 15.16 -22.36 15.62 -21.42 16.04 -20.39 16.38 -19.28 16.71 -18.09 16.99 -16.79 17.24 -15.43 17.49 -13.98 17.74 -12.4 17.97 -10.72 18.3 -8.91 18.61 -6.88 18.99 -4.64 19.32 -2.04 19.46 0.92 19.19 4.19 -20.16 64.66 -7.79 -1.69 -8.58 -0.38 -9.66 1.04 -10.81 2.66 -11.85 4.4 -12.72 6.21 -13.43 8.02 -13.96 9.76 -14.33 11.46 -14.58 13.05 -14.71 14.55 -14.73 15.93 -14.64 17.24 -14.48 18.41 -14.22 19.5 -13.88 20.48 -13.47 21.34 -12.97 22.11 -12.41 22.79 -11.77 23.34 -11.06 23.81 -10.3 24.15 -9.43 24.39 -8.53 24.54 -7.56 24.56 -6.5 24.48 -5.41 24.3 -4.24 24.01 -3.04 23.6 -1.79 23.05 -0.47 22.42 0.88 21.7 0 0zm-126.38 -14.84l67.6 -4.04 -14.11 -25.53 2.74 2.01 2.74 2.06 2.7 2.12 2.61 2.07 2.61 2.1 2.56 2.08 2.56 2.08 2.5 2.04 2.43 1.96 2.38 1.9 2.25 1.76 2.13 1.63 2.05 1.51 1.86 1.34 1.66 1.12 1.38 0.89 1.04 0.61 0.68 0.36 0 0.01 -0.6 -0.22 -1.64 -0.42 -3.1 -0.42 -4.55 0.14 -5.99 1.4 -6.29 3.18 -5.33 4.66 -3.46 4.9 -1.68 3.8 -0.67 2.56 -0.18 1.25 0 -0.04 -0.06 -1.11 67.56 -4.92 0.22 5.49 -0.18 5.68 -0.8 6.13 -1.73 6.64 -3.12 7.12 -5.26 7.48 -7.51 6.56 -8.81 4.44 -8.81 2.04 -7.69 0.2 -6.5 -0.9 -5.28 -1.42 -4.5 -1.66 -4.1 -1.87 -3.62 -1.92 -3.44 -2.01 -3.24 -2.07 -3.1 -2.1 -3 -2.14 -2.91 -2.15 -2.89 -2.21 -2.83 -2.22 -2.72 -2.18 -2.69 -2.16 -2.6 -2.12 -2.52 -2.04 -2.46 -2 -2.33 -1.88 -2.25 -1.79 -2.02 -1.58 -1.88 -1.42 -1.7 -1.25 -14.11 -25.53zm14.11 25.53c-15.21,-10.87 -18.73,-32.03 -7.86,-47.24 10.87,-15.21 32.03,-18.73 47.24,-7.86l-39.38 55.1zm-74.07 -195.47l57.2 -36.26 -0.03 -0.05 2.51 4.57 1.37 3 1.39 3.24 1.54 3.73 1.75 4.34 1.93 4.88 2.13 5.42 2.3 5.96 2.43 6.36 2.58 6.77 2.69 7.14 2.78 7.43 2.86 7.68 2.91 7.89 2.94 8.04 2.95 8.14 2.93 8.15 2.93 8.16 2.87 8.13 2.79 7.99 2.72 7.84 2.6 7.63 2.48 7.39 2.34 7.1 2.16 6.72 1.99 6.35 1.8 5.97 1.59 5.55 1.37 5.15 1.14 4.82 0.96 4.86 0.66 5.81 -67.6 4.04 0.1 1.15 -0.26 -1.3 -0.66 -2.74 -0.99 -3.71 -1.29 -4.51 -1.56 -5.17 -1.81 -5.77 -2.02 -6.28 -2.18 -6.66 -2.38 -7.05 -2.5 -7.35 -2.62 -7.58 -2.73 -7.79 -2.79 -7.89 -2.85 -7.98 -2.89 -8.03 -2.89 -7.96 -2.88 -7.86 -2.85 -7.73 -2.8 -7.54 -2.72 -7.27 -2.63 -6.96 -2.52 -6.63 -2.37 -6.2 -2.2 -5.68 -2.03 -5.18 -1.81 -4.58 -1.57 -3.88 -1.3 -3.15 -0.91 -2.16 -0.39 -0.84 1.37 2.39 -0.03 -0.05zm-171.99 -711.26l67.74 0 0 0 -0.01 28.94 0.04 27.79 0.09 26.71 0.18 25.66 0.31 24.7 0.45 23.79 0.63 22.94 0.83 22.14 1.08 21.41 1.34 20.77 1.62 20.13 1.95 19.62 2.29 19.14 2.67 18.73 3.06 18.42 3.5 18.16 3.95 17.97 4.45 17.88 4.96 17.85 5.53 17.89 6.12 18.03 6.74 18.21 7.4 18.49 8.1 18.82 8.84 19.23 9.61 19.72 10.41 20.25 11.26 20.87 12.11 21.52 13.04 22.26 13.97 23.06 14.93 23.9 -57.2 36.26 -15.41 -24.66 -14.47 -23.88 -13.58 -23.2 -12.71 -22.56 -11.86 -21.99 -11.05 -21.49 -10.27 -21.06 -9.5 -20.69 -8.76 -20.38 -8.06 -20.11 -7.38 -19.93 -6.7 -19.79 -6.09 -19.69 -5.48 -19.67 -4.89 -19.68 -4.35 -19.75 -3.82 -19.88 -3.34 -20.04 -2.89 -20.29 -2.45 -20.56 -2.09 -20.9 -1.72 -21.33 -1.4 -21.77 -1.12 -22.31 -0.87 -22.92 -0.65 -23.58 -0.45 -24.29 -0.31 -25.1 -0.18 -25.98 -0.09 -26.89 -0.04 -27.91 -0.01 -28.98 0 0zm-574.78 -594.11l0 -67.74 0 0 15.96 2.54 12.99 4.8 13.71 6.51 15.35 8.28 17.15 10.07 18.91 11.79 20.57 13.46 22.08 15.03 23.44 16.52 24.6 17.92 25.58 19.2 26.4 20.39 27.02 21.5 27.43 22.48 27.7 23.37 27.73 24.17 27.61 24.84 27.29 25.46 26.77 25.93 26.08 26.34 25.19 26.65 24.1 26.86 22.86 27 21.41 27.05 19.78 27.05 17.96 26.98 15.95 26.88 13.71 26.74 11.27 26.64 8.53 26.54 5.45 26.5 1.94 26.36 -67.74 0 -1.26 -16.88 -3.85 -18.62 -6.53 -20.22 -9.13 -21.58 -11.65 -22.68 -13.99 -23.58 -16.18 -24.28 -18.14 -24.81 -19.93 -25.17 -21.5 -25.4 -22.88 -25.48 -24.05 -25.45 -25.04 -25.28 -25.79 -25.01 -26.39 -24.6 -26.75 -24.08 -26.93 -23.45 -26.9 -22.71 -26.69 -21.86 -26.26 -20.9 -25.64 -19.81 -24.82 -18.64 -23.78 -17.32 -22.56 -15.9 -21.12 -14.37 -19.45 -12.72 -17.53 -10.95 -15.35 -9.01 -12.81 -6.92 -9.71 -4.61 -5.33 -2.04 3.16 0.22 0 0zm-569.49 -155.85l18.24 -65.22 28.75 8.45 25.66 8.4 22.82 8.34 20.24 8.28 17.9 8.24 15.81 8.21 13.94 8.16 12.24 8.1 10.71 7.95 9.35 7.71 8.16 7.36 7.07 6.8 6.18 6.11 5.52 5.4 5.02 4.64 4.81 4.01 4.99 3.6 5.53 3.38 6.54 3.3 8.01 3.28 9.87 3.23 12.02 3.16 14.42 3.01 17.07 2.79 19.94 2.56 23.02 2.27 26.33 1.96 29.86 1.64 33.63 1.29 37.63 0.94 41.86 0.58 46.35 0.18 0 67.74 -46.93 -0.2 -42.58 -0.58 -38.45 -0.96 -34.63 -1.33 -31.08 -1.7 -27.79 -2.08 -24.78 -2.45 -22.08 -2.82 -19.67 -3.23 -17.54 -3.65 -15.66 -4.12 -14.07 -4.63 -12.67 -5.18 -11.4 -5.72 -10.17 -6.2 -9.01 -6.5 -7.97 -6.61 -7.04 -6.48 -6.36 -6.2 -6.02 -5.95 -5.93 -5.72 -6.2 -5.6 -6.85 -5.65 -7.83 -5.83 -9.16 -6.06 -10.84 -6.36 -12.85 -6.67 -15.14 -6.96 -17.7 -7.26 -20.54 -7.5 -23.6 -7.72 -26.95 -7.93zm0 0c-18.01,-5.03 -28.52,-23.72 -23.49,-41.73 5.03,-18.01 23.72,-28.52 41.73,-23.49l-18.24 65.22z"/>
     </g>
     <g>
      <path fill="#606060" fill-rule="nonzero" d="M8717.19 31205.32c12.6,-13.81 34.03,-14.8 47.84,-2.2 13.81,12.6 14.8,34.03 2.2,47.84l-50.04 -45.64zm-182.67 881.21l-67.66 2.9 0 0 -2.75 -53.45 -3.36 -48.98 -3.86 -44.8 -4.22 -40.9 -4.46 -37.31 -4.57 -33.99 -4.58 -30.98 -4.43 -28.29 -4.19 -25.88 -3.83 -23.85 -3.33 -22.13 -2.7 -20.75 -1.93 -19.74 -0.96 -19.03 0.22 -18.61 1.61 -18.35 3.22 -18.21 4.96 -18.09 6.76 -18 8.55 -18 10.35 -18.25 12.2 -18.78 14.14 -19.62 16.19 -20.81 18.39 -22.33 20.74 -24.17 23.24 -26.33 25.88 -28.8 28.7 -31.56 31.64 -34.61 34.74 -37.94 37.97 -41.57 50.04 45.64 -38.03 41.63 -34.74 37.96 -31.58 34.53 -28.5 31.34 -25.56 28.44 -22.72 25.75 -20 23.31 -17.37 21.09 -14.87 19.09 -12.46 17.3 -10.22 15.7 -8.13 14.33 -6.27 13.2 -4.66 12.4 -3.3 12.03 -2.14 12.17 -1.13 12.81 -0.14 13.91 0.78 15.37 1.67 17.08 2.48 19.03 3.19 21.15 3.77 23.49 4.21 26.02 4.51 28.75 4.68 31.72 4.71 34.91 4.58 38.35 4.34 42.02 3.96 45.96 3.44 50.16 2.79 54.57 0 0zm-38.61 320.27l-67.74 0 0 0 0.12 -9.8 0.36 -10.33 0.54 -10.85 0.74 -11.34 0.91 -11.77 1.07 -12.15 1.2 -12.49 1.33 -12.76 1.44 -13 1.55 -13.17 1.63 -13.25 1.68 -13.29 1.75 -13.3 1.8 -13.21 1.81 -13.06 1.83 -12.88 1.83 -12.61 1.81 -12.28 1.78 -11.89 1.74 -11.45 1.68 -10.9 1.6 -10.35 1.51 -9.72 1.42 -9.01 1.3 -8.22 1.15 -7.37 1.02 -6.5 0.86 -5.5 0.67 -4.39 0.46 -3.15 0.18 -1.44 -0.08 4.06 67.66 -2.9 -0.26 6.36 -0.42 3.24 -0.56 3.83 -0.71 4.71 -0.88 5.64 -1.02 6.52 -1.17 7.43 -1.3 8.22 -1.4 8.95 -1.51 9.62 -1.58 10.27 -1.66 10.84 -1.72 11.31 -1.76 11.75 -1.79 12.14 -1.81 12.41 -1.79 12.66 -1.79 12.88 -1.76 12.97 -1.71 13 -1.66 13.01 -1.59 12.93 -1.49 12.77 -1.4 12.56 -1.27 12.28 -1.16 11.95 -1.01 11.51 -0.85 11.01 -0.68 10.44 -0.5 9.81 -0.3 9.05 -0.1 8.2 0 0zm19.32 280.19l-67.74 0 -0.05 -3.27 -0.14 -4.51 -0.24 -5.49 -0.34 -6.37 -0.43 -7.16 -0.5 -7.86 -0.58 -8.48 -0.65 -9.06 -0.7 -9.57 -0.75 -10 -0.79 -10.36 -0.83 -10.69 -0.86 -10.9 -0.89 -11.11 -0.9 -11.26 -0.9 -11.31 -0.9 -11.32 -0.9 -11.24 -0.89 -11.15 -0.86 -11 -0.83 -10.73 -0.81 -10.46 -0.75 -10.1 -0.72 -9.69 -0.65 -9.24 -0.6 -8.72 -0.52 -8.16 -0.45 -7.52 -0.36 -6.87 -0.28 -6.19 -0.18 -5.49 -0.07 -4.91 67.74 0 0.05 3.27 0.14 4.51 0.24 5.49 0.34 6.37 0.43 7.16 0.5 7.86 0.58 8.48 0.65 9.06 0.7 9.57 0.75 10 0.79 10.36 0.83 10.69 0.86 10.9 0.89 11.11 0.9 11.26 0.9 11.32 0.9 11.31 0.9 11.24 0.89 11.15 0.86 11 0.83 10.73 0.81 10.46 0.75 10.1 0.72 9.69 0.65 9.24 0.6 8.72 0.52 8.16 0.45 7.52 0.36 6.87 0.28 6.19 0.18 5.49 0.07 4.91zm0 0c0,18.7 -15.17,33.87 -33.87,33.87 -18.7,0 -33.87,-15.17 -33.87,-33.87l67.74 0z"/>
     </g>
     <g>
      <path fill="#606060" fill-rule="nonzero" d="M7045.25 30351.85c-12.26,-14.11 -10.76,-35.51 3.35,-47.77 14.11,-12.26 35.51,-10.76 47.77,3.35l-51.12 44.42zm476.04 342.8l-52.44 42.88 0 -0.01 -15.85 -19.04 -15.8 -18.29 -15.74 -17.58 -15.66 -16.9 -15.57 -16.25 -15.47 -15.6 -15.36 -15.03 -15.24 -14.46 -15.1 -13.91 -14.95 -13.4 -14.8 -12.92 -14.62 -12.47 -14.44 -12.03 -14.25 -11.65 -14.04 -11.28 -13.83 -10.93 -13.6 -10.63 -13.36 -10.34 -13.12 -10.09 -12.86 -9.88 -12.58 -9.68 -12.3 -9.52 -12.02 -9.4 -11.7 -9.29 -11.41 -9.24 -11.07 -9.2 -10.73 -9.21 -10.41 -9.26 -10.01 -9.34 -9.65 -9.45 -9.24 -9.61 -8.82 -9.79 51.12 -44.42 7.26 8.05 7.78 8.09 8.33 8.15 8.85 8.24 9.35 8.34 9.87 8.45 10.33 8.6 10.81 8.76 11.26 8.93 11.68 9.14 12.1 9.36 12.48 9.6 12.86 9.88 13.22 10.17 13.56 10.5 13.88 10.85 14.17 11.21 14.48 11.62 14.73 12.03 14.98 12.49 15.22 12.97 15.42 13.48 15.63 14 15.8 14.57 15.96 15.14 16.12 15.75 16.25 16.4 16.35 17.07 16.44 17.74 16.52 18.46 16.6 19.21 16.63 19.98 0 -0.01zm583.89 821.91l-64 22.16 -7.03 -18.65 -8.66 -20.12 -10.25 -21.48 -11.7 -22.68 -13.09 -23.76 -14.35 -24.7 -15.53 -25.56 -16.61 -26.3 -17.6 -26.95 -18.48 -27.5 -19.26 -27.96 -19.96 -28.31 -20.56 -28.59 -21.06 -28.79 -21.47 -28.86 -21.78 -28.88 -22 -28.79 -22.13 -28.63 -22.16 -28.37 -22.1 -28.03 -21.95 -27.6 -21.7 -27.09 -21.35 -26.47 -20.92 -25.79 -20.39 -25.02 -19.77 -24.15 -19.06 -23.22 -18.25 -22.17 -17.37 -21.08 -16.36 -19.87 -15.3 -18.59 -14.13 -17.23 52.44 -42.88 14.03 17.13 15.24 18.53 16.36 19.85 17.37 21.08 18.29 22.23 19.12 23.28 19.85 24.25 20.49 25.14 21.02 25.91 21.49 26.65 21.84 27.27 22.11 27.8 22.28 28.25 22.36 28.63 22.35 28.91 22.24 29.11 22.06 29.24 21.75 29.26 21.38 29.21 20.92 29.09 20.34 28.87 19.7 28.58 18.94 28.2 18.12 27.75 17.19 27.22 16.19 26.62 15.07 25.96 13.89 25.22 12.62 24.44 11.25 23.6 9.8 22.76 8.23 21.87zm0 0c6.11,17.67 -3.25,36.97 -20.92,43.08 -17.67,6.11 -36.97,-3.25 -43.08,-20.92l64 -22.16z"/>
     </g>
     <g>
      <path fill="#606060" fill-rule="nonzero" d="M7510.34 29798.28c0,-18.7 15.17,-33.87 33.87,-33.87 18.7,0 33.87,15.17 33.87,33.87l-67.74 0zm99.16 1026.5l-67.74 0 -0.08 -27.64 -0.26 -28.39 -0.43 -29.1 -0.57 -29.75 -0.7 -30.37 -0.84 -30.93 -0.95 -31.44 -1.06 -31.91 -1.14 -32.33 -1.23 -32.72 -1.3 -33.04 -1.35 -33.33 -1.39 -33.55 -1.44 -33.75 -1.46 -33.9 -1.47 -34 -1.47 -34.05 -1.46 -34.06 -1.45 -34.01 -1.4 -33.94 -1.35 -33.82 -1.3 -33.63 -1.23 -33.41 -1.16 -33.14 -1.06 -32.85 -0.95 -32.49 -0.84 -32.07 -0.72 -31.65 -0.57 -31.15 -0.43 -30.61 -0.26 -30.05 -0.1 -29.42 67.74 0 0.08 29.02 0.26 29.67 0.43 30.29 0.57 30.87 0.7 31.37 0.84 31.85 0.95 32.29 1.06 32.65 1.14 33 1.23 33.27 1.3 33.53 1.35 33.72 1.4 33.86 1.43 33.97 1.46 34.02 1.47 34.05 1.47 34 1.46 33.92 1.44 33.79 1.41 33.63 1.35 33.41 1.3 33.14 1.23 32.84 1.16 32.49 1.06 32.09 0.95 31.64 0.84 31.17 0.72 30.63 0.57 30.05 0.43 29.44 0.26 28.77 0.1 28.06zm0 0c0,18.7 -15.17,33.87 -33.87,33.87 -18.7,0 -33.87,-15.17 -33.87,-33.87l67.74 0z"/>
     </g>
     <g>
      <path fill="#606060" fill-rule="nonzero" d="M8312.25 30591.6c-0.6,-18.69 14.07,-34.34 32.76,-34.94 18.69,-0.6 34.34,14.07 34.94,32.76l-67.7 2.18zm43.03 611.49l-60.34 30.78 0 0 -10.56 -22.39 -9.05 -22.66 -7.62 -22.88 -6.25 -23.02 -4.96 -23.11 -3.77 -23.18 -2.66 -23.17 -1.63 -23.15 -0.68 -23.08 0.17 -22.96 0.94 -22.84 1.63 -22.68 2.25 -22.48 2.78 -22.26 3.24 -22 3.62 -21.71 3.92 -21.4 4.16 -21.06 4.3 -20.66 4.39 -20.27 4.4 -19.81 4.32 -19.32 4.19 -18.8 3.98 -18.24 3.69 -17.61 3.34 -16.96 2.93 -16.26 2.44 -15.47 1.88 -14.64 1.29 -13.74 0.66 -12.75 -0.03 -11.71 67.7 -2.18 0.03 15.59 -0.8 15.97 -1.53 16.34 -2.16 16.74 -2.7 17.13 -3.15 17.52 -3.52 17.92 -3.85 18.29 -4.06 18.64 -4.23 18.98 -4.32 19.3 -4.34 19.57 -4.29 19.83 -4.18 20.06 -4 20.26 -3.74 20.4 -3.42 20.55 -3.04 20.64 -2.6 20.7 -2.07 20.7 -1.49 20.7 -0.86 20.66 -0.15 20.58 0.6 20.44 1.43 20.29 2.3 20.11 3.25 19.92 4.22 19.69 5.27 19.42 6.38 19.18 7.55 18.9 8.8 18.65 0 0zm149.95 366.76l-62.24 26.7 -3.8 -8.95 -3.95 -9.48 -4.06 -9.94 -4.2 -10.38 -4.32 -10.81 -4.43 -11.17 -4.53 -11.52 -4.63 -11.83 -4.71 -12.1 -4.79 -12.35 -4.85 -12.53 -4.9 -12.69 -4.96 -12.81 -5 -12.91 -5.03 -12.96 -5.05 -12.97 -5.06 -12.95 -5.05 -12.87 -5.05 -12.78 -5.01 -12.64 -4.99 -12.45 -4.96 -12.24 -4.9 -11.97 -4.84 -11.69 -4.76 -11.34 -4.67 -10.96 -4.59 -10.55 -4.47 -10.08 -4.34 -9.57 -4.21 -9.01 -4.05 -8.41 -3.89 -7.77 60.34 -30.78 4.35 8.71 4.45 9.23 4.53 9.71 4.62 10.17 4.69 10.58 4.77 10.99 4.85 11.34 4.9 11.68 4.96 11.97 5 12.23 5.04 12.46 5.07 12.65 5.09 12.8 5.09 12.9 5.11 13.01 5.08 13.03 5.07 13.03 5.05 13 5.02 12.95 4.96 12.83 4.92 12.69 4.83 12.51 4.77 12.27 4.67 12.02 4.59 11.71 4.47 11.38 4.37 11.01 4.22 10.59 4.1 10.12 3.94 9.64 3.77 9.06 3.6 8.49zm0 0c7.37,17.18 -0.59,37.1 -17.77,44.47 -17.18,7.37 -37.1,-0.59 -44.47,-17.77l62.24 -26.7z"/>
     </g>
     <g>
      <path fill="#606060" fill-rule="nonzero" d="M6259.28 31397.26c-18.7,0 -33.87,-15.17 -33.87,-33.87 0,-18.7 15.17,-33.87 33.87,-33.87l0 67.74zm468.5 33.76l67.74 0 0 0 -3.04 18.48 -9.46 16.74 -13.41 11.72 -14.47 7 -14.61 3.91 -14.91 1.96 -15.55 0.6 -16.35 -0.47 -17.2 -1.37 -18.09 -2.15 -18.91 -2.85 -19.66 -3.45 -20.34 -3.98 -20.87 -4.46 -21.31 -4.82 -21.63 -5.15 -21.83 -5.38 -21.89 -5.56 -21.82 -5.64 -21.64 -5.68 -21.28 -5.63 -20.82 -5.5 -20.22 -5.3 -19.47 -5.04 -18.56 -4.7 -17.5 -4.28 -16.28 -3.77 -14.88 -3.21 -13.27 -2.56 -11.42 -1.83 -9.19 -1.08 -6.36 -0.31 0 -67.74 12.1 0.57 12.83 1.48 13.86 2.23 15.01 2.88 16.12 3.47 17.18 3.99 18.16 4.44 19 4.8 19.75 5.12 20.38 5.34 20.88 5.52 21.24 5.61 21.46 5.64 21.56 5.58 21.51 5.46 21.33 5.26 21.01 4.99 20.55 4.66 19.91 4.24 19.12 3.76 18.2 3.19 17.07 2.57 15.77 1.87 14.22 1.15 12.39 0.37 10.25 -0.38 7.65 -0.98 4.47 -1.13 0.83 -0.3 -2.15 2.02 -2.5 4.52 -0.66 3.56 0 0zm-19.32 -415.44l67.74 0 0.05 14.17 0.16 13.89 0.26 13.64 0.34 13.38 0.43 13.18 0.51 12.98 0.58 12.8 0.64 12.65 0.7 12.52 0.74 12.4 0.79 12.31 0.83 12.24 0.85 12.18 0.88 12.14 0.9 12.15 0.9 12.16 0.9 12.16 0.9 12.21 0.9 12.3 0.87 12.38 0.83 12.46 0.81 12.6 0.76 12.73 0.72 12.88 0.66 13.06 0.6 13.28 0.51 13.47 0.45 13.69 0.36 13.94 0.26 14.22 0.16 14.48 0.07 14.79 -67.74 0 -0.05 -14.27 -0.16 -14 -0.26 -13.72 -0.34 -13.48 -0.43 -13.25 -0.51 -13.05 -0.58 -12.86 -0.64 -12.7 -0.7 -12.58 -0.74 -12.45 -0.79 -12.34 -0.83 -12.26 -0.85 -12.2 -0.88 -12.16 -0.9 -12.17 -0.9 -12.16 -0.9 -12.16 -0.9 -12.19 -0.9 -12.28 -0.87 -12.36 -0.83 -12.44 -0.81 -12.55 -0.76 -12.68 -0.72 -12.84 -0.66 -13.01 -0.6 -13.2 -0.51 -13.4 -0.45 -13.62 -0.36 -13.86 -0.26 -14.12 -0.16 -14.39 -0.07 -14.69zm0 0c0,-18.7 15.17,-33.87 33.87,-33.87 18.7,0 33.87,15.17 33.87,33.87l-67.74 0z"/>
     </g>
     <g>
      <path fill="#606060" fill-rule="nonzero" d="M6724.79 31432.38c-6.08,-17.68 3.32,-36.96 21,-43.04 17.68,-6.08 36.96,3.32 43.04,21l-64.04 22.04zm576.23 594.75l-33.64 58.78 0.01 0.01 -25.74 -15.25 -25.25 -16 -24.73 -16.7 -24.24 -17.34 -23.71 -17.98 -23.2 -18.54 -22.66 -19.08 -22.14 -19.57 -21.58 -20.03 -21.03 -20.42 -20.47 -20.81 -19.91 -21.13 -19.34 -21.4 -18.77 -21.67 -18.16 -21.88 -17.58 -22.03 -16.98 -22.17 -16.37 -22.26 -15.75 -22.3 -15.12 -22.32 -14.49 -22.28 -13.86 -22.22 -13.2 -22.1 -12.56 -21.97 -11.88 -21.79 -11.2 -21.55 -10.53 -21.31 -9.85 -21.01 -9.15 -20.69 -8.43 -20.32 -7.72 -19.92 -7 -19.5 64.04 -22.04 6.4 17.84 7.14 18.38 7.83 18.88 8.53 19.29 9.23 19.71 9.91 20.05 10.58 20.35 11.24 20.61 11.9 20.81 12.54 21 13.16 21.12 13.79 21.2 14.4 21.24 14.99 21.24 15.59 21.2 16.18 21.11 16.74 20.99 17.3 20.82 17.85 20.61 18.38 20.36 18.91 20.07 19.43 19.73 19.93 19.36 20.42 18.95 20.9 18.49 21.38 18 21.84 17.46 22.29 16.88 22.72 16.28 23.15 15.62 23.57 14.94 23.96 14.19 0.01 0.01zm182.55 481.17l5.34 67.52 -19.01 -1.49 -16.81 -6.53 -13.9 -9.6 -11.71 -11.52 -10.26 -12.99 -9.36 -14.34 -8.76 -15.7 -8.32 -16.93 -7.99 -18.1 -7.72 -19.17 -7.49 -20.11 -7.28 -20.9 -7.09 -21.56 -6.9 -22.07 -6.71 -22.41 -6.55 -22.59 -6.38 -22.63 -6.2 -22.49 -6.03 -22.17 -5.85 -21.69 -5.68 -21.04 -5.49 -20.23 -5.3 -19.19 -5.12 -18 -4.9 -16.62 -4.67 -15.01 -4.4 -13.14 -4.07 -11.01 -3.58 -8.48 -2.69 -5.32 -0.62 -1.09 5.31 4.21 33.64 -58.78 12.91 11.01 7.34 10.63 5.61 10.96 5.1 12.04 4.95 13.39 4.96 14.8 5.03 16.17 5.14 17.4 5.28 18.58 5.4 19.57 5.55 20.41 5.7 21.1 5.83 21.63 5.97 21.99 6.12 22.17 6.26 22.21 6.39 22.07 6.51 21.73 6.64 21.21 6.75 20.54 6.84 19.66 6.93 18.59 6.98 17.33 6.99 15.84 6.92 14.13 6.78 12.14 6.44 9.92 5.8 7.39 4.63 4.62 2.68 1.94 0.03 0.11 -1.91 -0.11zm0 0c18.64,-1.47 34.96,12.45 36.43,31.09 1.47,18.64 -12.45,34.96 -31.09,36.43l-5.34 -67.52z"/>
     </g>
     <g>
      <path fill="#606060" fill-rule="nonzero" d="M7688.75 31781.31c9.3,-16.22 30,-21.84 46.22,-12.54 16.22,9.3 21.84,30 12.54,46.22l-58.76 -33.68zm-187.96 857.37l-67.74 0 0.25 -33.76 0.73 -32.81 1.22 -31.92 1.72 -31.09 2.22 -30.28 2.71 -29.55 3.21 -28.86 3.72 -28.23 4.23 -27.63 4.72 -27.08 5.24 -26.59 5.75 -26.15 6.25 -25.73 6.76 -25.4 7.27 -25.07 7.77 -24.83 8.28 -24.61 8.78 -24.45 9.28 -24.33 9.78 -24.26 10.28 -24.24 10.77 -24.29 11.26 -24.37 11.77 -24.5 12.24 -24.69 12.73 -24.94 13.23 -25.24 13.72 -25.58 14.22 -25.98 14.7 -26.44 15.19 -26.94 15.7 -27.53 58.76 33.68 -15.54 27.25 -15.01 26.64 -14.5 26.06 -13.96 25.52 -13.44 25.06 -12.91 24.62 -12.39 24.26 -11.88 23.95 -11.35 23.66 -10.84 23.45 -10.33 23.29 -9.82 23.18 -9.32 23.12 -8.82 23.11 -8.32 23.17 -7.84 23.29 -7.35 23.45 -6.85 23.67 -6.38 23.96 -5.91 24.29 -5.43 24.69 -4.94 25.15 -4.48 25.66 -4.01 26.23 -3.54 26.85 -3.07 27.54 -2.59 28.27 -2.12 29.06 -1.66 29.91 -1.18 30.8 -0.71 31.77 -0.23 32.76zm0 0c0,18.7 -15.17,33.87 -33.87,33.87 -18.7,0 -33.87,-15.17 -33.87,-33.87l67.74 0z"/>
     </g>
     <path fill="#FED136" fill-opacity="0.321569" d="M5534.77 33740.08c580.74,1373.41 3265.5,306.86 2975.67,1178.7 -289.83,871.84 -1052.44,1584.06 1429.84,1800.28 1287.71,112.17 5541.93,-273.8 4840.57,1426.57 -337.14,817.36 2716.52,772.62 3255.52,820.88 539.01,48.27 3222.78,398.9 4038.4,-241.24 815.62,-640.13 1960.14,-968.5 3323.47,-377.07 1363.32,591.43 2571.86,-724.28 4048.32,-724.28 1476.46,0 3409.74,772.87 5323.05,251.18 1913.3,-521.69 -574.5,-2378.03 1961.52,-2009.53 2536.02,368.51 3938.36,122.37 3545.38,-1371.91 -392.98,-1494.27 3175.39,-776.6 1716.39,-1748.39 -1459,-971.79 -1621.09,-241.81 -3223.54,-241.81 -1602.46,0 -2604.27,-1075.44 -3693.91,-853.48 -1089.63,221.96 -498.82,950.1 -2028.85,950.1 -1530.02,0 -3303.53,641.29 -3996.44,-241.26 -692.91,-882.56 -2470.25,461.27 -3256.1,-598.99 -1113.51,-1502.34 -5118.48,898.22 -7429.19,898.22 -1602.24,0 -1763.09,-795.97 -3088.27,-1066.04 -1325.18,-270.07 -2679.48,142.54 -4099.68,669.64 -1420.2,527.11 -4683.54,113.95 -4969.17,203.16 -285.63,89.22 -1253.71,-98.13 -672.98,1275.27z"/>
     <g>
      <path fill="#593F2B" fill-rule="nonzero" d="M20218.23 36722.88c-1.2,-18.66 12.95,-34.77 31.61,-35.97 18.66,-1.2 34.77,12.95 35.97,31.61l-67.58 4.36zm641.58 1141.02l-59.54 32.3 -3.98 -13.34 -5.09 -45.2 -7.63 -44.73 -10 -44.3 -12.21 -43.83 -14.26 -43.38 -16.14 -42.88 -17.86 -42.38 -19.42 -41.85 -20.79 -41.31 -22 -40.74 -23.03 -40.16 -23.89 -39.55 -24.57 -38.92 -25.08 -38.27 -25.42 -37.62 -25.56 -36.93 -25.54 -36.25 -25.33 -35.54 -24.96 -34.81 -24.42 -34.1 -23.67 -33.37 -22.78 -32.63 -21.71 -31.92 -20.45 -31.18 -19.03 -30.48 -17.43 -29.8 -15.66 -29.17 -13.69 -28.58 -11.51 -28.07 -9.12 -27.66 -6.43 -27.33 -3.38 -27.04 67.58 -4.36 2.44 19.28 4.95 20.97 7.46 22.58 9.89 24.07 12.19 25.44 14.34 26.71 16.33 27.9 18.11 29.02 19.73 30.08 21.15 31.1 22.4 32.09 23.45 33.03 24.32 33.98 25 34.87 25.49 35.76 25.82 36.63 25.94 37.49 25.88 38.32 25.66 39.15 25.23 39.98 24.63 40.77 23.85 41.58 22.88 42.36 21.71 43.15 20.38 43.93 18.84 44.7 17.1 45.46 15.2 46.22 13.07 46.95 10.76 47.68 8.25 48.41 5.53 49.06 -3.98 -13.34zm3.98 13.34c1.55,18.63 -12.31,35.01 -30.94,36.56 -18.63,1.55 -35.01,-12.31 -36.56,-30.94l67.5 -5.62zm-42.55 57.61l-20.97 -38.65 59.54 -32.3 20.97 38.65 -1.82 35.27 -57.72 -2.97zm59.54 -32.3c8.91,16.44 2.82,37.01 -13.62,45.92 -16.44,8.91 -37.01,2.82 -45.92,-13.62l59.54 -32.3zm412.2 -2019.32l43.54 51.88 -42.12 39.34 -38.23 43.79 -34.59 48.03 -31.13 52.04 -27.88 55.8 -24.77 59.25 -21.87 62.4 -19.14 65.23 -16.61 67.72 -14.29 69.89 -12.17 71.73 -10.28 73.25 -8.6 74.41 -7.15 75.27 -5.92 75.79 -4.93 76.01 -4.14 75.87 -3.61 75.45 -3.31 74.68 -3.23 73.63 -3.39 72.24 -3.79 70.57 -4.42 68.58 -5.31 66.29 -6.42 63.73 -7.81 60.87 -9.43 57.75 -11.37 54.38 -13.59 50.75 -16.19 46.89 -19.19 42.77 -22.68 38.31 -55.9 -38.24 18.36 -31.09 16.39 -36.57 14.41 -41.81 12.49 -46.65 10.67 -51.08 9.01 -55.15 7.53 -58.81 6.26 -62.13 5.21 -65.09 4.36 -67.7 3.77 -69.97 3.37 -71.92 3.23 -73.53 3.31 -74.82 3.63 -75.79 4.18 -76.45 4.97 -76.79 6 -76.81 7.27 -76.51 8.78 -75.93 10.52 -75.01 12.53 -73.81 14.79 -72.29 17.29 -70.48 20.06 -68.35 23.11 -65.94 26.43 -63.19 30.04 -60.12 33.95 -56.72 38.13 -52.93 42.59 -48.77 47.28 -44.14zm0 0c14.32,-12.02 35.69,-10.15 47.71,4.17 12.02,14.32 10.15,35.69 -4.17,47.71l-43.54 -51.88z"/>
     </g>
     <g>
      <path fill="#593F2B" fill-rule="nonzero" d="M20625.09 36169.13c-4.84,-18.06 5.87,-36.65 23.93,-41.49 18.06,-4.84 36.65,5.87 41.49,23.93l-65.42 17.56zm329.55 1330.87l-62.62 25.84 0 -0.01 -18.97 -47.69 -17.56 -47.44 -16.18 -47.16 -14.88 -46.87 -13.69 -46.58 -12.54 -46.28 -11.48 -45.97 -10.49 -45.65 -9.59 -45.34 -8.74 -45 -7.99 -44.66 -7.31 -44.32 -6.69 -43.96 -6.16 -43.6 -5.71 -43.24 -5.32 -42.87 -5.02 -42.48 -4.78 -42.1 -4.63 -41.71 -4.55 -41.31 -4.54 -40.91 -4.6 -40.49 -4.74 -40.08 -4.96 -39.65 -5.22 -39.24 -5.6 -38.78 -6.02 -38.35 -6.51 -37.91 -7.08 -37.44 -7.73 -37 -8.43 -36.53 -9.22 -36.09 65.42 -17.56 9.62 37.65 8.77 37.99 7.99 38.32 7.32 38.64 6.69 38.95 6.16 39.25 5.7 39.56 5.32 39.86 5.02 40.15 4.78 40.46 4.62 40.73 4.56 41.03 4.55 41.31 4.61 41.59 4.76 41.86 4.98 42.14 5.26 42.41 5.63 42.66 6.08 42.94 6.57 43.2 7.17 43.44 7.81 43.72 8.54 43.96 9.35 44.2 10.21 44.45 11.16 44.71 12.18 44.94 13.27 45.18 14.44 45.43 15.66 45.66 16.98 45.9 18.37 46.15 0 -0.01zm7.53 476.67l-67.74 0 0.14 -13.96 0.4 -14.19 0.62 -14.4 0.81 -14.58 0.97 -14.77 1.12 -14.93 1.22 -15.05 1.32 -15.18 1.36 -15.26 1.39 -15.33 1.4 -15.38 1.37 -15.42 1.33 -15.4 1.25 -15.38 1.15 -15.33 1.02 -15.26 0.88 -15.15 0.69 -15.02 0.51 -14.88 0.27 -14.67 0.02 -14.48 -0.24 -14.23 -0.54 -13.96 -0.85 -13.65 -1.19 -13.33 -1.52 -12.97 -1.9 -12.58 -2.28 -12.16 -2.67 -11.71 -3.07 -11.25 -3.48 -10.74 -3.91 -10.23 62.62 -25.84 5.17 13.57 4.5 13.88 3.87 14.15 3.29 14.41 2.74 14.64 2.24 14.84 1.78 15.03 1.35 15.19 0.95 15.35 0.6 15.48 0.26 15.59 -0.02 15.68 -0.29 15.77 -0.53 15.8 -0.73 15.84 -0.92 15.85 -1.06 15.84 -1.19 15.81 -1.27 15.74 -1.35 15.68 -1.39 15.56 -1.4 15.44 -1.39 15.29 -1.36 15.12 -1.28 14.9 -1.2 14.67 -1.08 14.41 -0.93 14.11 -0.77 13.82 -0.58 13.46 -0.36 13.07 -0.12 12.68zm0 0c0,18.7 -15.17,33.87 -33.87,33.87 -18.7,0 -33.87,-15.17 -33.87,-33.87l67.74 0z"/>
     </g>
     <path fill="url(#id1)" fill-opacity="0.431373" d="M12321 37372.47c885.74,0 1603.76,242.22 1603.76,541.01 0,298.8 -718.02,541.02 -1603.76,541.02 -885.73,0 -1603.75,-242.22 -1603.75,-541.02 0,-298.79 718.02,-541.01 1603.75,-541.01z"/>
     <path fill="url(#id2)" fill-opacity="0.431373" d="M24127.02 38570.44c-747.01,0 -1352.57,216.29 -1352.57,483.07 0,266.79 605.56,483.07 1352.57,483.07 747,0 1352.56,-216.28 1352.56,-483.07 0,-266.78 -605.56,-483.07 -1352.56,-483.07z"/>
     <path fill="url(#id3)" fill-opacity="0.431373" d="M31179.7 38840.97c1227.21,0 2222.07,250.88 2222.07,560.35 0,309.46 -994.86,560.34 -2222.07,560.34 -1227.2,0 -2222.06,-250.88 -2222.06,-560.34 0,-309.47 994.86,-560.35 2222.06,-560.35z"/>
     <path fill="url(#id4)" fill-opacity="0.431373" d="M17905.18 35478.84c747.01,0 1352.57,216.28 1352.57,483.07 0,266.78 -605.56,483.07 -1352.57,483.07 -747,0 -1352.56,-216.29 -1352.56,-483.07 0,-266.79 605.56,-483.07 1352.56,-483.07z"/>
     <path fill="url(#id5)" fill-opacity="0.431373" d="M31569.64 34930.59c-936.77,0 -1696.18,201.6 -1696.18,450.28 0,248.67 759.41,450.27 1696.18,450.27 936.76,0 1696.17,-201.6 1696.17,-450.27 0,-248.68 -759.41,-450.28 -1696.17,-450.28z"/>
     <path fill="#CCCCCC" fill-opacity="0.250980" d="M15523.58 6231.54c-327.35,12.61 -469.11,-398.21 98.45,-396.95 126.76,0.28 -174.68,-201.84 185.51,-437.9 360.19,-236.05 540.72,-60.94 606.3,-109.01 65.58,-48.08 -47.85,-315.27 378.23,-579.19 426.08,-263.91 941.12,-144.13 1263.82,27.83 322.7,171.95 100.14,359.31 463.73,359.31 363.59,0 690.61,325.58 577.8,573.92 -112.8,248.34 -279.51,97.48 218.28,166.06 497.79,68.58 252.5,382.99 8.42,386.21 -1171.75,15.48 -2747.07,-30.86 -3800.54,9.72z"/>
     <path fill="#CCCCCC" fill-opacity="0.250980" d="M11678.86 12731.8c-522.36,20.12 -748.58,-635.44 157.09,-633.42 202.27,0.44 -278.73,-322.08 296.02,-698.76 574.76,-376.69 862.84,-97.25 967.49,-173.97 104.65,-76.71 -76.36,-503.07 603.55,-924.21 679.9,-421.14 1501.77,-230 2016.71,44.39 514.95,274.39 159.79,573.37 739.99,573.37 580.19,0 1102.01,519.54 922.01,915.82 -180,396.27 -446.02,155.55 348.31,264.99 794.33,109.43 402.92,611.14 13.44,616.28 -1869.8,24.7 -4383.57,-49.25 -6064.61,15.51z"/>
     <path fill="#CCCCCC" fill-opacity="0.250980" d="M33761.06 10609.82c-361.51,13.93 -518.07,-439.77 108.72,-438.37 139.99,0.3 -192.9,-222.91 204.87,-483.6 397.78,-260.7 597.15,-67.3 669.58,-120.4 72.43,-53.09 -52.85,-348.17 417.7,-639.63 470.55,-291.46 1039.35,-159.18 1395.73,30.73 356.38,189.9 110.59,396.81 512.13,396.81 401.54,0 762.68,359.56 638.1,633.82 -124.57,274.25 -308.68,107.65 241.06,183.39 549.74,75.74 278.85,422.96 9.3,426.52 -1294.04,17.09 -3033.77,-34.09 -4197.19,10.73z"/>
     <path fill="#CCCCCC" fill-opacity="0.250980" d="M29944.63 8958.45c-219.77,8.47 -314.95,-267.34 66.1,-266.5 85.1,0.19 -117.28,-135.5 124.54,-293.99 241.82,-158.48 363.03,-40.91 407.06,-73.19 44.03,-32.28 -32.13,-211.66 253.93,-388.85 286.06,-177.18 631.84,-96.77 848.5,18.68 216.65,115.45 67.23,241.23 311.33,241.23 244.11,0 463.66,218.59 387.92,385.32 -75.73,166.73 -187.65,65.45 146.55,111.49 334.2,46.04 169.52,257.13 5.65,259.29 -786.68,10.39 -1844.31,-20.72 -2551.58,6.52z"/>
     <path fill="none" fill-opacity="0.729412" stroke="#FF9F43" stroke-width="33.87" stroke-miterlimit="22.9256" stroke-opacity="0.729412" d="M13074.76 33383.31c-1256.44,0 -1874.22,399.46 -1380.43,1422.25 208.63,432.13 1291.18,605.35 1889.47,-126.62 491.73,-601.61 -179.06,-1444.88 -1028.56,-1418.06 -733.41,23.17 -1561.66,1997.02 369.34,1740.56 754.79,-100.25 1449.93,-1302.53 -336.16,-1807.71 -1436.34,-406.27 -1964.41,1928.04 461.02,1928.04 602.16,0 353.61,-2855.33 -1021.57,-630.32 -672.42,1087.96 859.34,912.95 774.47,-636.62 -34.12,-622.97 -1335.1,-173.96 -932.51,766.74 208.66,487.53 2091.75,497.89 1752.39,-1166.9 -209.4,-1027.24 -1879.65,-488.82 -1494.81,1124.92 354.5,1486.54 2748.15,22.92 1729.68,-1439.03 -518.2,-743.85 -1312.23,-222.67 -1301.85,826.2 5.5,554.86 161.08,1512.73 1069.6,845.1 349.71,-256.99 1221.32,-1903.99 -805.04,-1473.32 -1917.69,407.57 -1357.41,2479.3 -257.57,1238.26 1060.91,-1197.12 -567.48,-2661.51 -1226.76,-595.34 -647.21,2028.34 2153.6,891.1 1734.05,-561.07 -198.43,-686.81 -1726.15,484.14 -1092.29,1711.17 526.42,1019.07 3383.88,-123.04 2633.38,-1629.32 -394.56,-791.87 -3736.04,-1170.67 -3619.16,1141.72 51.85,1025.98 3071.69,590.67 2753.01,-1190.69 -146.48,-818.77 -2644.49,-881.29 -2480.59,1578.26 91.01,1365.75 3942.14,529.48 3519.63,-1599.24 -187.62,-945.23 -3033.66,-396.26 -2905.81,1187.88 38.76,480.34 2026.19,697.33 1877.24,-983.61 -60.05,-677.72 -1287.33,-1117.11 -2022.18,567.36 -1114.36,2554.4 2250.25,1298.98 2172.37,-695.38 -42.8,-1095.56 -2313.81,232.93 -2185.47,2161 57.83,868.73 3285.69,455.14 2484.95,-1370.48 -433.33,-987.97 -2612.76,-2005.89 -2449.15,798.92 72.37,1240.49 2509.28,-3.43 2111.25,-1541.17 -329.57,-1273.25 -2165.07,3084.85 -353.62,1937.84 1043.57,-660.8 874.53,-2406.09 -41.04,-236.46 -296.35,702.26 475.5,-775.72 150.18,-1424.35 -473.29,-943.67 -1704.91,1202.92 -952.59,1238.96 774.04,37.09 282.28,-1751.4 252.33,-279.13 -22.1,1086.14 1320.69,123.76 633.9,-771.64 -658.42,-858.43 -2290.36,1291.46 -1362.97,1348.79 1280.32,79.15 1862.55,-2710.36 354.5,-1320.11 -221.75,204.43 -661.93,993.27 -175.51,703.78"/>
     <path fill="none" fill-opacity="0.509804" stroke="#FF9F43" stroke-width="33.87" stroke-miterlimit="22.9256" stroke-opacity="0.509804" d="M30439.06 33248.12c615.9,0 918.73,195.81 676.68,697.17 -102.27,211.83 -632.93,296.74 -926.2,-62.07 -241.04,-294.9 87.77,-708.26 504.18,-695.11 359.52,11.35 765.52,978.92 -181.04,853.2 -369.99,-49.14 -710.74,-638.49 164.78,-886.12 704.08,-199.15 962.94,945.11 -225.98,945.11 -295.18,0 -173.34,-1399.66 500.76,-308.98 329.61,533.31 -421.24,447.52 -379.64,-312.07 16.72,-305.37 654.46,-85.27 457.11,375.85 -102.28,238.99 -1025.36,244.07 -859.01,-572 102.65,-503.54 921.39,-239.61 732.75,551.43 -173.78,728.68 -1347.12,11.23 -847.88,-705.4 254.02,-364.63 643.25,-109.16 638.15,404.99 -2.69,271.99 -78.95,741.53 -524.3,414.26 -171.42,-125.97 -598.68,-933.32 394.62,-722.21 940.03,199.79 665.39,1215.33 126.26,606.99 -520.05,-586.82 278.18,-1304.65 601.35,-291.83 317.25,994.27 -1055.68,436.8 -850.02,-275.04 97.27,-336.66 846.14,237.32 535.43,838.81 -258.04,499.54 -1658.75,-60.32 -1290.86,-798.68 193.41,-388.17 1831.37,-573.85 1774.08,559.66 -25.42,502.92 -1505.71,289.54 -1349.5,-583.67 71.8,-401.35 1296.31,-432 1215.96,773.65 -44.61,669.48 -1932.4,259.55 -1725.28,-783.93 91.96,-463.34 1487.07,-194.24 1424.4,582.29 -19.01,235.45 -993.22,341.82 -920.21,-482.16 29.43,-332.21 631.04,-547.59 991.26,278.11 546.24,1252.15 -1103.06,636.75 -1064.88,-340.87 20.98,-537.03 1134.21,114.19 1071.3,1059.31 -28.35,425.84 -1610.62,223.11 -1218.1,-671.8 212.41,-484.29 1280.75,-983.27 1200.55,391.63 -35.48,608.07 -1230.03,-1.68 -1034.92,-755.47 161.55,-624.14 1061.3,1512.16 173.34,949.91 -511.55,-323.92 -428.68,-1179.44 20.12,-115.91 145.27,344.24 -233.08,-380.25 -73.62,-698.2 232.01,-462.59 835.73,589.65 466.96,607.32 -379.43,18.18 -138.38,-858.52 -123.7,-136.83 10.84,532.42 -647.38,60.67 -310.73,-378.25 322.76,-420.79 1122.72,633.06 668.12,661.17 -627.61,38.8 -913.01,-1328.59 -173.77,-647.11 108.69,100.21 324.47,486.9 86.03,344.99"/>
     <g>
      <path fill="#CCCCCC" d="M24663.56 10142.8c-40.08,42.21 -41.48,104.48 -62.23,156.72 -20.99,-51.25 -11.65,-132.95 -62.97,-153.76l-161.72 -65.59c-7.89,-3.19 94.7,-33.1 142.04,-49.65 55.32,-19.33 61.01,-123.34 87.35,-185.03 22.08,58.49 15.13,134.63 57.9,175.45 42.77,40.83 107.86,28.14 161.79,42.22 -54.05,26.54 -122.08,37.42 -162.16,79.64z"/>
      <path fill="#CCCCCC" d="M25100.9 10362.49c-26.81,28.23 -27.75,69.87 -41.62,104.81 -14.04,-34.28 -7.79,-88.91 -42.11,-102.83l-108.15 -43.86c-5.27,-2.14 63.33,-22.14 94.98,-33.2 37,-12.93 40.81,-82.48 58.42,-123.73 14.77,39.11 10.12,90.02 38.72,117.32 28.6,27.3 72.13,18.82 108.2,28.23 -36.15,17.75 -81.64,25.03 -108.44,53.26z"/>
      <path fill="#CCCCCC" d="M24765.64 10690.39c-13.88,14.61 -14.36,36.17 -21.55,54.26 -7.26,-17.75 -4.03,-46.03 -21.8,-53.24l-55.99 -22.7c-2.73,-1.11 32.79,-11.46 49.18,-17.19 19.15,-6.7 21.12,-42.71 30.24,-64.06 7.64,20.25 5.24,46.61 20.05,60.74 14.8,14.14 37.34,9.74 56.01,14.62 -18.71,9.19 -42.27,12.95 -56.14,27.57z"/>
     </g>
     <path fill="url(#id6)" d="M25076.56 7236.02c96.65,55.8 -470.21,1163.3 -403.24,1230.25 66.97,66.96 689.86,-14.86 714.23,27.35 24.37,42.21 -1296.6,1669.67 -1360.12,1606.15 -63.52,-63.52 468.5,-1137.47 429.29,-1205.4 -39.21,-67.92 -704.51,-39.54 -747.12,-52.19 -42.61,-12.64 1270.31,-1661.95 1366.96,-1606.16z"/>
     <g>
      <g>
       <path fill="#CCCCCC" d="M24663.56 10142.8c-40.08,42.21 -41.48,104.48 -62.23,156.72 -20.99,-51.25 -11.65,-132.95 -62.97,-153.76l-161.72 -65.59c-7.89,-3.19 94.7,-33.1 142.04,-49.65 55.32,-19.33 61.01,-123.34 87.35,-185.03 22.08,58.49 15.13,134.63 57.9,175.45 42.77,40.83 107.86,28.14 161.79,42.22 -54.05,26.54 -122.08,37.42 -162.16,79.64z"/>
       <path fill="#CCCCCC" d="M25100.9 10362.49c-26.81,28.23 -27.75,69.87 -41.62,104.81 -14.04,-34.28 -7.79,-88.91 -42.11,-102.83l-108.15 -43.86c-5.27,-2.14 63.33,-22.14 94.98,-33.2 37,-12.93 40.81,-82.48 58.42,-123.73 14.77,39.11 10.12,90.02 38.72,117.32 28.6,27.3 72.13,18.82 108.2,28.23 -36.15,17.75 -81.64,25.03 -108.44,53.26z"/>
       <path fill="#CCCCCC" d="M24765.64 10690.39c-13.88,14.61 -14.36,36.17 -21.55,54.26 -7.26,-17.75 -4.03,-46.03 -21.8,-53.24l-55.99 -22.7c-2.73,-1.11 32.79,-11.46 49.18,-17.19 19.15,-6.7 21.12,-42.71 30.24,-64.06 7.64,20.25 5.24,46.61 20.05,60.74 14.8,14.14 37.34,9.74 56.01,14.62 -18.71,9.19 -42.27,12.95 -56.14,27.57z"/>
      </g>
      <g>
       <path fill="#CCCCCC" d="M23420.39 9238.16c-1.84,44.17 28.45,80.49 42.67,120.73 -37.6,-18.83 -73.06,-70.23 -112.81,-56.51l-125.26 43.24c-6.11,2.12 37.64,-66.22 56.45,-99.33 21.99,-38.68 -26.69,-101.03 -42.43,-149.46 41.84,22.43 75.89,69.45 120.74,71.44 44.85,2 75.76,-37.76 113.63,-56.65 -17.66,42.18 -51.14,82.38 -52.99,126.54z"/>
       <path fill="#CCCCCC" d="M23780.27 9145.44c-1.23,29.53 19.03,53.82 28.54,80.73 -25.15,-12.59 -48.86,-46.96 -75.44,-37.79l-83.77 28.92c-4.08,1.41 25.17,-44.29 37.76,-66.42 14.7,-25.88 -17.85,-67.57 -28.38,-99.96 27.98,15 50.75,46.45 80.74,47.78 30,1.34 50.66,-25.25 75.99,-37.88 -11.81,28.21 -34.2,55.08 -35.44,84.62z"/>
       <path fill="#CCCCCC" d="M23752.24 9500.43c-0.64,15.29 9.85,27.87 14.77,41.8 -13.01,-6.52 -25.29,-24.32 -39.05,-19.56l-43.37 14.97c-2.12,0.73 13.03,-22.93 19.55,-34.39 7.61,-13.4 -9.25,-34.98 -14.69,-51.75 14.48,7.76 26.27,24.04 41.8,24.73 15.53,0.7 26.22,-13.07 39.34,-19.61 -6.12,14.61 -17.71,28.52 -18.35,43.81z"/>
       <path fill="#CCCCCC" d="M23420.39 9238.16c-1.84,44.17 28.45,80.49 42.67,120.73 -37.6,-18.83 -73.06,-70.23 -112.81,-56.51l-125.26 43.24c-6.11,2.12 37.64,-66.22 56.45,-99.33 21.99,-38.68 -26.69,-101.03 -42.43,-149.46 41.84,22.43 75.89,69.45 120.74,71.44 44.85,2 75.76,-37.76 113.63,-56.65 -17.66,42.18 -51.14,82.38 -52.99,126.54z"/>
      </g>
      <g>
       <path fill="#CCCCCC" d="M23803.06 10809.49c40.08,42.22 41.48,104.48 62.23,156.73 20.99,-51.26 11.65,-132.95 62.97,-153.77l161.72 -65.58c7.89,-3.2 -94.69,-33.11 -142.03,-49.65 -55.33,-19.34 -61.02,-123.35 -87.36,-185.03 -22.08,58.49 -15.13,134.62 -57.9,175.45 -42.77,40.82 -107.86,28.14 -161.79,42.21 54.05,26.55 122.08,37.42 162.16,79.64z"/>
       <path fill="#CCCCCC" d="M23365.73 11029.18c26.8,28.24 27.74,69.88 41.61,104.81 14.04,-34.27 7.79,-88.91 42.11,-102.82l108.15 -43.86c5.28,-2.14 -63.33,-22.14 -94.98,-33.21 -37,-12.92 -40.81,-82.48 -58.42,-123.73 -14.77,39.11 -10.12,90.03 -38.72,117.33 -28.6,27.3 -72.13,18.82 -108.19,28.23 36.14,17.75 81.63,25.02 108.44,53.25z"/>
       <path fill="#CCCCCC" d="M23700.98 11357.08c13.88,14.62 14.37,36.18 21.55,54.26 7.27,-17.74 4.03,-46.03 21.8,-53.23l55.99 -22.71c2.73,-1.11 -32.78,-11.46 -49.17,-17.19 -19.16,-6.69 -21.13,-42.7 -30.25,-64.06 -7.64,20.25 -5.24,46.61 -20.04,60.74 -14.81,14.14 -37.35,9.75 -56.02,14.62 18.72,9.19 42.27,12.96 56.14,27.57z"/>
      </g>
      <g>
       <path fill="#CCCCCC" d="M24581.32 11355.79c1.85,44.17 -28.45,80.49 -42.67,120.73 37.61,-18.83 73.06,-70.23 112.81,-56.51l125.26 43.25c6.11,2.11 -37.63,-66.23 -56.45,-99.34 -21.99,-38.68 26.69,-101.02 42.43,-149.46 -41.84,22.43 -75.88,69.45 -120.74,71.45 -44.85,1.99 -75.75,-37.77 -113.63,-56.65 17.66,42.18 51.15,82.37 52.99,126.53z"/>
       <path fill="#CCCCCC" d="M24221.44 11263.07c1.23,29.54 -19.02,53.82 -28.54,80.74 25.15,-12.6 48.86,-46.97 75.44,-37.79l83.77 28.91c4.09,1.42 -25.17,-44.28 -37.75,-66.42 -14.71,-25.87 17.85,-67.56 28.37,-99.95 -27.98,15 -50.74,46.44 -80.74,47.77 -29.99,1.34 -50.66,-25.25 -75.99,-37.88 11.81,28.21 34.21,55.09 35.44,84.62z"/>
       <path fill="#CCCCCC" d="M24249.47 11618.06c0.64,15.29 -9.85,27.87 -14.77,41.8 13.02,-6.52 25.29,-24.31 39.05,-19.56l43.37 14.97c2.12,0.73 -13.03,-22.93 -19.54,-34.39 -7.62,-13.4 9.24,-34.98 14.69,-51.75 -14.49,7.77 -26.27,24.05 -41.8,24.74 -15.53,0.69 -26.23,-13.08 -39.35,-19.62 6.12,14.61 17.71,28.52 18.35,43.81z"/>
       <path fill="#CCCCCC" d="M24581.32 11355.79c1.85,44.17 -28.45,80.49 -42.67,120.73 37.61,-18.83 73.06,-70.23 112.81,-56.51l125.26 43.25c6.11,2.11 -37.63,-66.23 -56.45,-99.34 -21.99,-38.68 26.69,-101.02 42.43,-149.46 -41.84,22.43 -75.88,69.45 -120.74,71.45 -44.85,1.99 -75.75,-37.77 -113.63,-56.65 17.66,42.18 51.15,82.37 52.99,126.53z"/>
      </g>
      <g>
       <path fill="#CCCCCC" d="M24261.38 12201.45c1.84,44.16 -28.45,80.48 -42.67,120.73 37.6,-18.84 73.06,-70.24 112.81,-56.51l125.26 43.24c6.11,2.11 -37.64,-66.23 -56.46,-99.33 -21.99,-38.69 26.7,-101.03 42.44,-149.47 -41.85,22.43 -75.89,69.45 -120.74,71.45 -44.86,2 -75.76,-37.77 -113.63,-56.65 17.66,42.18 51.14,82.37 52.99,126.54z"/>
       <path fill="#CCCCCC" d="M23901.49 12108.73c1.24,29.53 -19.02,53.82 -28.53,80.73 25.15,-12.6 48.86,-46.97 75.44,-37.79l83.77 28.92c4.08,1.41 -25.17,-44.29 -37.76,-66.43 -14.7,-25.87 17.85,-67.56 28.38,-99.95 -27.98,15 -50.75,46.44 -80.74,47.78 -30,1.33 -50.66,-25.26 -75.99,-37.88 11.81,28.2 34.2,55.08 35.43,84.62z"/>
       <path fill="#CCCCCC" d="M23929.53 12463.72c0.63,15.29 -9.85,27.86 -14.78,41.8 13.02,-6.52 25.3,-24.32 39.06,-19.57l43.37 14.97c2.11,0.73 -13.03,-22.93 -19.55,-34.39 -7.61,-13.39 9.24,-34.97 14.69,-51.74 -14.48,7.76 -26.27,24.04 -41.8,24.73 -15.53,0.69 -26.23,-13.07 -39.34,-19.61 6.12,14.6 17.71,28.52 18.35,43.81z"/>
       <path fill="#CCCCCC" d="M24261.38 12201.45c1.84,44.16 -28.45,80.48 -42.67,120.73 37.6,-18.84 73.06,-70.24 112.81,-56.51l125.26 43.24c6.11,2.11 -37.64,-66.23 -56.46,-99.33 -21.99,-38.69 26.7,-101.03 42.44,-149.47 -41.85,22.43 -75.89,69.45 -120.74,71.45 -44.86,2 -75.76,-37.77 -113.63,-56.65 17.66,42.18 51.14,82.37 52.99,126.54z"/>
      </g>
      <g>
       <path fill="#CCCCCC" d="M24950.22 12849.07c1.85,44.16 -28.44,80.48 -42.67,120.73 37.61,-18.84 73.06,-70.24 112.81,-56.51l125.27 43.24c6.11,2.11 -37.64,-66.23 -56.46,-99.33 -21.99,-38.69 26.69,-101.03 42.43,-149.47 -41.84,22.43 -75.88,69.45 -120.74,71.45 -44.85,1.99 -75.75,-37.77 -113.63,-56.65 17.67,42.18 51.15,82.37 52.99,126.54z"/>
       <path fill="#CCCCCC" d="M24590.34 12756.34c1.23,29.54 -19.02,53.83 -28.53,80.74 25.14,-12.6 48.85,-46.97 75.43,-37.79l83.77 28.92c4.09,1.41 -25.17,-44.29 -37.75,-66.43 -14.71,-25.87 17.85,-67.56 28.37,-99.95 -27.98,15 -50.74,46.44 -80.74,47.78 -29.99,1.33 -50.66,-25.26 -75.99,-37.89 11.82,28.21 34.21,55.09 35.44,84.62z"/>
       <path fill="#CCCCCC" d="M24618.37 13111.34c0.64,15.29 -9.85,27.86 -14.77,41.79 13.02,-6.52 25.29,-24.31 39.06,-19.56l43.36 14.97c2.12,0.73 -13.03,-22.93 -19.54,-34.39 -7.62,-13.39 9.24,-34.98 14.69,-51.75 -14.49,7.77 -26.27,24.05 -41.8,24.74 -15.53,0.69 -26.23,-13.08 -39.34,-19.61 6.11,14.6 17.7,28.51 18.34,43.81z"/>
       <path fill="#CCCCCC" d="M24950.22 12849.07c1.85,44.16 -28.44,80.48 -42.67,120.73 37.61,-18.84 73.06,-70.24 112.81,-56.51l125.27 43.24c6.11,2.11 -37.64,-66.23 -56.46,-99.33 -21.99,-38.69 26.69,-101.03 42.43,-149.47 -41.84,22.43 -75.88,69.45 -120.74,71.45 -44.85,1.99 -75.75,-37.77 -113.63,-56.65 17.67,42.18 51.15,82.37 52.99,126.54z"/>
      </g>
     </g>
     <g>
      <g>
       <path fill="#CCCCCC" d="M23595.51 15945.86c40.08,-42.22 41.49,-104.48 62.23,-156.73 21,51.26 11.66,132.96 62.98,153.77l161.72 65.58c7.89,3.2 -94.7,33.11 -142.04,49.65 -55.32,19.34 -61.01,123.35 -87.35,185.03 -22.08,-58.49 -15.13,-134.62 -57.9,-175.45 -42.77,-40.82 -107.87,-28.14 -161.8,-42.21 54.06,-26.55 122.08,-37.42 162.16,-79.64z"/>
       <path fill="#CCCCCC" d="M23158.18 15726.17c26.81,-28.24 27.74,-69.87 41.62,-104.81 14.03,34.27 7.79,88.91 42.11,102.82l108.15 43.86c5.27,2.14 -63.33,22.14 -94.99,33.21 -36.99,12.93 -40.8,82.48 -58.41,123.73 -14.77,-39.11 -10.12,-90.02 -38.72,-117.33 -28.6,-27.3 -72.13,-18.82 -108.2,-28.23 36.15,-17.75 81.64,-25.02 108.44,-53.25z"/>
       <path fill="#CCCCCC" d="M23493.44 15398.27c13.88,-14.62 14.36,-36.18 21.54,-54.26 7.27,17.74 4.04,46.03 21.81,53.23l55.99 22.71c2.73,1.11 -32.79,11.46 -49.18,17.19 -19.15,6.69 -21.12,42.7 -30.24,64.06 -7.65,-20.25 -5.24,-46.61 -20.05,-60.74 -14.81,-14.14 -37.34,-9.75 -56.01,-14.62 18.71,-9.19 42.26,-12.95 56.14,-27.57z"/>
      </g>
      <g>
       <path fill="#CCCCCC" d="M24838.69 16850.49c1.84,-44.16 -28.45,-80.48 -42.67,-120.73 37.6,18.84 73.06,70.24 112.81,56.51l125.26 -43.24c6.11,-2.11 -37.64,66.23 -56.46,99.33 -21.99,38.69 26.7,101.03 42.44,149.47 -41.85,-22.43 -75.89,-69.45 -120.74,-71.45 -44.86,-1.99 -75.76,37.77 -113.64,56.65 17.67,-42.18 51.15,-82.37 53,-126.54z"/>
       <path fill="#CCCCCC" d="M24478.8 16943.22c1.24,-29.54 -19.02,-53.83 -28.53,-80.74 25.15,12.6 48.86,46.97 75.44,37.79l83.76 -28.92c4.09,-1.41 -25.16,44.29 -37.75,66.43 -14.7,25.87 17.85,67.56 28.38,99.95 -27.98,-15 -50.75,-46.44 -80.74,-47.78 -30,-1.33 -50.66,25.26 -75.99,37.89 11.81,-28.21 34.2,-55.09 35.43,-84.62z"/>
       <path fill="#CCCCCC" d="M24506.84 16588.23c0.63,-15.3 -9.85,-27.87 -14.78,-41.8 13.02,6.52 25.3,24.31 39.06,19.56l43.37 -14.97c2.11,-0.73 -13.03,22.93 -19.55,34.39 -7.61,13.39 9.24,34.98 14.69,51.75 -14.48,-7.77 -26.27,-24.05 -41.8,-24.74 -15.53,-0.69 -26.23,13.08 -39.34,19.61 6.11,-14.6 17.71,-28.51 18.35,-43.8z"/>
       <path fill="#CCCCCC" d="M24838.69 16850.49c1.84,-44.16 -28.45,-80.48 -42.67,-120.73 37.6,18.84 73.06,70.24 112.81,56.51l125.26 -43.24c6.11,-2.11 -37.64,66.23 -56.46,99.33 -21.99,38.69 26.7,101.03 42.44,149.47 -41.85,-22.43 -75.89,-69.45 -120.74,-71.45 -44.86,-1.99 -75.76,37.77 -113.64,56.65 17.67,-42.18 51.15,-82.37 53,-126.54z"/>
      </g>
      <g>
       <path fill="#CCCCCC" d="M24456.02 15279.17c-40.08,-42.22 -41.49,-104.49 -62.23,-156.73 -20.99,51.25 -11.65,132.95 -62.97,153.76l-161.72 65.59c-7.89,3.2 94.69,33.1 142.03,49.65 55.32,19.33 61.02,123.34 87.35,185.03 22.09,-58.49 15.14,-134.62 57.91,-175.45 42.77,-40.83 107.86,-28.14 161.79,-42.21 -54.06,-26.55 -122.08,-37.43 -162.16,-79.64z"/>
       <path fill="#CCCCCC" d="M24893.35 15059.47c-26.8,-28.23 -27.74,-69.87 -41.61,-104.81 -14.04,34.28 -7.8,88.91 -42.12,102.83l-108.14 43.86c-5.28,2.14 63.32,22.14 94.98,33.2 37,12.93 40.8,82.49 58.42,123.74 14.76,-39.12 10.12,-90.03 38.72,-117.33 28.6,-27.3 72.13,-18.82 108.19,-28.23 -36.15,-17.75 -81.64,-25.03 -108.44,-53.26z"/>
       <path fill="#CCCCCC" d="M24558.09 14731.57c-13.87,-14.61 -14.36,-36.17 -21.54,-54.26 -7.27,17.75 -4.04,46.03 -21.8,53.24l-55.99 22.7c-2.74,1.11 32.78,11.47 49.17,17.19 19.15,6.7 21.13,42.71 30.24,64.06 7.65,-20.25 5.24,-46.6 20.05,-60.74 14.81,-14.13 37.34,-9.74 56.02,-14.61 -18.72,-9.19 -42.27,-12.96 -56.15,-27.58z"/>
      </g>
      <g>
       <path fill="#CCCCCC" d="M23677.76 14732.86c-1.85,-44.16 28.44,-80.48 42.67,-120.73 -37.61,18.84 -73.06,70.24 -112.81,56.51l-125.27 -43.24c-6.11,-2.11 37.64,66.23 56.46,99.33 21.99,38.69 -26.69,101.03 -42.43,149.47 41.84,-22.43 75.88,-69.45 120.73,-71.45 44.86,-2 75.76,37.77 113.64,56.65 -17.67,-42.18 -51.15,-82.37 -52.99,-126.54z"/>
       <path fill="#CCCCCC" d="M24037.64 14825.59c-1.23,-29.54 19.02,-53.83 28.53,-80.74 -25.14,12.6 -48.85,46.97 -75.44,37.79l-83.76 -28.92c-4.09,-1.41 25.17,44.29 37.75,66.43 14.71,25.87 -17.85,67.56 -28.37,99.95 27.98,-15 50.74,-46.44 80.74,-47.78 29.99,-1.33 50.66,25.26 75.99,37.88 -11.82,-28.2 -34.21,-55.08 -35.44,-84.61z"/>
       <path fill="#CCCCCC" d="M24009.61 14470.59c-0.64,-15.29 9.85,-27.86 14.77,-41.8 -13.02,6.53 -25.29,24.32 -39.06,19.57l-43.37 -14.97c-2.11,-0.73 13.04,22.93 19.55,34.39 7.61,13.39 -9.24,34.98 -14.69,51.75 14.49,-7.77 26.27,-24.05 41.8,-24.74 15.53,-0.69 26.23,13.07 39.34,19.61 -6.11,-14.6 -17.7,-28.52 -18.34,-43.81z"/>
       <path fill="#CCCCCC" d="M23677.76 14732.86c-1.85,-44.16 28.44,-80.48 42.67,-120.73 -37.61,18.84 -73.06,70.24 -112.81,56.51l-125.27 -43.24c-6.11,-2.11 37.64,66.23 56.46,99.33 21.99,38.69 -26.69,101.03 -42.43,149.47 41.84,-22.43 75.88,-69.45 120.73,-71.45 44.86,-2 75.76,37.77 113.64,56.65 -17.67,-42.18 -51.15,-82.37 -52.99,-126.54z"/>
      </g>
      <g>
       <path fill="#CCCCCC" d="M23997.7 13887.21c-1.84,-44.17 28.45,-80.49 42.67,-120.73 -37.6,18.83 -73.06,70.23 -112.81,56.51l-125.26 -43.25c-6.11,-2.11 37.64,66.23 56.45,99.34 21.99,38.68 -26.69,101.03 -42.43,149.46 41.84,-22.43 75.89,-69.45 120.74,-71.44 44.85,-2 75.76,37.76 113.63,56.64 -17.66,-42.17 -51.14,-82.37 -52.99,-126.53z"/>
       <path fill="#CCCCCC" d="M24357.58 13979.93c-1.23,-29.53 19.03,-53.82 28.54,-80.73 -25.15,12.59 -48.86,46.96 -75.44,37.79l-83.77 -28.92c-4.08,-1.41 25.17,44.29 37.76,66.42 14.7,25.87 -17.86,67.56 -28.38,99.96 27.98,-15 50.75,-46.45 80.74,-47.78 30,-1.34 50.66,25.25 75.99,37.88 -11.81,-28.21 -34.2,-55.08 -35.44,-84.62z"/>
       <path fill="#CCCCCC" d="M24329.55 13624.94c-0.64,-15.29 9.85,-27.87 14.77,-41.8 -13.01,6.52 -25.29,24.32 -39.05,19.56l-43.37 -14.97c-2.12,-0.73 13.03,22.93 19.55,34.39 7.61,13.4 -9.25,34.98 -14.7,51.75 14.49,-7.76 26.28,-24.04 41.81,-24.74 15.53,-0.69 26.22,13.08 39.34,19.62 -6.12,-14.61 -17.71,-28.52 -18.35,-43.81z"/>
       <path fill="#CCCCCC" d="M23997.7 13887.21c-1.84,-44.17 28.45,-80.49 42.67,-120.73 -37.6,18.83 -73.06,70.23 -112.81,56.51l-125.26 -43.25c-6.11,-2.11 37.64,66.23 56.45,99.34 21.99,38.68 -26.69,101.03 -42.43,149.46 41.84,-22.43 75.89,-69.45 120.74,-71.44 44.85,-2 75.76,37.76 113.63,56.64 -17.66,-42.17 -51.14,-82.37 -52.99,-126.53z"/>
      </g>
      <g>
       <path fill="#CCCCCC" d="M23308.86 13239.59c-1.85,-44.17 28.44,-80.49 42.66,-120.73 -37.6,18.84 -73.05,70.23 -112.81,56.51l-125.26 -43.24c-6.11,-2.11 37.64,66.23 56.46,99.33 21.99,38.69 -26.7,101.03 -42.43,149.47 41.84,-22.43 75.88,-69.46 120.73,-71.45 44.86,-2 75.76,37.76 113.64,56.65 -17.67,-42.18 -51.15,-82.37 -52.99,-126.54z"/>
       <path fill="#CCCCCC" d="M23668.74 13332.31c-1.24,-29.53 19.02,-53.82 28.53,-80.73 -25.14,12.59 -48.85,46.97 -75.44,37.79l-83.76 -28.92c-4.09,-1.41 25.16,44.29 37.75,66.43 14.71,25.87 -17.85,67.56 -28.38,99.95 27.98,-15 50.75,-46.45 80.74,-47.78 30,-1.33 50.66,25.26 75.99,37.88 -11.81,-28.2 -34.2,-55.08 -35.43,-84.62z"/>
       <path fill="#CCCCCC" d="M23640.71 12977.32c-0.64,-15.29 9.84,-27.87 14.77,-41.8 -13.02,6.52 -25.3,24.32 -39.06,19.57l-43.37 -14.97c-2.11,-0.74 13.03,22.92 19.55,34.39 7.61,13.39 -9.24,34.97 -14.69,51.74 14.48,-7.76 26.27,-24.04 41.8,-24.73 15.53,-0.69 26.23,13.07 39.34,19.61 -6.11,-14.6 -17.71,-28.52 -18.34,-43.81z"/>
       <path fill="#CCCCCC" d="M23308.86 13239.59c-1.85,-44.17 28.44,-80.49 42.66,-120.73 -37.6,18.84 -73.05,70.23 -112.81,56.51l-125.26 -43.24c-6.11,-2.11 37.64,66.23 56.46,99.33 21.99,38.69 -26.7,101.03 -42.43,149.47 41.84,-22.43 75.88,-69.46 120.73,-71.45 44.86,-2 75.76,37.76 113.64,56.65 -17.67,-42.18 -51.15,-82.37 -52.99,-126.54z"/>
      </g>
     </g>
     <g>
      <g>
       <path fill="url(#id7)" fill-opacity="0.101961" d="M24097.13 8509.73c6510.25,0 11787.18,5276.92 11787.18,11787.18 0,6510.25 -5276.93,11787.18 -11787.18,11787.18 -6510.26,0 -11787.18,-5276.93 -11787.18,-11787.18 0,-6510.26 5276.92,-11787.18 11787.18,-11787.18z"/>
       <path fill="url(#id8)" fill-opacity="0.168627" d="M24097.13 12293c4420.69,0 8003.91,3583.21 8003.91,8003.91 0,4420.69 -3583.22,8003.91 -8003.91,8003.91 -4420.7,0 -8003.91,-3583.22 -8003.91,-8003.91 0,-4420.7 3583.21,-8003.91 8003.91,-8003.91z"/>
       <path fill="url(#id9)" fill-opacity="0.160784" d="M24097.13 15414.23c2696.78,0 4882.68,2185.89 4882.68,4882.68 0,2696.78 -2185.9,4882.68 -4882.68,4882.68 -2696.79,0 -4882.68,-2185.9 -4882.68,-4882.68 0,-2696.79 2185.89,-4882.68 4882.68,-4882.68z"/>
       <path fill="url(#id10)" fill-opacity="0.380392" d="M24097.13 17873.23c1338.63,0 2423.67,1085.04 2423.67,2423.68 0,1338.63 -1085.04,2423.67 -2423.67,2423.67 -1338.64,0 -2423.68,-1085.04 -2423.68,-2423.67 0,-1338.64 1085.04,-2423.68 2423.68,-2423.68z"/>
      </g>
      <path fill="url(#id11)" d="M24103.82 20637.99l0.01 0c150.87,0 276.17,114.74 293.04,261.3 2.08,14.86 3.09,29.98 2.97,45.18l4599.02 13967.76c50.75,154.1 -42.09,348.76 -178.06,377.27 -174.43,36.59 -337.17,-56.24 -377.28,-178.05l-651.11 -1977.5 -3340.63 2026.3c-17.18,10.43 -34.88,19.25 -52.96,26.58l0 2144.54c0,162.3 -132.74,295.02 -294.99,295.02l-0.01 0c-162.26,0 -294.99,-132.72 -294.99,-295.02l0 -2118.42c-56.93,-4.01 -113.7,-21.2 -165.61,-52.7l-3257.91 -1976.12 -634.59 1927.32c-40.11,121.81 -202.85,214.64 -377.28,178.05 -135.97,-28.51 -228.81,-223.17 -178.06,-377.27l4599.07 -13967.9c-0.98,-123.2 72.02,-238.95 193.64,-282.55 35.58,-15.31 74.71,-23.79 115.73,-23.79zm-2358.03 8422.97l2063.04 1192.3 0 -3194.45c-37.03,-10.29 -72.92,-26.87 -106.13,-49.99l-1044.59 -727.46 -914.76 2778.24 2.44 1.36zm2063.04 1938.35c-66.91,4.23 -135.66,-10.41 -197.74,-46.29l-2092.9 -1209.57 -894.1 2715.48 3184.74 1931.76 0 -3391.38zm0 -4775.41l0 -3437.39 -920.67 2796.21 920.67 641.18zm1421.74 -657.71l-831.75 579.26 0 -3318.21 890.9 2705.75c-20.39,8.97 -40.21,20.01 -59.15,33.2zm-831.75 1438.09l1118.78 -779.14 921.71 2799.29c-30.91,7.74 -61.23,19.85 -90.1,36.53l-1950.39 1127.21 0 -3183.89zm0 3983.95c29.16,-7.78 57.78,-19.43 85.08,-35.21l2176.28 -1257.76 893.51 2713.68c-3.29,1.86 -6.57,3.76 -9.81,5.73l-3145.06 1907.68 0 -3334.12z"/>
      <circle fill="url(#id12)" cx="24097.13" cy="20296.91" r="634.52"/>
     </g>
     <path fill="#CCCCCC" fill-opacity="0.250980" d="M6412.56 9226.25c-263.66,10.16 -377.84,-320.72 79.29,-319.71 102.1,0.23 -140.69,-162.56 149.41,-352.69 290.11,-190.13 435.51,-49.08 488.33,-87.81 52.82,-38.72 -38.54,-253.92 304.64,-466.48 343.17,-212.57 758,-116.09 1017.91,22.4 259.92,138.5 80.66,289.4 373.5,289.4 292.85,0 556.23,262.24 465.38,462.25 -90.85,200.02 -225.13,78.52 175.8,133.76 400.93,55.23 203.37,308.46 6.79,311.06 -943.76,12.46 -2212.56,-24.86 -3061.05,7.82z"/>
     <path fill="#CCCCCC" fill-opacity="0.250980" d="M10827.16 7489.65c-263.66,10.16 -377.84,-320.72 79.29,-319.71 102.1,0.23 -140.69,-162.56 149.42,-352.69 290.1,-190.13 435.5,-49.08 488.32,-87.81 52.83,-38.72 -38.54,-253.92 304.64,-466.48 343.17,-212.57 758,-116.09 1017.92,22.4 259.91,138.5 80.65,289.4 373.49,289.4 292.85,0 556.23,262.24 465.38,462.25 -90.85,200.02 -225.12,78.52 175.81,133.75 400.93,55.24 203.37,308.47 6.78,311.07 -943.76,12.46 -2212.56,-24.86 -3061.05,7.82z"/>
     <path fill="#CCCCCC" fill-opacity="0.250980" d="M32584.9 14355.12c-386.04,14.86 -553.22,-469.61 116.09,-468.12 149.49,0.33 -205.99,-238.02 218.77,-516.4 424.76,-278.38 637.66,-71.87 715,-128.57 77.34,-56.69 -56.43,-371.78 446.04,-683.02 502.47,-311.23 1109.85,-169.97 1490.41,32.81 380.56,202.79 118.09,423.73 546.87,423.73 428.78,0 814.41,383.96 681.39,676.82 -133.03,292.86 -329.62,114.96 257.41,195.84 587.03,80.87 297.77,451.65 9.93,455.45 -1381.83,18.25 -3239.57,-36.4 -4481.91,11.46z"/>
     <path fill="#CCCCCC" fill-opacity="0.250980" d="M38639.22 11315.64c-108.38,4.18 -155.32,-131.84 32.59,-131.42 41.97,0.09 -57.83,-66.83 61.42,-144.98 119.26,-78.16 179.03,-20.18 200.74,-36.1 21.72,-15.92 -15.84,-104.38 125.23,-191.76 141.07,-87.38 311.59,-47.72 418.44,9.21 106.84,56.93 33.15,118.97 153.53,118.97 120.38,0 228.65,107.79 191.3,190.01 -37.34,82.23 -92.54,32.28 72.27,54.99 164.81,22.7 83.6,126.8 2.79,127.87 -387.95,5.12 -909.52,-10.22 -1258.31,3.21z"/>
     <path fill="#E6E6E6" d="M20702.88 8150.31c-712.17,27.43 -1020.59,-866.33 214.17,-863.58 275.77,0.61 -380.02,-439.11 403.59,-952.67 783.6,-513.56 1176.35,-132.58 1319.03,-237.17 142.68,-104.59 -104.1,-685.88 822.86,-1260.04 926.95,-574.17 2047.46,-313.57 2749.51,60.52 702.06,374.1 217.85,781.71 1008.87,781.71 791.01,0 1502.44,708.32 1257.03,1248.59 -245.4,540.27 -608.09,212.08 474.87,361.28 1082.96,149.2 549.33,833.21 18.33,840.22 -2549.21,33.67 -5976.39,-67.15 -8268.26,21.14z"/>
    </g>
   </g>
  </g>
  <polygon fill="none" points="-2.07,2.07 49997.93,2.07 49997.93,50002.07 -2.07,50002.07 "/>
 </g>
</svg>
