<?xml version="1.0" encoding="UTF-8"?>
<!DOCTYPE svg PUBLIC "-//W3C//DTD SVG 1.1//EN" "http://www.w3.org/Graphics/SVG/1.1/DTD/svg11.dtd">
<!-- Creator: CorelDRAW 2019 (64-Bit) -->
<svg xmlns="http://www.w3.org/2000/svg" xml:space="preserve" width="500mm" height="500mm" version="1.1" shape-rendering="geometricPrecision" text-rendering="geometricPrecision" image-rendering="optimizeQuality" fill-rule="evenodd" clip-rule="evenodd"
viewBox="0 0 50000 50000"
 xmlns:xlink="http://www.w3.org/1999/xlink">
 <defs>
   <clipPath id="id0">
    <path d="M-2.07 2.07l50000 0 0 50000 -50000 0 0 -50000z"/>
   </clipPath>
      <clipPath id="id1">
       <path d="M19207.89 27107.64l0 0c-366.13,-280.75 -435.99,-810 -155.24,-1176.12l2143.21 -2794.97c280.75,-366.13 810,-435.98 1176.13,-155.23l0 0c366.13,280.75 435.98,810 155.23,1176.13l-2143.21 2794.97c-280.75,366.12 -809.99,435.98 -1176.12,155.22z"/>
      </clipPath>
      <clipPath id="id2">
       <path d="M-2.07 2.07l50000 0 0 50000 -50000 0 0 -50000z"/>
      </clipPath>
        <linearGradient id="id3" gradientUnits="userSpaceOnUse" x1="14099.18" y1="23210.91" x2="15413.2" y2="26135.54">
         <stop offset="0" stop-opacity="1" stop-color="#FF9F43"/>
         <stop offset="1" stop-opacity="1" stop-color="#FED136"/>
        </linearGradient>
        <linearGradient id="id4" gradientUnits="userSpaceOnUse" x1="19215.16" y1="26396.72" x2="16109.58" y2="27193.9">
         <stop offset="0" stop-opacity="1" stop-color="#FF9F43"/>
         <stop offset="1" stop-opacity="1" stop-color="#FED136"/>
        </linearGradient>
        <linearGradient id="id5" gradientUnits="userSpaceOnUse" x1="16810.66" y1="21394.06" x2="20612.04" y2="24201.23">
         <stop offset="0" stop-opacity="1" stop-color="#FF9F43"/>
         <stop offset="1" stop-opacity="1" stop-color="#FED136"/>
        </linearGradient>
       <clipPath id="id6">
        <path d="M21995.71 18360.45c93.21,68.83 527.99,861.05 156.25,2657.41 -449.78,2173.58 -2504.31,4484.59 -3666.42,5738.3 -1162.12,1253.7 -2567.8,841.11 -3079.44,463.27 -511.65,-377.84 511.64,377.84 -0.01,-0.01 -511.65,-377.83 -1220.28,-1743.21 -384.66,-3159.23 835.63,-1416.03 2770.22,-4373.57 4474.64,-5134.9 1704.41,-761.32 2406.45,-633.67 2499.64,-564.84z"/>
       </clipPath>
         <linearGradient id="id7" gradientUnits="userSpaceOnUse" x1="11049.86" y1="23991.83" x2="10116.19" y2="23302.34">
          <stop offset="0" stop-opacity="1" stop-color="#FF9F43"/>
          <stop offset="1" stop-opacity="1" stop-color="#FED136"/>
         </linearGradient>
        <clipPath id="id8">
         <path d="M19662.29 21513.73c455.13,336.11 551.63,977.52 215.54,1432.66 -336.1,455.13 -977.52,551.62 -1432.66,215.52 -455.12,-336.09 -551.62,-977.51 -215.52,-1432.64 336.09,-455.13 977.51,-551.63 1432.64,-215.54z"/>
        </clipPath>
          <clipPath id="id9">
           <path d="M19662.29 21513.73c455.13,336.11 551.63,977.52 215.54,1432.66 -336.1,455.13 -977.52,551.62 -1432.66,215.52 -455.12,-336.09 -551.62,-977.51 -215.52,-1432.64 336.09,-455.13 977.51,-551.63 1432.64,-215.54z"/>
          </clipPath>
          <clipPath id="id10">
           <path d="M19662.29 21513.73c455.13,336.11 551.63,977.52 215.54,1432.66 -336.1,455.13 -977.52,551.62 -1432.66,215.52 -455.12,-336.09 -551.62,-977.51 -215.52,-1432.64 336.09,-455.13 977.51,-551.63 1432.64,-215.54z"/>
          </clipPath>
        <clipPath id="id11">
         <path d="M21995.71 18360.45c93.21,68.83 527.99,861.05 156.25,2657.41 -449.78,2173.58 -2504.31,4484.59 -3666.42,5738.3 -1162.12,1253.7 -2567.8,841.11 -3079.44,463.27 -511.65,-377.84 511.64,377.84 -0.01,-0.01 -511.65,-377.83 -1220.28,-1743.21 -384.66,-3159.23 835.63,-1416.03 2770.22,-4373.57 4474.64,-5134.9 1704.41,-761.32 2406.45,-633.67 2499.64,-564.84z"/>
        </clipPath>
       <clipPath id="id12">
        <path d="M-2.07 2.07l50000 0 0 50000 -50000 0 0 -50000z"/>
       </clipPath>
      <clipPath id="id13">
       <path d="M18875.92 22929.44l2859.53 274.29c280.44,26.9 487.86,278.35 460.96,558.78l0 0.01c-26.9,280.43 -278.34,487.86 -558.77,460.96l-2859.54 -274.3c-280.43,-26.9 -487.86,-278.34 -460.96,-558.77l0 -0.01c26.9,-280.43 278.35,-487.86 558.78,-460.96z"/>
      </clipPath>
      <clipPath id="id14">
       <path d="M-2.07 2.07l50000 0 0 50000 -50000 0 0 -50000z"/>
      </clipPath>
        <linearGradient id="id15" gradientUnits="userSpaceOnUse" x1="14513.1" y1="28196.89" x2="12310.49" y2="30441.9">
         <stop offset="0" stop-opacity="1" stop-color="#F4F4F4"/>
         <stop offset="1" stop-opacity="1" stop-color="#CCCCCC"/>
        </linearGradient>
        <linearGradient id="id16" gradientUnits="userSpaceOnUse" x1="15556.55" y1="27986.87" x2="13353.94" y2="30231.87">
         <stop offset="0" stop-opacity="1" stop-color="#F4F4F4"/>
         <stop offset="1" stop-opacity="1" stop-color="#CCCCCC"/>
        </linearGradient>
        <linearGradient id="id17" gradientUnits="userSpaceOnUse" x1="15411.76" y1="29010.39" x2="13209.15" y2="31255.39">
         <stop offset="0" stop-opacity="1" stop-color="#F4F4F4"/>
         <stop offset="1" stop-opacity="1" stop-color="#CCCCCC"/>
        </linearGradient>
      <linearGradient id="id18" gradientUnits="userSpaceOnUse" x1="12894.42" y1="36126.88" x2="18134.72" y2="36126.88">
       <stop offset="0" stop-opacity="1" stop-color="#FED136"/>
       <stop offset="1" stop-opacity="1" stop-color="#FF9F43"/>
      </linearGradient>
      <linearGradient id="id19" gradientUnits="userSpaceOnUse" x1="18883.83" y1="35016.6" x2="24124.12" y2="35016.6">
       <stop offset="0" stop-opacity="1" stop-color="#FED136"/>
       <stop offset="1" stop-opacity="1" stop-color="#FF9F43"/>
      </linearGradient>
      <linearGradient id="id20" gradientUnits="userSpaceOnUse" x1="24849.28" y1="33515.3" x2="30089.57" y2="33515.3">
       <stop offset="0" stop-opacity="1" stop-color="#FED136"/>
       <stop offset="1" stop-opacity="1" stop-color="#FF9F43"/>
      </linearGradient>
      <linearGradient id="id21" gradientUnits="userSpaceOnUse" x1="30527.23" y1="32470.28" x2="35767.53" y2="32470.28">
       <stop offset="0" stop-opacity="1" stop-color="#FED136"/>
       <stop offset="1" stop-opacity="1" stop-color="#FF9F43"/>
      </linearGradient>
      <linearGradient id="id22" gradientUnits="userSpaceOnUse" x1="22209.55" y1="17058.67" x2="23396.83" y2="17896.86">
       <stop offset="0" stop-opacity="1" stop-color="#FF9F43"/>
       <stop offset="1" stop-opacity="1" stop-color="#FED136"/>
      </linearGradient>
       <linearGradient id="id23" gradientUnits="userSpaceOnUse" x1="26869.83" y1="10183.27" x2="27712.59" y2="10183.27">
        <stop offset="0" stop-opacity="1" stop-color="#FF9F43"/>
        <stop offset="1" stop-opacity="1" stop-color="#FED136"/>
       </linearGradient>
       <linearGradient id="id24" gradientUnits="userSpaceOnUse" x1="27062.37" y1="13083.96" x2="38981.81" y2="13083.96">
        <stop offset="0" stop-opacity="1" stop-color="#FF9F43"/>
        <stop offset="1" stop-opacity="1" stop-color="#FED136"/>
       </linearGradient>
       <linearGradient id="id25" gradientUnits="userSpaceOnUse" x1="26094" y1="18840.37" x2="38013.44" y2="18840.37">
        <stop offset="0" stop-opacity="1" stop-color="#FED136"/>
        <stop offset="1" stop-opacity="1" stop-color="#FF9F43"/>
       </linearGradient>
       <linearGradient id="id26" gradientUnits="userSpaceOnUse" x1="37535.37" y1="18147.15" x2="39218.27" y2="21138.97">
        <stop offset="0" stop-opacity="1" stop-color="#FF9F43"/>
        <stop offset="1" stop-opacity="1" stop-color="#FED136"/>
       </linearGradient>
       <clipPath id="id27">
        <path d="M35123.35 17479.03l5077.4 0 0 5099.04 -5077.4 0 0 -5099.04z"/>
       </clipPath>
       <clipPath id="id28">
        <path d="M-2.07 2.07l50000 0 0 50000 -50000 0 0 -50000z"/>
       </clipPath>
      <clipPath id="id29">
       <path d="M37662.05 18067.38c1078.53,0 1952.85,874.32 1952.85,1952.85 0,1078.53 -874.32,1952.85 -1952.85,1952.85 -1078.53,0 -1952.85,-874.32 -1952.85,-1952.85 0,-1078.53 874.32,-1952.85 1952.85,-1952.85z"/>
      </clipPath>
        <linearGradient id="id30" gradientUnits="userSpaceOnUse" x1="37508.88" y1="20064.91" x2="37876.64" y2="20064.91">
         <stop offset="0" stop-opacity="1" stop-color="#FF9F43"/>
         <stop offset="1" stop-opacity="1" stop-color="#FED136"/>
        </linearGradient>
      <clipPath id="id31">
       <path d="M-2.07 2.07l50000 0 0 50000 -50000 0 0 -50000z"/>
      </clipPath>
      <linearGradient id="id32" gradientUnits="userSpaceOnUse" x1="26672.86" y1="22201.08" x2="27504.66" y2="22201.08">
       <stop offset="0" stop-opacity="1" stop-color="#FF9F43"/>
       <stop offset="1" stop-opacity="1" stop-color="#FED136"/>
      </linearGradient>
     <clipPath id="id33">
      <path d="M27088.76 21785.18c229.69,0 415.9,186.21 415.9,415.91 0,229.69 -186.21,415.89 -415.9,415.89 -229.7,0 -415.91,-186.2 -415.91,-415.89 0,-229.7 186.21,-415.91 415.91,-415.91z"/>
     </clipPath>
     <clipPath id="id34">
      <path d="M-2.07 2.07l50000 0 0 50000 -50000 0 0 -50000z"/>
     </clipPath>
      <linearGradient id="id35" gradientUnits="userSpaceOnUse" x1="24307.49" y1="16142.89" x2="25494.77" y2="16981.09">
       <stop offset="0" stop-opacity="1" stop-color="#FF9F43"/>
       <stop offset="1" stop-opacity="1" stop-color="#FED136"/>
      </linearGradient>
      <linearGradient id="id36" gradientUnits="userSpaceOnUse" x1="37959.66" y1="18084.47" x2="39792.19" y2="18084.47">
       <stop offset="0" stop-opacity="1" stop-color="#FF9F43"/>
       <stop offset="1" stop-opacity="1" stop-color="#FED136"/>
      </linearGradient>
     <clipPath id="id37">
      <path d="M38875.92 17168.2c506.04,0 916.27,410.23 916.27,916.27 0,506.04 -410.23,916.26 -916.27,916.26 -506.03,0 -916.25,-410.22 -916.25,-916.26 0,-506.04 410.22,-916.27 916.25,-916.27z"/>
     </clipPath>
     <clipPath id="id38">
      <path d="M-2.07 2.07l50000 0 0 50000 -50000 0 0 -50000z"/>
     </clipPath>
 </defs>
 <g id="Layer_x0020_1">
  <metadata id="CorelCorpID_0Corel-Layer"/>
  <g>
  </g>
  <g clip-path="url(#id0)">
   <g>
    <g id="_1677317820816">
     <g>
      <!-- <path fill="#F4F4F4" fill-opacity="0.619608" d="M7522.81 16073.18c-4136.4,-2232.37 -1436.73,-9606.74 4274.81,-12312.82 5711.56,-2706.08 11282.06,-2146.23 13140.31,332.92 1858.24,2479.15 4030.23,2547.15 10491.35,3324.61 6461.11,777.45 13665.04,1253.53 10425.73,9951.85 -3239.33,8698.3 575.14,4922.34 2532.33,12476.85 1957.19,7554.51 -9065.43,5183.63 -12654.29,10333.41 -3588.86,5149.76 -5204.56,8102.47 -12530.33,7839.96 -7325.76,-262.53 -6131.04,-5640.56 -10491.36,-7385.52 -4360.32,-1744.97 -12902.82,-4450.15 -10561.85,-10454.9 2340.97,-6004.74 9509.69,-11873.99 5373.3,-14106.36z"/>
      <path fill="#FCFCFC" fill-opacity="0.619608" d="M7416.9 15784.17c-4051.6,-2186.61 -1407.28,-9409.81 4187.19,-12060.41 5594.46,-2650.61 11050.77,-2102.23 12870.92,326.1 1820.15,2428.32 3947.61,2494.92 10276.28,3256.45 6328.65,761.52 13384.91,1227.83 10212,9747.82 -3172.93,8520 563.35,4821.44 2480.42,12221.08 1917.07,7399.64 -8879.59,5077.38 -12394.88,10121.58 -3515.28,5044.18 -5097.87,7936.37 -12273.45,7679.23 -7175.59,-257.14 -6005.35,-5524.92 -10276.28,-7234.11 -4270.94,-1709.2 -12638.32,-4358.93 -10345.34,-10240.57 2292.98,-5881.65 9314.74,-11630.56 5263.14,-13817.17z"/> -->
     </g>
     <g>
      <path fill="#E6E6E6" d="M19207.89 27107.64l0 0c-366.13,-280.75 -435.99,-810 -155.24,-1176.12l2143.21 -2794.97c280.75,-366.13 810,-435.98 1176.13,-155.23l0 0c366.13,280.75 435.98,810 155.23,1176.13l-2143.21 2794.97c-280.75,366.12 -809.99,435.98 -1176.12,155.22z"/>
     </g>
     <g clip-path="url(#id1)">
      <g>
       <rect fill="#CCCCCC" transform="matrix(0.778331 -0.0858435 0.0858435 0.778331 18546.3 21940.5)" width="11133.67" height="14520.33" rx="5311.7" ry="5311.7"/>
      </g>
     </g>
     <g clip-path="url(#id2)">
      <path fill="none" d="M19207.89 27107.64l0 0c-366.13,-280.75 -435.99,-810 -155.24,-1176.12l2143.21 -2794.97c280.75,-366.13 810,-435.98 1176.13,-155.23l0 0c366.13,280.75 435.98,810 155.23,1176.13l-2143.21 2794.97c-280.75,366.12 -809.99,435.98 -1176.12,155.22z"/>
      <g>
       <path fill="url(#id3)" d="M17097.85 24073.5c860.53,1913.84 -118.75,912.88 -808.01,1222.57 -689.28,309.68 -2002.81,261.1 -2685.6,289.6 -682.78,28.5 -998.55,-28.03 -1138.34,-203.42 -139.79,-175.4 571.23,-1217.42 1109.52,-1722.21 968.8,-908.49 2661.91,-1500.38 3522.43,413.46z"/>
       <path fill="url(#id4)" d="M16670.51 24590.94c-2032.66,521.14 -639.46,662.22 -451.59,1394.14 187.88,731.92 1045.17,1728.29 1448.79,2279.75 403.61,551.47 644.76,763.01 869.05,762.88 224.28,-0.15 595.25,-1205.86 654.03,-1941.47 105.82,-1323.9 -487.63,-3016.46 -2520.28,-2495.3z"/>
       <path fill="url(#id5)" d="M21995.71 18360.45c93.21,68.83 527.99,861.05 156.25,2657.41 -449.78,2173.58 -2504.31,4484.59 -3666.42,5738.3 -1162.12,1253.7 -2567.8,841.11 -3079.44,463.27 -511.65,-377.84 511.64,377.84 -0.01,-0.01 -511.65,-377.83 -1220.28,-1743.21 -384.66,-3159.23 835.63,-1416.03 2770.22,-4373.57 4474.64,-5134.9 1704.41,-761.32 2406.45,-633.67 2499.64,-564.84z"/>
      </g>
      <g clip-path="url(#id6)">
       <g>
        <circle fill="#FF9F43" transform="matrix(0.843133 0.622623 -0.622623 0.843133 21776.6 18650.7)" r="2156.35"/>
        <path fill="url(#id7)" d="M11845.34 21937.72c-257.83,-190.4 -1032,420.57 -1729.15,1364.62 -697.15,944.06 -1053.29,1863.72 -795.47,2054.11 257.82,190.4 1031.99,-420.56 1729.15,-1364.62 697.14,-944.06 1053.29,-1863.72 795.47,-2054.11z"/>
        <circle fill="#FF9F43" transform="matrix(0.843133 0.622623 -0.622623 0.843133 15970.3 26670.2)" r="2156.35"/>
        <path fill="#606060" d="M19662.29 21513.73c455.13,336.11 551.63,977.52 215.54,1432.66 -336.1,455.13 -977.52,551.62 -1432.66,215.52 -455.12,-336.09 -551.62,-977.51 -215.52,-1432.64 336.09,-455.13 977.51,-551.63 1432.64,-215.54z"/>
       </g>
       <g clip-path="url(#id8)">
        <g>
         <g clip-path="url(#id10)">
         </g>
         <circle fill="white" transform="matrix(0.266931 0.197119 -0.197119 0.266931 19054.2 22336)" r="2156.35"/>
        </g>
       </g>
       <g clip-path="url(#id11)">
        <path fill="none" d="M19662.29 21513.73c455.13,336.11 551.63,977.52 215.54,1432.66 -336.1,455.13 -977.52,551.62 -1432.66,215.52 -455.12,-336.09 -551.62,-977.51 -215.52,-1432.64 336.09,-455.13 977.51,-551.63 1432.64,-215.54z"/>
       </g>
      </g>
      <g clip-path="url(#id12)">
       <path fill="none" d="M21995.71 18360.45c93.21,68.83 527.99,861.05 156.25,2657.41 -449.78,2173.58 -2504.31,4484.59 -3666.42,5738.3 -1162.12,1253.7 -2567.8,841.11 -3079.44,463.27 -511.65,-377.84 511.64,377.84 -0.01,-0.01 -511.65,-377.83 -1220.28,-1743.21 -384.66,-3159.23 835.63,-1416.03 2770.22,-4373.57 4474.64,-5134.9 1704.41,-761.32 2406.45,-633.67 2499.64,-564.84z"/>
      </g>
      <rect fill="#3C3C3C" transform="matrix(-0.666477 -0.511061 0.511061 -0.666477 18231.3 29779.5)" width="1997.61" height="6191.25" rx="665.38" ry="665.38"/>
      <path fill="#606060" d="M21469.53 29861.19l382.8 117.48c335.81,103.06 690.35,-88.78 797.93,-423.15l755.87 -2349.47c22.62,-70.3 30.32,-142.23 27.42,-212.28 1.09,-213.36 -103.93,-423.39 -296.79,-544.83l-2563.69 -1614.25c-297.24,-187.16 -693.41,-98.3 -881.09,198.61l-213.95 338.47c-187.67,296.91 -98.74,694.12 198.61,881.08l1900.34 1194.94 -530.61 1615.47c-109.6,333.7 87.36,694.87 423.16,797.93z"/>
      <g>
       <ellipse fill="#FBB9AB" transform="matrix(0.416513 0.232734 -0.347235 0.621431 23169.8 21781.6)" rx="2293.05" ry="1887.36"/>
       <path fill="#051934" d="M22170.65 21399.16c-55.78,76.97 -158.64,53.56 -163.22,-56.54 -4.59,-110.11 207.4,-1024.67 692.98,-1001.7 464.03,-323.78 937.36,-227.64 1472.18,227.43 653.32,636.76 287.82,1656.47 -26.34,1801.59 -314.17,145.13 217.03,-474.99 3.69,-576.6 -213.34,-101.61 -1068.69,-322.71 -1467.47,-1068.6 -265.59,186.1 -414.53,411.87 -511.82,674.42z"/>
       <g>
        <path fill="#334C62" fill-rule="nonzero" d="M23185.31 20576.62c-5,-10.55 -0.5,-23.19 10.05,-28.19 10.55,-5 23.19,-0.5 28.19,10.05l-38.24 18.14zm1182.62 878.74l-7.84 41.6 -79.72 -16.45 -75.91 -18.47 -72.19 -20.38 -68.6 -22.17 -65.08 -23.83 -61.68 -25.38 -58.39 -26.79 -55.2 -28.11 -52.1 -29.28 -49.11 -30.34 -46.22 -31.27 -43.44 -32.08 -40.76 -32.76 -38.18 -33.31 -35.72 -33.75 -33.34 -34.04 -31.08 -34.22 -28.93 -34.27 -26.88 -34.18 -24.94 -33.98 -23.11 -33.65 -21.38 -33.2 -19.78 -32.6 -18.26 -31.89 -16.87 -31.05 -15.57 -30.07 -14.41 -28.99 -13.32 -27.76 -12.34 -26.39 -11.49 -24.9 -10.73 -23.27 -10.05 -21.51 38.24 -18.14 10.21 21.83 10.77 23.37 11.43 24.78 12.22 26.11 13.1 27.3 14.11 28.41 15.23 29.39 16.43 30.27 17.76 31.01 19.2 31.66 20.74 32.18 22.37 32.59 24.14 32.88 25.98 33.06 27.97 33.11 30.02 33.06 32.22 32.9 34.5 32.61 36.9 32.19 39.42 31.68 42.04 31.04 44.78 30.29 47.61 29.42 50.58 28.44 53.66 27.31 56.83 26.09 60.14 24.74 63.54 23.27 67.06 21.67 70.69 19.96 74.43 18.11 78.3 16.15zm0 0c11.48,2.16 19.04,13.24 16.88,24.72 -2.16,11.48 -13.24,19.04 -24.72,16.88l7.84 -41.6z"/>
       </g>
       <g>
        <path fill="#233957" fill-rule="nonzero" d="M23577.87 20554.64c-5,-10.55 -0.5,-23.19 10.05,-28.19 10.55,-5 23.19,-0.5 28.19,10.05l-38.24 18.14zm716.37 525.42l-11.54 40.72 -45.22 -13.52 -43.25 -14.32 -41.31 -15.06 -39.43 -15.75 -37.6 -16.38 -35.81 -16.99 -34.07 -17.51 -32.37 -18.01 -30.74 -18.44 -29.15 -18.83 -27.59 -19.15 -26.09 -19.42 -24.65 -19.66 -23.24 -19.82 -21.88 -19.93 -20.58 -19.99 -19.32 -20.01 -18.1 -19.95 -16.94 -19.85 -15.85 -19.7 -14.77 -19.48 -13.76 -19.2 -12.81 -18.9 -11.89 -18.51 -11.04 -18.08 -10.22 -17.59 -9.47 -17.04 -8.76 -16.45 -8.09 -15.78 -7.49 -15.07 -6.92 -14.29 -6.42 -13.46 38.24 -18.14 6.32 13.26 6.78 13.97 7.27 14.65 7.83 15.24 8.42 15.83 9.09 16.36 9.78 16.85 10.54 17.26 11.35 17.67 12.21 18 13.1 18.3 14.07 18.54 15.07 18.74 16.12 18.89 17.24 18.99 18.4 19.05 19.6 19.05 20.86 19.01 22.18 18.92 23.55 18.78 24.97 18.58 26.43 18.35 27.97 18.07 29.54 17.72 31.17 17.33 32.85 16.89 34.59 16.41 36.38 15.86 38.23 15.27 40.11 14.62 42.05 13.92 44.06 13.18zm0 0c11.24,3.18 17.77,14.89 14.59,26.13 -3.18,11.24 -14.89,17.77 -26.13,14.59l11.54 -40.72z"/>
       </g>
       <ellipse fill="#FBB9AB" transform="matrix(0.354715 0.198203 -0.198203 0.354715 22073.1 21408.9)" rx="432.15" ry="657.04"/>
       <ellipse fill="#FBB9AB" transform="matrix(0.354715 0.198203 -0.198203 0.354715 24010.5 22491.4)" rx="432.15" ry="657.04"/>
      </g>
      <path fill="#CCCCCC" d="M18875.92 22929.44l2859.53 274.29c280.44,26.9 487.86,278.35 460.96,558.78l0 0.01c-26.9,280.43 -278.34,487.86 -558.77,460.96l-2859.54 -274.3c-280.43,-26.9 -487.86,-278.34 -460.96,-558.77l0 -0.01c26.9,-280.43 278.35,-487.86 558.78,-460.96z"/>
     </g>
     <g clip-path="url(#id13)">
      <g id="_1677324183984">
       <circle fill="#FBB9AB" cx="18684.64" cy="23467.05" r="737.82"/>
      </g>
     </g>
     <g clip-path="url(#id14)">
      <path fill="none" d="M18875.92 22929.44l2859.53 274.29c280.44,26.9 487.86,278.35 460.96,558.78l0 0.01c-26.9,280.43 -278.34,487.86 -558.77,460.96l-2859.54 -274.3c-280.43,-26.9 -487.86,-278.34 -460.96,-558.77l0 -0.01c26.9,-280.43 278.35,-487.86 558.78,-460.96z"/>
      <g id="_1677324184432">
       <path fill="url(#id15)" d="M12732.86 29254.89l1268.35 -1307.56c86.3,-88.98 229.71,-91.16 318.69,-4.85l0 0c88.98,86.31 91.17,229.72 4.86,318.7l-1268.35 1307.56c-86.3,88.98 -229.72,91.16 -318.7,4.85l0 0c-88.97,-86.31 -91.16,-229.72 -4.85,-318.7z"/>
       <path fill="url(#id16)" d="M13776.31 29044.86l1268.35 -1307.56c86.3,-88.97 229.71,-91.16 318.69,-4.85l0 0c88.98,86.31 91.17,229.72 4.86,318.7l-1268.34 1307.56c-86.31,88.98 -229.73,91.16 -318.71,4.85l0 0c-88.97,-86.31 -91.16,-229.72 -4.85,-318.7z"/>
       <path fill="url(#id17)" d="M13631.52 30068.39l1268.34 -1307.56c86.31,-88.98 229.72,-91.16 318.7,-4.85l0 0c88.97,86.3 91.16,229.72 4.85,318.69l-1268.34 1307.56c-86.31,88.98 -229.72,91.16 -318.7,4.86l0 0c-88.98,-86.31 -91.16,-229.73 -4.85,-318.7z"/>
      </g>
     </g>
     <rect fill="url(#id18)" x="12894.42" y="33210.72" width="5240.29" height="5832.34" rx="1031.55" ry="783.41"/>
     <rect fill="url(#id19)" x="18883.84" y="30990.13" width="5240.29" height="8052.93" rx="1031.55" ry="1081.68"/>
     <rect fill="url(#id20)" x="24849.28" y="27987.54" width="5240.29" height="11055.52" rx="1031.55" ry="1484.99"/>
     <rect fill="url(#id21)" x="30527.23" y="25897.49" width="5240.29" height="13145.57" rx="1031.55" ry="1765.73"/>
     <path fill="url(#id22)" fill-rule="nonzero" d="M22001.72 17983.03l504.64 -714.8 -296.82 -209.55 1098.28 -295.73 89 1133.92 -296.81 -209.54 -504.65 714.81 -593.64 -419.11zm252.32 -357.41m103.91 -462.17m400.74 -252.64m593.63 419.09m-103.91 462.2m-400.72 252.62m-549.16 147.86"/>
     <g>
      <circle fill="url(#id23)" cx="27291.21" cy="10183.27" r="421.38"/>
      <path fill="white" d="M27036.28 10227.5c-15.21,-52.76 53.57,-82.81 78.95,-57.12 15.72,15.93 56.35,82.67 84.52,124 83.59,-102.79 177.03,-229.84 230.57,-289.09 54.12,-59.9 143.31,15.18 111.22,55.03 -47.35,58.81 -234.87,239.54 -297.96,304.74 -33.39,34.51 -63.51,14 -86.52,-6.61 -28.79,-25.77 -113.11,-104.35 -120.78,-130.95z"/>
     </g>
     <g>
     </g>
     <g>
      <path fill="url(#id24)" d="M27349.58 15061.56c-404.58,-172.36 -267.55,-428.9 -254.31,-583.24 113.35,-1320.57 1904.52,-4606.04 5454.94,-4538.79 3550.41,67.25 4621.86,2763.88 4709.11,2787.26 87.26,23.39 835.72,-592.91 1163.4,-729.63 327.69,-136.71 686.66,138.84 514.45,726.28 -172.21,587.44 -567.07,3437.49 -817.07,3500.23 -249.99,62.74 -2550.2,-404.2 -3307.6,-542.21 -757.39,-138.01 -988.46,-295.66 -880.78,-588.67 107.68,-293.02 1197.35,-864.65 1226.12,-984.07 28.77,-119.42 -923.03,-1942.11 -3179.4,-1584.62 -2256.37,357.48 -2368.66,2201.71 -2414.15,2450.08 -45.48,248.37 -21.28,380.46 -490.71,397.12 -469.43,16.66 -1319.42,-137.38 -1724,-309.74z"/>
      <path fill="url(#id25)" d="M37726.24 16862.79c404.58,172.36 267.54,428.9 254.3,583.24 -113.34,1320.57 -1904.52,4606.04 -5454.93,4538.79 -3550.42,-67.25 -4621.86,-2763.88 -4709.12,-2787.26 -87.25,-23.38 -835.72,592.92 -1163.4,729.63 -327.68,136.72 -686.65,-138.84 -514.44,-726.27 172.21,-587.44 567.07,-3437.49 817.06,-3500.24 250,-62.74 2550.2,404.2 3307.6,542.21 757.4,138.02 988.46,295.66 880.78,588.68 -107.67,293.01 -1197.34,864.64 -1226.11,984.06 -28.77,119.42 923.02,1942.11 3179.4,1584.63 2256.37,-357.49 2368.66,-2201.72 2414.14,-2450.09 45.48,-248.37 21.29,-380.46 490.72,-397.12 469.43,-16.66 1319.42,137.38 1724,309.74z"/>
      <circle fill="url(#id26)" cx="37662.05" cy="20020.23" r="2360.9"/>
      <g id="_1677324178896">
      </g>
      <g clip-path="url(#id28)">
      </g>
      <path fill="white" d="M37662.05 18067.38c1078.53,0 1952.85,874.32 1952.85,1952.85 0,1078.53 -874.32,1952.85 -1952.85,1952.85 -1078.53,0 -1952.85,-874.32 -1952.85,-1952.85 0,-1078.53 874.32,-1952.85 1952.85,-1952.85z"/>
     </g>
     <g clip-path="url(#id29)">
      <g id="_1677324174576">
       <rect fill="#CCCCCC" x="37608.25" y="18005.43" width="107.6" height="464.02" rx="63541.2" ry="63541.2"/>
       <rect fill="#CCCCCC" x="37608.25" y="21613.73" width="107.6" height="464.02" rx="63541.2" ry="63541.2"/>
       <rect fill="#CCCCCC" transform="matrix(3.36572E-14 -1.27082 1.27082 3.36572E-14 35625.9 20095.4)" width="84.67" height="365.13" rx="50000" ry="50000"/>
       <rect fill="#CCCCCC" transform="matrix(3.36572E-14 -1.27082 1.27082 3.36572E-14 39234.2 20095.4)" width="84.67" height="365.13" rx="50000" ry="50000"/>
       <rect fill="#CCCCCC" transform="matrix(0.898608 -0.898608 0.898608 0.898608 36184.2 18639.9)" width="84.67" height="365.13" rx="50000" ry="50000"/>
       <rect fill="#CCCCCC" transform="matrix(0.898608 -0.898608 0.898608 0.898608 38735.7 21191.3)" width="84.67" height="365.13" rx="50000" ry="50000"/>
       <rect fill="#CCCCCC" transform="matrix(0.898608 0.898608 -0.898608 0.898608 39063.8 18563.8)" width="84.67" height="365.13" rx="50000" ry="50000"/>
       <rect fill="#CCCCCC" transform="matrix(0.898608 0.898608 -0.898608 0.898608 36512.3 21115.2)" width="84.67" height="365.13" rx="50000" ry="50000"/>
       <g>
        <path fill="#CCCCCC" fill-rule="nonzero" d="M37352.69 18773.64c-7.56,-36.63 16.01,-72.48 52.64,-80.04 36.63,-7.56 72.48,16.01 80.04,52.64l-132.68 27.4zm283.08 1370.77l-283.08 -1370.77 132.68 -27.4 283.08 1370.77 -132.68 27.4zm132.68 -27.4c7.56,36.63 -16.01,72.48 -52.64,80.04 -36.63,7.56 -72.48,-16.01 -80.04,-52.64l132.68 -27.4z"/>
       </g>
       <g>
        <path fill="#CCCCCC" fill-rule="nonzero" d="M36802.4 19647.59c-33.03,-17.56 -45.57,-58.58 -28.01,-91.61 17.56,-33.03 58.58,-45.57 91.61,-28.01l-63.6 119.62zm925.48 492.1l-925.48 -492.1 63.6 -119.62 925.48 492.1 -63.6 119.62zm63.6 -119.62c33.03,17.56 45.57,58.58 28.01,91.61 -17.56,33.03 -58.58,45.57 -91.61,28.01l63.6 -119.62z"/>
       </g>
       <g>
        <path fill="#FF9F43" fill-rule="nonzero" d="M38418.24 18236.21c9.46,-21.38 34.47,-31.05 55.85,-21.59 21.38,9.46 31.05,34.47 21.59,55.85l-77.44 -34.26zm-841.26 1901.77l841.26 -1901.77 77.44 34.26 -841.26 1901.77 -77.44 -34.26zm77.44 34.26c-9.46,21.38 -34.47,31.05 -55.85,21.59 -21.38,-9.46 -31.05,-34.47 -21.59,-55.85l77.44 34.26z"/>
       </g>
       <circle fill="url(#id30)" cx="37692.77" cy="20064.93" r="183.87"/>
      </g>
     </g>
     <g clip-path="url(#id31)">
      <path fill="none" d="M37662.05 18067.38c1078.53,0 1952.85,874.32 1952.85,1952.85 0,1078.53 -874.32,1952.85 -1952.85,1952.85 -1078.53,0 -1952.85,-874.32 -1952.85,-1952.85 0,-1078.53 874.32,-1952.85 1952.85,-1952.85z"/>
     </g>
     <path fill="url(#id32)" d="M27088.76 21785.18c229.69,0 415.9,186.21 415.9,415.91 0,229.69 -186.21,415.89 -415.9,415.89 -229.7,0 -415.91,-186.2 -415.91,-415.89 0,-229.7 186.21,-415.91 415.91,-415.91z"/>
    </g>
    <g clip-path="url(#id33)">
     <g>
      <path id="1" fill="white" d="M26837.15 22244.75c-15.02,-52.08 52.87,-81.74 77.91,-56.38 15.53,15.72 55.62,81.58 83.43,122.38 82.5,-101.45 174.73,-226.85 227.56,-285.32 53.42,-59.13 141.45,14.98 109.78,54.31 -46.73,58.04 -231.82,236.42 -294.08,300.77 -32.96,34.06 -62.69,13.82 -85.4,-6.52 -28.41,-25.43 -111.64,-102.99 -119.2,-129.24z"/>
     </g>
    </g>
    <g clip-path="url(#id34)">
     <path fill="none" d="M27088.76 21785.18c229.69,0 415.9,186.21 415.9,415.91 0,229.69 -186.21,415.89 -415.9,415.89 -229.7,0 -415.91,-186.2 -415.91,-415.89 0,-229.7 186.21,-415.91 415.91,-415.91z"/>
     <path fill="url(#id35)" fill-rule="nonzero" d="M24099.66 17067.26l504.64 -714.82 -296.81 -209.54 1098.28 -295.72 89 1133.91 -296.81 -209.54 -504.64 714.81 -593.66 -419.1zm252.33 -357.41m103.91 -462.18m400.73 -252.64m593.63 419.09m-103.9 462.2m-400.72 252.63m-549.16 147.86"/>
     <g>
      <path fill="#F4C74A" fill-opacity="0.211765" d="M13095.47 18103.88l-5420.46 0c-177.4,0 -322.53,145.12 -322.53,322.53l0 0c0,177.45 145.13,322.57 322.53,322.57l5420.46 0c177.4,0 322.53,-145.12 322.53,-322.57l0 0c0,-177.41 -145.13,-322.53 -322.53,-322.53z"/>
      <path fill="#F4C74A" fill-opacity="0.211765" d="M12232.09 19386.27l-9727.96 0c-177.47,0 -322.55,145.12 -322.55,322.53l0 0c0,177.45 145.08,322.57 322.55,322.57l9727.96 0c177.47,0 322.56,-145.12 322.56,-322.57l0 0c0,-177.41 -145.09,-322.53 -322.56,-322.53z"/>
      <path fill="#F4C74A" fill-opacity="0.211765" d="M13868.49 20667.94l-9727.96 0c-177.47,0 -322.55,145.12 -322.55,322.52l0 0c0,177.46 145.08,322.58 322.55,322.58l9727.96 0c177.47,0 322.55,-145.12 322.55,-322.58l0 0c0,-177.4 -145.08,-322.52 -322.55,-322.52z"/>
      <path fill="#F4C74A" fill-opacity="0.211765" d="M9572.72 18748.98c-307.29,0 -614.52,0 -921.81,0 99.74,245.77 96.65,457.8 0,639.06 307.29,0 614.52,0 921.81,0 -99.82,-189.84 -155.3,-389.92 0,-639.06z"/>
      <path fill="#F4C74A" fill-opacity="0.211765" d="M10543.66 20030.93c-1329.15,0 -2658.02,0 -3987.18,0 294.48,245.77 249.67,457.85 0,639.06 1329.16,0 2658.03,0 3987.18,0 -90.74,-170.44 -256.23,-366.26 0,-639.06z"/>
      <path fill="#F4C74A" fill-opacity="0.211765" d="M13095.47 18103.88l-5420.46 0c-177.4,0 -322.53,145.12 -322.53,322.53l0 0c0,177.45 145.13,322.57 322.53,322.57l5420.46 0c177.4,0 322.53,-145.12 322.53,-322.57l0 0c0,-177.41 -145.13,-322.53 -322.53,-322.53z"/>
      <path fill="#F4C74A" fill-opacity="0.211765" d="M12232.09 19386.27l-9727.96 0c-177.47,0 -322.55,145.12 -322.55,322.53l0 0c0,177.45 145.08,322.57 322.55,322.57l9727.96 0c177.47,0 322.56,-145.12 322.56,-322.57l0 0c0,-177.41 -145.09,-322.53 -322.56,-322.53z"/>
      <path fill="#F4C74A" fill-opacity="0.211765" d="M13868.49 20667.94l-9727.96 0c-177.47,0 -322.55,145.12 -322.55,322.52l0 0c0,177.46 145.08,322.58 322.55,322.58l9727.96 0c177.47,0 322.55,-145.12 322.55,-322.58l0 0c0,-177.4 -145.08,-322.52 -322.55,-322.52z"/>
      <path fill="#F4C74A" fill-opacity="0.211765" d="M9572.72 18748.98c-307.29,0 -614.52,0 -921.81,0 99.74,245.77 96.65,457.8 0,639.06 307.29,0 614.52,0 921.81,0 -99.82,-189.84 -155.3,-389.92 0,-639.06z"/>
      <path fill="#F4C74A" fill-opacity="0.211765" d="M10543.66 20030.93c-1329.15,0 -2658.02,0 -3987.18,0 294.48,245.77 249.67,457.85 0,639.06 1329.16,0 2658.03,0 3987.18,0 -90.74,-170.44 -256.23,-366.26 0,-639.06z"/>
     </g>
     <path fill="#606060" d="M15034.88 40283.33c-62.58,156.3 -240.01,232.27 -396.32,169.7 -156.31,-62.59 -232.29,-240.03 -169.7,-396.33 62.58,-156.3 240.02,-232.28 396.32,-169.71 156.31,62.59 232.28,240.03 169.7,396.34z"/>
     <path fill="#606060" d="M12858.17 39911.14c38.23,-95.48 -8.18,-203.86 -103.65,-242.08 -95.48,-38.23 -203.85,8.18 -242.08,103.66 -38.22,95.46 8.18,203.84 103.66,242.07 95.47,38.22 203.85,-8.18 242.07,-103.65z"/>
     <path fill="#606060" d="M11371.86 38416.21c-52.29,130.62 -200.57,194.11 -331.19,141.81 -130.62,-52.3 -194.12,-200.58 -141.82,-331.21 52.3,-130.62 200.58,-194.11 331.2,-141.81 130.62,52.3 194.11,200.57 141.81,331.21z"/>
     <path fill="#606060" d="M34471.58 24371.81c115.95,-122.08 308.9,-127.06 430.98,-11.1 122.09,115.94 127.05,308.9 11.1,430.98 -115.94,122.08 -308.9,127.05 -430.98,11.1 -122.08,-115.95 -127.05,-308.9 -11.1,-430.98z"/>
     <path fill="#606060" d="M36356.33 25522.59c-70.82,74.57 -67.79,192.43 6.78,263.24 74.56,70.82 192.43,67.79 263.25,-6.78 70.81,-74.56 67.78,-192.41 -6.79,-263.24 -74.56,-70.82 -192.42,-67.79 -263.24,6.78z"/>
     <path fill="#606060" d="M37184.41 27461.2c96.9,-102.02 258.15,-106.18 360.16,-9.27 102.03,96.89 106.18,258.13 9.29,360.16 -96.9,102.02 -258.15,106.18 -360.18,9.28 -102.01,-96.9 -106.16,-258.15 -9.27,-360.17z"/>
     <g>
      <path fill="#F4C74A" fill-opacity="0.211765" d="M44383.08 38855.06l-7452.09 0c-243.88,0 -443.41,199.51 -443.41,443.41l0 0.06c0,243.9 199.53,443.42 443.41,443.42l7452.09 0c243.88,0 443.41,-199.52 443.41,-443.42l0 -0.06c0,-243.9 -199.53,-443.41 -443.41,-443.41z"/>
      <path fill="#F4C74A" fill-opacity="0.211765" d="M43196.1 40618.09l-13374.05 0c-243.98,0 -443.45,199.52 -443.45,443.42l0 0.06c0,243.9 199.47,443.41 443.45,443.41l13374.05 0c243.98,0 443.45,-199.51 443.45,-443.41l0 -0.06c0,-243.9 -199.47,-443.42 -443.45,-443.42z"/>
      <path fill="#F4C74A" fill-opacity="0.211765" d="M45445.83 42380.14l-13374.05 0c-243.99,0 -443.45,199.51 -443.45,443.41l0 0.06c0,243.9 199.46,443.42 443.45,443.42l13374.05 0c243.98,0 443.45,-199.52 443.45,-443.42l0 -0.06c0,-243.9 -199.47,-443.41 -443.45,-443.41z"/>
      <path fill="#F4C74A" fill-opacity="0.211765" d="M39539.97 39741.94c-422.46,0 -844.84,0 -1267.3,0 137.13,337.89 132.87,629.39 0,878.59 422.46,0 844.84,0 1267.3,0 -137.23,-261 -213.5,-536.07 0,-878.59z"/>
      <path fill="#F4C74A" fill-opacity="0.211765" d="M40874.85 41504.38c-1827.34,0 -3654.28,0 -5481.62,0 404.85,337.88 343.26,629.45 0,878.58 1827.34,0 3654.28,0 5481.62,0 -124.76,-234.31 -352.29,-503.55 0,-878.58z"/>
      <path fill="#F4C74A" fill-opacity="0.211765" d="M44383.08 38855.06l-7452.09 0c-243.88,0 -443.41,199.51 -443.41,443.41l0 0.06c0,243.9 199.53,443.42 443.41,443.42l7452.09 0c243.88,0 443.41,-199.52 443.41,-443.42l0 -0.06c0,-243.9 -199.53,-443.41 -443.41,-443.41z"/>
      <path fill="#F4C74A" fill-opacity="0.211765" d="M43196.1 40618.09l-13374.05 0c-243.98,0 -443.45,199.52 -443.45,443.42l0 0.06c0,243.9 199.47,443.41 443.45,443.41l13374.05 0c243.98,0 443.45,-199.51 443.45,-443.41l0 -0.06c0,-243.9 -199.47,-443.42 -443.45,-443.42z"/>
      <path fill="#F4C74A" fill-opacity="0.211765" d="M45445.83 42380.14l-13374.05 0c-243.99,0 -443.45,199.51 -443.45,443.41l0 0.06c0,243.9 199.46,443.42 443.45,443.42l13374.05 0c243.98,0 443.45,-199.52 443.45,-443.42l0 -0.06c0,-243.9 -199.47,-443.41 -443.45,-443.41z"/>
      <path fill="#F4C74A" fill-opacity="0.211765" d="M39539.97 39741.94c-422.46,0 -844.84,0 -1267.3,0 137.13,337.89 132.87,629.39 0,878.59 422.46,0 844.84,0 1267.3,0 -137.23,-261 -213.5,-536.07 0,-878.59z"/>
      <path fill="#F4C74A" fill-opacity="0.211765" d="M40874.85 41504.38c-1827.34,0 -3654.28,0 -5481.62,0 404.85,337.88 343.26,629.45 0,878.58 1827.34,0 3654.28,0 5481.62,0 -124.76,-234.31 -352.29,-503.55 0,-878.58z"/>
     </g>
     <path fill="#FED136" d="M16473.54 20326.06c-133.06,141 -137.12,348.37 -205.68,522.57 -70.42,-170.48 -40.13,-442.65 -211.25,-511.45l-539.23 -216.8c-26.3,-10.57 315.04,-111.2 472.52,-166.76 184.05,-64.94 201.98,-411.39 289.07,-617.08 74.13,194.57 51.74,448.18 194.58,583.71 142.83,135.55 359.48,92.65 539.24,138.98 -179.76,88.94 -406.19,125.84 -539.25,266.83z"/>
     <path fill="#FED136" d="M18039.07 17970.26c-62.83,66.58 -64.75,164.49 -97.12,246.73 -33.25,-80.49 -18.95,-208.99 -99.74,-241.47l-254.6 -102.37c-12.42,-4.99 148.75,-52.5 223.11,-78.74 86.89,-30.66 95.35,-194.23 136.48,-291.35 34.99,91.87 24.43,211.61 91.87,275.6 67.43,64 169.73,43.75 254.6,65.62 -84.87,42 -191.78,59.41 -254.6,125.98z"/>
     <path fill="#FED136" d="M17459.96 18952.79c-102.06,108.15 -105.17,267.22 -157.77,400.82 -54.01,-130.76 -30.78,-339.52 -162.04,-392.29l-413.61 -166.31c-20.18,-8.11 241.65,-85.29 362.45,-127.92 141.17,-49.81 154.92,-315.54 221.72,-473.32 56.86,149.25 39.69,343.78 149.26,447.74 109.56,103.97 275.74,71.07 413.61,106.6 -137.88,68.22 -311.57,96.53 -413.62,204.68z"/>
     <path fill="#CCCCCC" fill-rule="nonzero" d="M23240.41 16017.27l318.02 -450.45 -187.05 -132.06 692.11 -186.35 56.08 714.56 -187.04 -132.05 -318.01 450.46 -374.11 -264.11zm159.01 -225.23m65.49 -291.25m252.53 -159.21m374.09 264.1m-65.47 291.27m-252.54 159.19m-346.06 93.18"/>
     <path fill="#CCCCCC" fill-rule="nonzero" d="M24562.49 15440.17l318.02 -450.46 -187.05 -132.05 692.11 -186.36 56.08 714.57 -187.04 -132.05 -318.02 450.46 -374.1 -264.11zm159.01 -225.23m65.49 -291.26m252.53 -159.2m374.09 264.1m-65.47 291.26m-252.54 159.21m-346.06 93.17"/>
     <path fill="#FED136" d="M26003.56 14414.36c-77.5,82.12 -79.86,202.92 -119.8,304.37 -41.01,-99.29 -23.37,-257.82 -123.04,-297.9l-314.07 -126.28c-15.33,-6.16 183.49,-64.77 275.22,-97.13 107.2,-37.83 117.64,-239.62 168.37,-359.43 43.17,113.34 30.14,261.05 113.33,340 83.2,78.94 209.4,53.96 314.09,80.95 -104.7,51.8 -236.6,73.29 -314.1,155.42z"/>
     <path fill="#FED136" d="M26812.92 12727.75c-36.59,38.77 -37.71,95.81 -56.56,143.71 -19.37,-46.88 -11.04,-121.73 -58.1,-140.66l-148.3 -59.61c-7.23,-2.91 86.64,-30.58 129.96,-45.87 50.61,-17.86 55.54,-113.13 79.49,-169.7 20.38,53.51 14.23,123.26 53.51,160.53 39.29,37.28 98.86,25.48 148.3,38.22 -49.44,24.45 -111.71,34.6 -148.3,73.38z"/>
     <path fill="#FED136" d="M26337.5 13398.85c-59.44,63 -61.26,155.65 -91.89,233.47 -31.46,-76.16 -17.92,-197.76 -94.38,-228.5l-240.91 -96.87c-11.75,-4.72 140.75,-49.68 211.12,-74.5 82.22,-29.02 90.23,-183.8 129.14,-275.69 33.12,86.92 23.11,200.23 86.93,260.79 63.82,60.55 160.62,41.39 240.92,62.08 -80.31,39.74 -181.47,56.22 -240.93,119.22z"/>
     <path fill="url(#id36)" d="M38875.92 17168.2c506.04,0 916.27,410.23 916.27,916.27 0,506.04 -410.23,916.26 -916.27,916.26 -506.03,0 -916.25,-410.22 -916.25,-916.26 0,-506.04 410.22,-916.27 916.25,-916.27z"/>
    </g>
    <g clip-path="url(#id37)">
     <g>
      <path id="1" fill="white" d="M38321.6 18180.66c-33.07,-114.73 116.49,-180.08 171.66,-124.2 34.2,34.63 122.53,179.74 183.79,269.6 181.76,-223.49 384.94,-499.74 501.34,-628.58 117.69,-130.25 311.62,33 241.85,119.66 -102.96,127.86 -510.71,520.85 -647.87,662.61 -72.61,75.04 -138.12,30.46 -188.15,-14.35 -62.59,-56.04 -245.95,-226.91 -262.62,-284.74z"/>
     </g>
    </g>
    <g clip-path="url(#id38)">
     <path fill="none" d="M38875.92 17168.2c506.04,0 916.27,410.23 916.27,916.27 0,506.04 -410.23,916.26 -916.27,916.26 -506.03,0 -916.25,-410.22 -916.25,-916.26 0,-506.04 410.22,-916.27 916.25,-916.27z"/>
    </g>
   </g>
  </g>
  <polygon fill="none" points="-2.07,2.07 49997.93,2.07 49997.93,50002.07 -2.07,50002.07 "/>
 </g>
</svg>
