<svg xmlns="http://www.w3.org/2000/svg" viewBox="0 0 24 24">
  <circle cx="12" cy="9" r="4" opacity=".35" fill="#B4B4B4" />
  <path d="M20.899,19.081l-0.478-1.196C19.965,16.747,18.862,16,17.635,16H6.365c-1.227,0-2.33,0.747-2.785,1.886l-0.478,1.196C2.734,20,3.411,21,4.4,21H19.6C20.589,21,21.266,20,20.899,19.081z" opacity=".35" fill="#B4B4B4" />
  <path d="M12,2C8.134,2,5,5.134,5,9c0,2.767,2.801,6.585,4.859,9.017c1.119,1.322,3.162,1.322,4.281,0C16.199,15.585,19,11.767,19,9C19,5.134,15.866,2,12,2z M12,11.5c-1.381,0-2.5-1.119-2.5-2.5s1.119-2.5,2.5-2.5s2.5,1.119,2.5,2.5S13.381,11.5,12,11.5z" fill="#B4B4B4" />
</svg>