<svg xmlns="http://www.w3.org/2000/svg" viewBox="0 0 24 24">
  <path d="M21.278,15.718C21.74,14.567,22,13.315,22,12c0-5.523-4.477-10-10-10S2,6.477,2,12c0,5.523,4.477,10,10,10c1.315,0,2.567-0.26,3.718-0.722C16.44,22.317,17.639,23,19,23c2.209,0,4-1.791,4-4C23,17.639,22.317,16.44,21.278,15.718z" opacity=".35" fill="#B4B4B4" />
  <path d="M8.797,15.203L8.797,15.203c0.39,0.391,1.023,0.391,1.414,0l2.119-1.797c0.735-0.623,1.126-1.561,1.051-2.521L13,6c0-0.552-0.448-1-1-1l0,0c-0.552,0-1,0.448-1,1l-0.421,4.713c-0.052,0.57-0.265,1.114-0.615,1.567l-1.167,1.509C8.406,14.179,8.406,14.813,8.797,15.203z" fill="#B4B4B4" />
  <path d="M19,14c-2.761,0-5,2.239-5,5s2.239,5,5,5s5-2.239,5-5S21.761,14,19,14z M21.619,18.619l-2.5,2.5c-0.165,0.165-0.385,0.256-0.619,0.256s-0.454-0.091-0.619-0.256l-1.5-1.5c-0.341-0.342-0.341-0.896,0-1.238c0.341-0.34,0.896-0.34,1.237,0l0.881,0.882l1.881-1.882c0.341-0.34,0.896-0.34,1.237,0C21.96,17.723,21.96,18.277,21.619,18.619z" fill="#B4B4B4" />
</svg>