<svg xmlns="http://www.w3.org/2000/svg" viewBox="0 0 24 24">
  <path d="M5,7c-1.657,0-3,1.343-3,3v4c0,1.657,1.343,3,3,3h4V7H5z" fill="#B4B4B4" />
  <path d="M19.766,2.152c-0.75-0.311-1.607-0.139-2.18,0.434C16.358,3.813,12.422,7,9,7C7.896,7,7,7.896,7,9v6c0,1.104,0.896,2,2,2c3.4,0,7.352,3.188,8.586,4.414C17.969,21.797,18.479,22,19,22c0.258,0,0.518-0.05,0.766-0.152C20.513,21.538,21,20.809,21,20V4C21,3.191,20.513,2.462,19.766,2.152z" opacity=".35" fill="#B4B4B4" />
  <path d="M9,13H5c0,0,1,7.324,1,7.5C6,21.328,6.672,22,7.5,22S9,21.328,9,20.5C9,20.324,9,13,9,13z" fill="#B4B4B4" />
  <path d="M21,9.184v5.633c1.163-0.413,2-1.512,2-2.816S22.163,9.597,21,9.184z" fill="#B4B4B4" />
</svg>