<svg xmlns="http://www.w3.org/2000/svg" viewBox="0 0 24 24">
  <path d="M12.5,21c-0.611,0-1.186-0.376-1.408-0.984L7,8.857L2.908,20.017c-0.286,0.778-1.149,1.177-1.925,0.892 c-0.777-0.285-1.177-1.147-0.892-1.925l5.5-15C5.808,3.393,6.371,3,7,3s1.192,0.393,1.408,0.983l5.5,15 c0.285,0.778-0.114,1.64-0.892,1.925C12.846,20.971,12.671,21,12.5,21z" fill="#B4B4B4" />
  <path d="M10.5,17h-7C2.671,17,2,16.329,2,15.5S2.671,14,3.5,14h7c0.829,0,1.5,0.671,1.5,1.5S11.329,17,10.5,17z" fill="#B4B4B4" />
  <path d="M23.897,19.253l-3.25-7.5C20.449,11.296,19.998,11,19.5,11s-0.949,0.296-1.147,0.753l-3.25,7.5 c-0.274,0.633,0.017,1.37,0.65,1.644c0.635,0.275,1.369-0.016,1.644-0.65L17.937,19h3.125l0.54,1.247 C21.808,20.719,22.268,21,22.75,21c0.166,0,0.334-0.033,0.497-0.104C23.88,20.623,24.171,19.886,23.897,19.253z M18.804,17 l0.696-1.606L20.196,17H18.804z" opacity=".35" fill="#B4B4B4" />
</svg>