<svg xmlns="http://www.w3.org/2000/svg" viewBox="0 0 24 24">
  <circle cx="12" cy="12" r="9" opacity=".35" fill="#B4B4B4" />
  <path d="M12,2C6.486,2,2,6.486,2,12s4.486,10,10,10s10-4.486,10-10S17.514,2,12,2z M18.918,8h-2.305c-0.247-1.199-0.605-2.265-1.052-3.154C16.964,5.548,18.132,6.648,18.918,8z M20,12c0,0.692-0.097,1.359-0.263,2h-2.83C16.967,13.357,17,12.689,17,12s-0.033-1.357-0.093-2h2.83C19.903,10.641,20,11.308,20,12z M12,20c-0.843,0-1.949-1.481-2.555-4h5.11C13.949,18.519,12.843,20,12,20z M9.108,14C9.041,13.371,9,12.707,9,12s0.041-1.371,0.108-2h5.784C14.959,10.629,15,11.293,15,12s-0.041,1.371-0.108,2H9.108z M4,12c0-0.692,0.097-1.359,0.263-2h2.83C7.033,10.643,7,11.311,7,12s0.033,1.357,0.093,2h-2.83C4.097,13.359,4,12.692,4,12z M12,4c0.843,0,1.949,1.481,2.555,4h-5.11C10.051,5.481,11.157,4,12,4z M8.44,4.846C7.993,5.735,7.635,6.801,7.388,8H5.082C5.868,6.648,7.036,5.548,8.44,4.846z M5.082,16h2.305c0.247,1.199,0.605,2.265,1.052,3.154C7.036,18.452,5.868,17.352,5.082,16z M15.56,19.154c0.447-0.889,0.804-1.955,1.052-3.154h2.305C18.132,17.352,16.964,18.452,15.56,19.154z" fill="#B4B4B4" />
</svg>