<svg xmlns="http://www.w3.org/2000/svg" viewBox="0 0 24 24">
  <path d="M21,15.555V7.243c0-0.796-0.316-1.559-0.879-2.121l-1.243-1.243C18.316,3.316,17.553,3,16.757,3H6C4.343,3,3,4.343,3,6v12c0,1.657,1.343,3,3,3h9.555c0.693,1.191,1.968,2,3.445,2c2.209,0,4-1.791,4-4C23,17.523,22.191,16.248,21,15.555z" opacity=".35" fill="#B4B4B4" />
  <path d="M19,14c-2.761,0-5,2.239-5,5s2.239,5,5,5s5-2.239,5-5S21.761,14,19,14z M21.619,18.619l-2.5,2.5c-0.165,0.165-0.385,0.256-0.619,0.256s-0.454-0.091-0.619-0.256l-1.5-1.5c-0.341-0.342-0.341-0.896,0-1.238c0.341-0.34,0.896-0.34,1.237,0l0.881,0.882l1.881-1.882c0.341-0.34,0.896-0.34,1.237,0C21.96,17.723,21.96,18.277,21.619,18.619z" fill="#B4B4B4" />
  <path d="M15,3L15,3c-0.552,0-1,0.448-1,1v2c0,0.552-0.448,1-1,1h0c-0.552,0-1-0.448-1-1V4c0-0.552-0.448-1-1-1H9C8.448,3,8,3.448,8,4v4c0,0.552,0.448,1,1,1h6c0.552,0,1-0.448,1-1V4C16,3.448,15.552,3,15,3z" fill="#B4B4B4" />
  <path d="M12,19c0-3.178,2.119-5.857,5.02-6.712C16.721,12.109,16.374,12,16,12H8c-1.105,0-2,0.895-2,2v7h6.294C12.105,20.366,12,19.695,12,19z" fill="#B4B4B4" />
</svg>