<svg xmlns="http://www.w3.org/2000/svg" viewBox="0 0 24 24">
  <path d="M6.589,14.364C5.607,13.371,5,12.007,5,10.5C5,7.462,7.462,5,10.5,5c2.903,0,5.274,2.25,5.48,5.1c0.551-0.501,1.147-0.948,1.817-1.308C17.023,5.474,14.054,3,10.5,3C6.358,3,3,6.358,3,10.5c0,0.625,0.085,1.23,0.229,1.811C3.655,12.833,4.707,13.883,6.589,14.364z" fill="#B4B4B4" />
  <path d="M8.658,14.615C4.576,14.615,3,11,3,11v7c0,1.657,1.343,3,3,3h12c1.657,0,3-1.343,3-3V8C15,8,14.458,14.615,8.658,14.615z" opacity=".35" fill="#B4B4B4" />
  <circle cx="10.5" cy="10.5" r="1.5" fill="#B4B4B4" />
  <circle cx="10.5" cy="3.5" r="1.5" fill="#B4B4B4" />
  <circle cx="15.5" cy="5.5" r="1.5" fill="#B4B4B4" />
  <circle cx="5.5" cy="5.5" r="1.5" fill="#B4B4B4" />
  <circle cx="3.5" cy="10.5" r="1.5" fill="#B4B4B4" />
</svg>